<mxfile host="app.diagrams.net" modified="2023-08-10T19:36:42.203Z" agent="Mozilla/5.0 (Macintosh; Intel Mac OS X 10_15_7) AppleWebKit/537.36 (KHTML, like Gecko) Chrome/114.0.0.0 Safari/537.36" etag="kep6-Dwi3jyxr6QhSJim" version="21.6.7" type="device" pages="2">
  <diagram name="HumanEvalPack" id="skrlXe9XcOXq9REyti5s">
    <mxGraphModel dx="1968" dy="1336" grid="1" gridSize="10" guides="1" tooltips="1" connect="1" arrows="1" fold="1" page="1" pageScale="1" pageWidth="850" pageHeight="1100" math="0" shadow="0">
      <root>
        <mxCell id="eerOrv8SsKk9PBUY99kf-0" />
        <mxCell id="eerOrv8SsKk9PBUY99kf-1" parent="eerOrv8SsKk9PBUY99kf-0" />
        <mxCell id="eerOrv8SsKk9PBUY99kf-2" value="&lt;b&gt;&lt;font style=&quot;&quot;&gt;&lt;span style=&quot;font-size: 25px;&quot;&gt;&lt;br&gt;&lt;/span&gt;&lt;/font&gt;&lt;/b&gt;" style="rounded=1;whiteSpace=wrap;html=1;fillColor=#e1d5e7;strokeColor=#9673a6;" parent="eerOrv8SsKk9PBUY99kf-1" vertex="1">
          <mxGeometry x="160" y="80" width="1240" height="120" as="geometry" />
        </mxCell>
        <mxCell id="eerOrv8SsKk9PBUY99kf-3" value="" style="rounded=0;whiteSpace=wrap;html=1;fillColor=#dae8fc;strokeColor=#6c8ebf;" parent="eerOrv8SsKk9PBUY99kf-1" vertex="1">
          <mxGeometry x="1000" y="260" width="400" height="160" as="geometry" />
        </mxCell>
        <mxCell id="eerOrv8SsKk9PBUY99kf-4" value="&lt;h1 style=&quot;line-height: 70%; font-size: 24px;&quot;&gt;&lt;span style=&quot;background-color: initial; font-size: 24px;&quot;&gt;&lt;font style=&quot;font-size: 24px;&quot;&gt;Languages:&lt;span style=&quot;font-weight: normal; font-size: 24px;&quot;&gt; Python, JavaScript, Java, Go, C++, Rust&lt;/span&gt;&lt;/font&gt;&lt;/span&gt;&lt;/h1&gt;&lt;h1 style=&quot;line-height: 70%; font-size: 24px;&quot;&gt;&lt;font style=&quot;font-size: 24px;&quot;&gt;&lt;font style=&quot;font-size: 24px;&quot;&gt;Subtasks:&lt;/font&gt;&lt;font style=&quot;font-weight: normal; font-size: 24px;&quot;&gt; HumanEvalFix, HumanEvalExplain, HumanEvalSynthesize&lt;/font&gt;&lt;/font&gt;&lt;/h1&gt;" style="text;html=1;strokeColor=none;fillColor=none;spacing=10;spacingTop=-20;whiteSpace=wrap;overflow=hidden;rounded=0;fontSize=24;" parent="eerOrv8SsKk9PBUY99kf-1" vertex="1">
          <mxGeometry x="160" y="130" width="1240" height="70" as="geometry" />
        </mxCell>
        <mxCell id="eerOrv8SsKk9PBUY99kf-5" value="&lt;div style=&quot;font-size: 13px;&quot;&gt;Write a Python function `has_close_elements(numbers: List[float], threshold: float) -&amp;gt; bool` to solve the following problem:&lt;/div&gt;&lt;div style=&quot;font-size: 13px;&quot;&gt;Check if in given list of numbers, are any two numbers closer to each other than&amp;nbsp;&lt;span style=&quot;background-color: initial;&quot;&gt;given threshold.&lt;/span&gt;&lt;/div&gt;&lt;div style=&quot;font-size: 13px;&quot;&gt;&amp;gt;&amp;gt;&amp;gt; has_close_elements([1.0, 2.0, 3.0], 0.5)&lt;/div&gt;&lt;div style=&quot;font-size: 13px;&quot;&gt;False&lt;/div&gt;&lt;div style=&quot;font-size: 13px;&quot;&gt;&amp;gt;&amp;gt;&amp;gt; has_close_elements([1.0, 2.8, 3.0, 4.0, 5.0, 2.0], 0.3)&lt;/div&gt;&lt;div style=&quot;font-size: 13px;&quot;&gt;True&lt;/div&gt;" style="text;html=1;strokeColor=none;fillColor=none;align=left;verticalAlign=middle;whiteSpace=wrap;rounded=0;spacingTop=0;spacingLeft=0;spacingRight=0;spacingBottom=0;spacing=5;fontSize=13;" parent="eerOrv8SsKk9PBUY99kf-1" vertex="1">
          <mxGeometry x="1000" y="260" width="400" height="160" as="geometry" />
        </mxCell>
        <mxCell id="eerOrv8SsKk9PBUY99kf-6" value="&lt;h1 style=&quot;line-height: 70%; font-size: 28px;&quot;&gt;HumanEvalPack&lt;/h1&gt;" style="text;html=1;strokeColor=none;fillColor=none;spacing=7;spacingTop=-20;whiteSpace=wrap;overflow=hidden;rounded=0;align=center;fontSize=28;" parent="eerOrv8SsKk9PBUY99kf-1" vertex="1">
          <mxGeometry x="160" y="80" width="1240" height="50" as="geometry" />
        </mxCell>
        <mxCell id="eerOrv8SsKk9PBUY99kf-7" value="" style="rounded=0;whiteSpace=wrap;html=1;fillColor=#f8cecc;strokeColor=#b85450;" parent="eerOrv8SsKk9PBUY99kf-1" vertex="1">
          <mxGeometry x="1000" y="420" width="400" height="340" as="geometry" />
        </mxCell>
        <mxCell id="eerOrv8SsKk9PBUY99kf-8" value="&lt;div style=&quot;font-size: 13px;&quot;&gt;&lt;div style=&quot;border-color: var(--border-color); font-size: 13px;&quot;&gt;from typing import List&lt;/div&gt;&lt;div style=&quot;border-color: var(--border-color); font-size: 13px;&quot;&gt;&lt;br style=&quot;border-color: var(--border-color); font-size: 13px;&quot;&gt;&lt;/div&gt;&lt;div style=&quot;border-color: var(--border-color); font-size: 13px;&quot;&gt;&lt;br style=&quot;border-color: var(--border-color); font-size: 13px;&quot;&gt;&lt;/div&gt;&lt;div style=&quot;border-color: var(--border-color); font-size: 13px;&quot;&gt;def has_close_elements(numbers: List[float], threshold: float) -&amp;gt; bool:&lt;/div&gt;&lt;div style=&quot;border-color: var(--border-color); font-size: 13px;&quot;&gt;&amp;nbsp; &amp;nbsp; &quot;&quot;&quot; Check if in given list of numbers, are any two numbers closer to each other than&amp;nbsp;&lt;span style=&quot;background-color: initial;&quot;&gt;given threshold.&lt;/span&gt;&lt;/div&gt;&lt;div style=&quot;border-color: var(--border-color); font-size: 13px;&quot;&gt;&amp;nbsp; &amp;nbsp; &amp;gt;&amp;gt;&amp;gt; has_close_elements([1.0, 2.0, 3.0], 0.5)&lt;/div&gt;&lt;div style=&quot;border-color: var(--border-color); font-size: 13px;&quot;&gt;&amp;nbsp; &amp;nbsp; False&lt;/div&gt;&lt;div style=&quot;border-color: var(--border-color); font-size: 13px;&quot;&gt;&amp;nbsp; &amp;nbsp; &amp;gt;&amp;gt;&amp;gt; has_close_elements([1.0, 2.8, 3.0, 4.0, 5.0, 2.0], 0.3)&lt;/div&gt;&lt;div style=&quot;border-color: var(--border-color); font-size: 13px;&quot;&gt;&amp;nbsp; &amp;nbsp; True&lt;/div&gt;&lt;div style=&quot;border-color: var(--border-color); font-size: 13px;&quot;&gt;&amp;nbsp; &amp;nbsp; &quot;&quot;&quot;&lt;/div&gt;&lt;/div&gt;&lt;div style=&quot;font-size: 13px;&quot;&gt;&amp;nbsp; &amp;nbsp; for idx, elem in enumerate(numbers):&lt;/div&gt;&lt;div style=&quot;font-size: 13px;&quot;&gt;&amp;nbsp; &amp;nbsp; &amp;nbsp; &amp;nbsp; for idx2, elem2 in enumerate(numbers):&lt;/div&gt;&lt;div style=&quot;font-size: 13px;&quot;&gt;&amp;nbsp; &amp;nbsp; &amp;nbsp; &amp;nbsp; &amp;nbsp; &amp;nbsp; if idx != idx2:&lt;/div&gt;&lt;div style=&quot;font-size: 13px;&quot;&gt;&amp;nbsp; &amp;nbsp; &amp;nbsp; &amp;nbsp; &amp;nbsp; &amp;nbsp; &amp;nbsp; &amp;nbsp; distance = abs(elem - elem2)&lt;/div&gt;&lt;div style=&quot;font-size: 13px;&quot;&gt;&amp;nbsp; &amp;nbsp; &amp;nbsp; &amp;nbsp; &amp;nbsp; &amp;nbsp; &amp;nbsp; &amp;nbsp; if distance &amp;lt; threshold:&lt;/div&gt;&lt;div style=&quot;font-size: 13px;&quot;&gt;&amp;nbsp; &amp;nbsp; &amp;nbsp; &amp;nbsp; &amp;nbsp; &amp;nbsp; &amp;nbsp; &amp;nbsp; &amp;nbsp; &amp;nbsp; return True&lt;/div&gt;&lt;div style=&quot;font-size: 13px;&quot;&gt;&lt;br style=&quot;font-size: 13px;&quot;&gt;&lt;/div&gt;&lt;div style=&quot;font-size: 13px;&quot;&gt;&amp;nbsp; &amp;nbsp; return False&lt;/div&gt;" style="text;html=1;strokeColor=none;fillColor=none;align=left;verticalAlign=middle;whiteSpace=wrap;rounded=0;spacing=5;fontSize=13;" parent="eerOrv8SsKk9PBUY99kf-1" vertex="1">
          <mxGeometry x="1000" y="420" width="400" height="340" as="geometry" />
        </mxCell>
        <mxCell id="eerOrv8SsKk9PBUY99kf-11" value="" style="rounded=0;whiteSpace=wrap;html=1;fillColor=#dae8fc;strokeColor=#6c8ebf;" parent="eerOrv8SsKk9PBUY99kf-1" vertex="1">
          <mxGeometry x="580" y="260" width="400" height="250" as="geometry" />
        </mxCell>
        <mxCell id="eerOrv8SsKk9PBUY99kf-12" value="&lt;div style=&quot;font-size: 13px;&quot;&gt;from typing import List&lt;/div&gt;&lt;div style=&quot;font-size: 13px;&quot;&gt;&lt;br style=&quot;font-size: 13px;&quot;&gt;&lt;/div&gt;&lt;div style=&quot;font-size: 13px;&quot;&gt;&lt;br style=&quot;font-size: 13px;&quot;&gt;&lt;/div&gt;&lt;div style=&quot;font-size: 13px;&quot;&gt;def has_close_elements(numbers: List[float], threshold: float) -&amp;gt; bool:for idx, elem in enumerate(numbers):&lt;/div&gt;&lt;div style=&quot;font-size: 13px;&quot;&gt;&amp;nbsp; &amp;nbsp; &amp;nbsp; &amp;nbsp; for idx2, elem2 in enumerate(numbers):&lt;/div&gt;&lt;div style=&quot;font-size: 13px;&quot;&gt;&amp;nbsp; &amp;nbsp; &amp;nbsp; &amp;nbsp; &amp;nbsp; &amp;nbsp; if idx != idx2:&lt;/div&gt;&lt;div style=&quot;font-size: 13px;&quot;&gt;&amp;nbsp; &amp;nbsp; &amp;nbsp; &amp;nbsp; &amp;nbsp; &amp;nbsp; &amp;nbsp; &amp;nbsp; distance = abs(elem - elem2)&lt;/div&gt;&lt;div style=&quot;font-size: 13px;&quot;&gt;&amp;nbsp; &amp;nbsp; &amp;nbsp; &amp;nbsp; &amp;nbsp; &amp;nbsp; &amp;nbsp; &amp;nbsp; if distance &amp;lt; threshold:&lt;/div&gt;&lt;div style=&quot;font-size: 13px;&quot;&gt;&amp;nbsp; &amp;nbsp; &amp;nbsp; &amp;nbsp; &amp;nbsp; &amp;nbsp; &amp;nbsp; &amp;nbsp; &amp;nbsp; &amp;nbsp; return True&lt;/div&gt;&lt;div style=&quot;font-size: 13px;&quot;&gt;&lt;br style=&quot;font-size: 13px;&quot;&gt;&lt;/div&gt;&lt;div style=&quot;font-size: 13px;&quot;&gt;&amp;nbsp; &amp;nbsp; return False&lt;/div&gt;&lt;div style=&quot;font-size: 13px;&quot;&gt;&lt;br style=&quot;font-size: 13px;&quot;&gt;&lt;/div&gt;&lt;div style=&quot;font-size: 13px;&quot;&gt;Provide a concise natural language description of the function using at most 213 characters.&lt;/div&gt;" style="text;html=1;strokeColor=none;fillColor=none;align=left;verticalAlign=middle;whiteSpace=wrap;rounded=0;spacing=5;fontSize=13;" parent="eerOrv8SsKk9PBUY99kf-1" vertex="1">
          <mxGeometry x="580" y="260" width="400" height="250" as="geometry" />
        </mxCell>
        <mxCell id="eerOrv8SsKk9PBUY99kf-13" value="" style="rounded=0;whiteSpace=wrap;html=1;fillColor=#f8cecc;strokeColor=#b85450;" parent="eerOrv8SsKk9PBUY99kf-1" vertex="1">
          <mxGeometry x="580" y="510" width="400" height="120" as="geometry" />
        </mxCell>
        <mxCell id="eerOrv8SsKk9PBUY99kf-14" value="&lt;div style=&quot;font-size: 13px;&quot;&gt;Check if in given list of numbers, are any two numbers closer to each other than&amp;nbsp;&lt;span style=&quot;background-color: initial;&quot;&gt;given threshold.&lt;/span&gt;&lt;/div&gt;&lt;div style=&quot;font-size: 13px;&quot;&gt;&amp;gt;&amp;gt;&amp;gt; has_close_elements([1.0, 2.0, 3.0], 0.5)&lt;/div&gt;&lt;div style=&quot;font-size: 13px;&quot;&gt;False&lt;/div&gt;&lt;div style=&quot;font-size: 13px;&quot;&gt;&amp;gt;&amp;gt;&amp;gt; has_close_elements([1.0, 2.8, 3.0, 4.0, 5.0, 2.0], 0.3)&lt;/div&gt;&lt;div style=&quot;font-size: 13px;&quot;&gt;True&lt;/div&gt;" style="text;html=1;strokeColor=none;fillColor=none;align=left;verticalAlign=middle;whiteSpace=wrap;rounded=0;spacing=5;fontSize=13;" parent="eerOrv8SsKk9PBUY99kf-1" vertex="1">
          <mxGeometry x="580" y="510" width="400" height="120" as="geometry" />
        </mxCell>
        <mxCell id="eerOrv8SsKk9PBUY99kf-15" value="" style="rounded=0;whiteSpace=wrap;html=1;fillColor=#dae8fc;strokeColor=#6c8ebf;" parent="eerOrv8SsKk9PBUY99kf-1" vertex="1">
          <mxGeometry x="580" y="630" width="400" height="100" as="geometry" />
        </mxCell>
        <mxCell id="eerOrv8SsKk9PBUY99kf-16" value="&lt;div style=&quot;font-size: 13px;&quot;&gt;&lt;div style=&quot;border-color: var(--border-color);&quot;&gt;Check if in given list of numbers, are any...&lt;br&gt;&lt;/div&gt;&lt;div style=&quot;border-color: var(--border-color);&quot;&gt;...&lt;/div&gt;&lt;/div&gt;&lt;div style=&quot;font-size: 13px;&quot;&gt;Write functional code in Python according to the description.&lt;/div&gt;" style="text;html=1;strokeColor=none;fillColor=none;align=left;verticalAlign=middle;whiteSpace=wrap;rounded=0;spacing=5;fontSize=13;" parent="eerOrv8SsKk9PBUY99kf-1" vertex="1">
          <mxGeometry x="580" y="630" width="400" height="90" as="geometry" />
        </mxCell>
        <mxCell id="eerOrv8SsKk9PBUY99kf-17" value="" style="rounded=0;whiteSpace=wrap;html=1;fillColor=#f8cecc;strokeColor=#b85450;" parent="eerOrv8SsKk9PBUY99kf-1" vertex="1">
          <mxGeometry x="580" y="730" width="400" height="210" as="geometry" />
        </mxCell>
        <mxCell id="eerOrv8SsKk9PBUY99kf-19" value="" style="rounded=0;whiteSpace=wrap;html=1;fillColor=#dae8fc;strokeColor=#6c8ebf;" parent="eerOrv8SsKk9PBUY99kf-1" vertex="1">
          <mxGeometry x="1040" y="795" width="100" height="50" as="geometry" />
        </mxCell>
        <mxCell id="eerOrv8SsKk9PBUY99kf-21" value="&lt;h1 style=&quot;line-height: 70%; font-size: 24px;&quot;&gt;Fix Code&lt;/h1&gt;" style="text;html=1;strokeColor=none;fillColor=none;spacing=5;spacingTop=-20;whiteSpace=wrap;overflow=hidden;rounded=0;align=center;fontSize=24;" parent="eerOrv8SsKk9PBUY99kf-1" vertex="1">
          <mxGeometry x="160" y="220" width="400" height="50" as="geometry" />
        </mxCell>
        <mxCell id="eerOrv8SsKk9PBUY99kf-22" value="&lt;h1 style=&quot;line-height: 70%; font-size: 24px;&quot;&gt;Explain Code&lt;/h1&gt;" style="text;html=1;strokeColor=none;fillColor=none;spacing=5;spacingTop=-20;whiteSpace=wrap;overflow=hidden;rounded=0;align=center;fontSize=24;" parent="eerOrv8SsKk9PBUY99kf-1" vertex="1">
          <mxGeometry x="580" y="220" width="400" height="40" as="geometry" />
        </mxCell>
        <mxCell id="eerOrv8SsKk9PBUY99kf-23" value="&lt;h1 style=&quot;line-height: 70%; font-size: 24px;&quot;&gt;Synthesize Code&lt;/h1&gt;" style="text;html=1;strokeColor=none;fillColor=none;spacing=5;spacingTop=-20;whiteSpace=wrap;overflow=hidden;rounded=0;align=center;fontSize=24;" parent="eerOrv8SsKk9PBUY99kf-1" vertex="1">
          <mxGeometry x="1000" y="220" width="400" height="40" as="geometry" />
        </mxCell>
        <mxCell id="eerOrv8SsKk9PBUY99kf-24" value="&lt;h1 style=&quot;line-height: 70%; font-size: 26px;&quot;&gt;Model Input&lt;/h1&gt;" style="text;html=1;strokeColor=none;fillColor=none;spacing=5;spacingTop=-20;whiteSpace=wrap;overflow=hidden;rounded=0;align=center;fontSize=26;" parent="eerOrv8SsKk9PBUY99kf-1" vertex="1">
          <mxGeometry x="1140" y="803.75" width="220" height="32.5" as="geometry" />
        </mxCell>
        <mxCell id="eerOrv8SsKk9PBUY99kf-25" value="&lt;h1 style=&quot;line-height: 70%; font-size: 24px;&quot;&gt;&lt;span style=&quot;background-color: initial; font-size: 24px;&quot;&gt;&lt;font style=&quot;font-size: 24px;&quot;&gt;Metric:&lt;span style=&quot;font-weight: normal; font-size: 24px;&quot;&gt;&amp;nbsp;Pass@k&lt;/span&gt;&lt;/font&gt;&lt;/span&gt;&lt;/h1&gt;&lt;h1 style=&quot;line-height: 70%; font-size: 24px;&quot;&gt;Creation:&lt;span style=&quot;font-weight: 400; font-size: 24px;&quot;&gt; Humans&lt;/span&gt;&lt;/h1&gt;" style="text;html=1;strokeColor=none;fillColor=none;spacing=10;spacingTop=-20;whiteSpace=wrap;overflow=hidden;rounded=0;align=right;fontSize=24;" parent="eerOrv8SsKk9PBUY99kf-1" vertex="1">
          <mxGeometry x="160" y="130" width="1240" height="70" as="geometry" />
        </mxCell>
        <mxCell id="eerOrv8SsKk9PBUY99kf-26" value="&lt;h1 style=&quot;line-height: 70%; font-size: 26px;&quot;&gt;Target Output&lt;/h1&gt;" style="text;html=1;strokeColor=none;fillColor=none;spacing=0;spacingTop=-20;whiteSpace=wrap;overflow=hidden;rounded=0;align=center;fontSize=26;" parent="eerOrv8SsKk9PBUY99kf-1" vertex="1">
          <mxGeometry x="1150" y="885" width="220" height="30" as="geometry" />
        </mxCell>
        <mxCell id="eerOrv8SsKk9PBUY99kf-27" value="" style="rounded=0;whiteSpace=wrap;html=1;fillColor=#dae8fc;strokeColor=#6c8ebf;" parent="eerOrv8SsKk9PBUY99kf-1" vertex="1">
          <mxGeometry x="160" y="260" width="400" height="470" as="geometry" />
        </mxCell>
        <mxCell id="eerOrv8SsKk9PBUY99kf-28" value="&lt;div style=&quot;font-size: 13px;&quot;&gt;from typing import List&lt;/div&gt;&lt;div style=&quot;font-size: 13px;&quot;&gt;&lt;br style=&quot;font-size: 13px;&quot;&gt;&lt;/div&gt;&lt;div style=&quot;font-size: 13px;&quot;&gt;&lt;br style=&quot;font-size: 13px;&quot;&gt;&lt;/div&gt;&lt;div style=&quot;font-size: 13px;&quot;&gt;def has_close_elements(numbers: List[float], threshold: float) -&amp;gt; bool:&lt;/div&gt;&lt;div style=&quot;font-size: 13px;&quot;&gt;&amp;nbsp; &amp;nbsp; for idx, elem in enumerate(numbers):&lt;/div&gt;&lt;div style=&quot;font-size: 13px;&quot;&gt;&amp;nbsp; &amp;nbsp; &amp;nbsp; &amp;nbsp; for idx2, elem2 in enumerate(numbers):&lt;/div&gt;&lt;div style=&quot;font-size: 13px;&quot;&gt;&amp;nbsp; &amp;nbsp; &amp;nbsp; &amp;nbsp; &amp;nbsp; &amp;nbsp; if idx != idx2:&lt;/div&gt;&lt;div style=&quot;font-size: 13px;&quot;&gt;&amp;nbsp; &amp;nbsp; &amp;nbsp; &amp;nbsp; &amp;nbsp; &amp;nbsp; &amp;nbsp; &amp;nbsp; distance = elem - elem2&lt;/div&gt;&lt;div style=&quot;font-size: 13px;&quot;&gt;&amp;nbsp; &amp;nbsp; &amp;nbsp; &amp;nbsp; &amp;nbsp; &amp;nbsp; &amp;nbsp; &amp;nbsp; if distance &amp;lt; threshold:&lt;/div&gt;&lt;div style=&quot;font-size: 13px;&quot;&gt;&amp;nbsp; &amp;nbsp; &amp;nbsp; &amp;nbsp; &amp;nbsp; &amp;nbsp; &amp;nbsp; &amp;nbsp; &amp;nbsp; &amp;nbsp; return True&lt;/div&gt;&lt;div style=&quot;font-size: 13px;&quot;&gt;&lt;br style=&quot;font-size: 13px;&quot;&gt;&lt;/div&gt;&lt;div style=&quot;font-size: 13px;&quot;&gt;&amp;nbsp; &amp;nbsp; return False&lt;/div&gt;&lt;div style=&quot;font-size: 13px;&quot;&gt;&lt;br style=&quot;font-size: 13px;&quot;&gt;&lt;/div&gt;&lt;div style=&quot;font-size: 13px;&quot;&gt;def check(has_close_elements):&lt;/div&gt;&lt;div style=&quot;font-size: 13px;&quot;&gt;&amp;nbsp; &amp;nbsp; assert has_close_elements([1.0, 2.0, 3.9, 4.0, 5.0, 2.2], 0.3) == True&lt;/div&gt;&lt;div style=&quot;font-size: 13px;&quot;&gt;&amp;nbsp; &amp;nbsp; assert has_close_elements([1.0, 2.0, 3.9, 4.0, 5.0, 2.2], 0.05) == False&lt;/div&gt;&lt;div style=&quot;font-size: 13px;&quot;&gt;&amp;nbsp; &amp;nbsp; assert has_close_elements([1.0, 2.0, 5.9, 4.0, 5.0], 0.95) == True&lt;/div&gt;&lt;div style=&quot;font-size: 13px;&quot;&gt;&amp;nbsp; &amp;nbsp; assert has_close_elements([1.0, 2.0, 5.9, 4.0, 5.0], 0.8) == False&lt;/div&gt;&lt;div style=&quot;font-size: 13px;&quot;&gt;&amp;nbsp; &amp;nbsp; assert has_close_elements([1.0, 2.0, 3.0, 4.0, 5.0, 2.0], 0.1) == True&lt;/div&gt;&lt;div style=&quot;font-size: 13px;&quot;&gt;&amp;nbsp; &amp;nbsp; assert has_close_elements([1.1, 2.2, 3.1, 4.1, 5.1], 1.0) == True&lt;/div&gt;&lt;div style=&quot;font-size: 13px;&quot;&gt;&amp;nbsp; &amp;nbsp; assert has_close_elements([1.1, 2.2, 3.1, 4.1, 5.1], 0.5) == False&lt;/div&gt;&lt;div style=&quot;font-size: 13px;&quot;&gt;&lt;br style=&quot;font-size: 13px;&quot;&gt;&lt;/div&gt;&lt;div style=&quot;font-size: 13px;&quot;&gt;check(has_close_elements)&lt;/div&gt;&lt;div style=&quot;font-size: 13px;&quot;&gt;&lt;br style=&quot;font-size: 13px;&quot;&gt;&lt;/div&gt;&lt;div style=&quot;font-size: 13px;&quot;&gt;Fix bugs in has_close_elements.&lt;/div&gt;" style="text;html=1;strokeColor=none;fillColor=none;align=left;verticalAlign=middle;whiteSpace=wrap;rounded=0;spacing=5;fontSize=13;" parent="eerOrv8SsKk9PBUY99kf-1" vertex="1">
          <mxGeometry x="160" y="260" width="400" height="470" as="geometry" />
        </mxCell>
        <mxCell id="eerOrv8SsKk9PBUY99kf-29" value="" style="rounded=0;whiteSpace=wrap;html=1;fillColor=#f8cecc;strokeColor=#b85450;" parent="eerOrv8SsKk9PBUY99kf-1" vertex="1">
          <mxGeometry x="160" y="730" width="400" height="210" as="geometry" />
        </mxCell>
        <mxCell id="eerOrv8SsKk9PBUY99kf-30" value="&lt;div style=&quot;font-size: 13px;&quot;&gt;&lt;div style=&quot;border-color: var(--border-color); font-size: 13px;&quot;&gt;from typing import List&lt;/div&gt;&lt;div style=&quot;border-color: var(--border-color); font-size: 13px;&quot;&gt;&lt;br style=&quot;border-color: var(--border-color); font-size: 13px;&quot;&gt;&lt;/div&gt;&lt;div style=&quot;border-color: var(--border-color); font-size: 13px;&quot;&gt;&lt;br style=&quot;border-color: var(--border-color); font-size: 13px;&quot;&gt;&lt;/div&gt;&lt;div style=&quot;border-color: var(--border-color); font-size: 13px;&quot;&gt;def has_close_elements(numbers: List[float], threshold: float) -&amp;gt; bool:&lt;/div&gt;&lt;/div&gt;&lt;div style=&quot;font-size: 13px;&quot;&gt;&amp;nbsp; &amp;nbsp; for idx, elem in enumerate(numbers):&lt;/div&gt;&lt;div style=&quot;font-size: 13px;&quot;&gt;&amp;nbsp; &amp;nbsp; &amp;nbsp; &amp;nbsp; for idx2, elem2 in enumerate(numbers):&lt;/div&gt;&lt;div style=&quot;font-size: 13px;&quot;&gt;&amp;nbsp; &amp;nbsp; &amp;nbsp; &amp;nbsp; &amp;nbsp; &amp;nbsp; if idx != idx2:&lt;/div&gt;&lt;div style=&quot;font-size: 13px;&quot;&gt;&amp;nbsp; &amp;nbsp; &amp;nbsp; &amp;nbsp; &amp;nbsp; &amp;nbsp; &amp;nbsp; &amp;nbsp; distance = abs(elem - elem2)&lt;/div&gt;&lt;div style=&quot;font-size: 13px;&quot;&gt;&amp;nbsp; &amp;nbsp; &amp;nbsp; &amp;nbsp; &amp;nbsp; &amp;nbsp; &amp;nbsp; &amp;nbsp; if distance &amp;lt; threshold:&lt;/div&gt;&lt;div style=&quot;font-size: 13px;&quot;&gt;&amp;nbsp; &amp;nbsp; &amp;nbsp; &amp;nbsp; &amp;nbsp; &amp;nbsp; &amp;nbsp; &amp;nbsp; &amp;nbsp; &amp;nbsp; return True&lt;/div&gt;&lt;div style=&quot;font-size: 13px;&quot;&gt;&lt;br style=&quot;font-size: 13px;&quot;&gt;&lt;/div&gt;&lt;div style=&quot;font-size: 13px;&quot;&gt;&amp;nbsp; &amp;nbsp; return False&lt;/div&gt;" style="text;html=1;strokeColor=none;fillColor=none;align=left;verticalAlign=middle;whiteSpace=wrap;rounded=0;spacing=5;fontSize=13;" parent="eerOrv8SsKk9PBUY99kf-1" vertex="1">
          <mxGeometry x="160" y="730" width="400" height="210" as="geometry" />
        </mxCell>
        <mxCell id="eerOrv8SsKk9PBUY99kf-31" value="" style="rounded=0;whiteSpace=wrap;html=1;fillColor=#f8cecc;strokeColor=#b85450;" parent="eerOrv8SsKk9PBUY99kf-1" vertex="1">
          <mxGeometry x="1040" y="875" width="100" height="50" as="geometry" />
        </mxCell>
        <mxCell id="iRLi0OpNOA7eccYOhiPZ-1" value="&lt;div style=&quot;font-size: 13px;&quot;&gt;&lt;div style=&quot;border-color: var(--border-color); font-size: 13px;&quot;&gt;from typing import List&lt;/div&gt;&lt;div style=&quot;border-color: var(--border-color); font-size: 13px;&quot;&gt;&lt;br style=&quot;border-color: var(--border-color); font-size: 13px;&quot;&gt;&lt;/div&gt;&lt;div style=&quot;border-color: var(--border-color); font-size: 13px;&quot;&gt;&lt;br style=&quot;border-color: var(--border-color); font-size: 13px;&quot;&gt;&lt;/div&gt;&lt;div style=&quot;border-color: var(--border-color); font-size: 13px;&quot;&gt;def has_close_elements(numbers: List[float], threshold: float) -&amp;gt; bool:&lt;/div&gt;&lt;/div&gt;&lt;div style=&quot;font-size: 13px;&quot;&gt;&amp;nbsp; &amp;nbsp; for idx, elem in enumerate(numbers):&lt;/div&gt;&lt;div style=&quot;font-size: 13px;&quot;&gt;&amp;nbsp; &amp;nbsp; &amp;nbsp; &amp;nbsp; for idx2, elem2 in enumerate(numbers):&lt;/div&gt;&lt;div style=&quot;font-size: 13px;&quot;&gt;&amp;nbsp; &amp;nbsp; &amp;nbsp; &amp;nbsp; &amp;nbsp; &amp;nbsp; if idx != idx2:&lt;/div&gt;&lt;div style=&quot;font-size: 13px;&quot;&gt;&amp;nbsp; &amp;nbsp; &amp;nbsp; &amp;nbsp; &amp;nbsp; &amp;nbsp; &amp;nbsp; &amp;nbsp; distance = abs(elem - elem2)&lt;/div&gt;&lt;div style=&quot;font-size: 13px;&quot;&gt;&amp;nbsp; &amp;nbsp; &amp;nbsp; &amp;nbsp; &amp;nbsp; &amp;nbsp; &amp;nbsp; &amp;nbsp; if distance &amp;lt; threshold:&lt;/div&gt;&lt;div style=&quot;font-size: 13px;&quot;&gt;&amp;nbsp; &amp;nbsp; &amp;nbsp; &amp;nbsp; &amp;nbsp; &amp;nbsp; &amp;nbsp; &amp;nbsp; &amp;nbsp; &amp;nbsp; return True&lt;/div&gt;&lt;div style=&quot;font-size: 13px;&quot;&gt;&lt;br style=&quot;font-size: 13px;&quot;&gt;&lt;/div&gt;&lt;div style=&quot;font-size: 13px;&quot;&gt;&amp;nbsp; &amp;nbsp; return False&lt;/div&gt;" style="text;html=1;strokeColor=none;fillColor=none;align=left;verticalAlign=middle;whiteSpace=wrap;rounded=0;spacing=5;fontSize=13;" parent="eerOrv8SsKk9PBUY99kf-1" vertex="1">
          <mxGeometry x="580" y="730" width="400" height="210" as="geometry" />
        </mxCell>
        <mxCell id="iRLi0OpNOA7eccYOhiPZ-6" value="" style="endArrow=classic;html=1;curved=1;strokeWidth=6;" parent="eerOrv8SsKk9PBUY99kf-1" edge="1">
          <mxGeometry width="50" height="50" relative="1" as="geometry">
            <mxPoint x="940" y="590" as="sourcePoint" />
            <mxPoint x="840" y="660" as="targetPoint" />
            <Array as="points">
              <mxPoint x="1040" y="630" />
            </Array>
          </mxGeometry>
        </mxCell>
      </root>
    </mxGraphModel>
  </diagram>
  <diagram name="Main Plot" id="cp3_UKBLrT-koQNJue10">
    <mxGraphModel dx="984" dy="668" grid="1" gridSize="10" guides="1" tooltips="1" connect="1" arrows="1" fold="1" page="1" pageScale="1" pageWidth="850" pageHeight="1100" math="0" shadow="0">
      <root>
        <mxCell id="Nk4qV-HExm6ET_pQnzFB-0" />
        <mxCell id="Nk4qV-HExm6ET_pQnzFB-1" parent="Nk4qV-HExm6ET_pQnzFB-0" />
        <mxCell id="nPtIcV1WUJgWKUng7Wmg-3" value="" style="shape=image;verticalLabelPosition=bottom;labelBackgroundColor=default;verticalAlign=top;aspect=fixed;imageAspect=0;image=data:image/png,iVBORw0KGgoAAAANSUhEUgAAB9cAAALXCAYAAAA32cAfAAAAOXRFWHRTb2Z0d2FyZQBNYXRwbG90bGliIHZlcnNpb24zLjcuMSwgaHR0cHM6Ly9tYXRwbG90bGliLm9yZy/bCgiHAAAACXBIWXMAAA9hAAAPYQGoP6dpAAD0Y0lEQVR4nOzdd5hdVdk34Gd6ydT0XkgnEDoIAWkiRVBBQAERsQKioPCp2PBFRRFQAbGAr6AIvlRFQJoSeg1ICAkphDTS60wmk+nz/YEGh3MmeyYzk0m57+vKdeU8e++1noOYHOZ31loZzc3NzQEAAAAAAAAAtCqzuxsAAAAAAAAAgG2dcB0AAAAAAAAAEgjXAQAAAAAAACCBcB0AAAAAAAAAEgjXAQAAAAAAACCBcB0AAAAAAAAAEgjXAQAAAAAAACCBcB0AAAAAAAAAEgjXAQAAAAAAACCBcB0AAAAAAAAAEgjXAQAAAAAAACCBcB0AAAAAAAAAEgjXAQAAAAAAACCBcB0AAAAAAAAAEgjXAQAAAAAAACCBcB0AAAAAAAAAEgjXAQAAAAAAACCBcB0AAAAAAAAAEgjXAQAAAAAAACCBcB0AAAAAAAAAEgjXAQAAAAAAACCBcB0AAAAAAAAAEgjXAQAAAAAAACCBcB0AAAAAAAAAEgjXAQAAAAAAACCBcB0AAAAAAAAAEgjXAQAAAAAAACCBcB0AAAAAAAAAEgjXAQAAAAAAACCBcB0AAAAAAAAAEgjXAQAAAAAAACCBcB0AAAAAAAAAEgjXAQAAAAAAACCBcB0AAAAAAAAAEmR3dwMAAAAAAAAAO4KMjIzubmGH0dzc3N0tpLByHQAAAAAAAAASCNcBAAAAAAAAIIFwHQAAAAAAAAASCNcBAAAAAAAAIIFwHQAAAAAAAAASCNcBAAAAAAAAIIFwHQAAAAAAAAASCNcBAAAAAAAAIEF2dzcAAAAAAAAAsCNrbm7u0POPP/54HH744a1e79evX5x66qlx5JFHxvjx46Nv377Ro0ePaGhoiPXr18e8efNi6tSpcf/998cDDzwQTU1NHernv+27775x8MEHxx577BGjR4+O3r17R8+ePaOsrCzq6uqiqqoq5s+fH9OnT4+HH344/vrXv0ZdXV2nzb81ZTR39H9JAAAAAAAAACIjIyNtvSvD9W9/+9vxrW99KwoLC9s01qxZs+KTn/xkTJkypUM9RUT06NEjqqqq2vXM4sWL40tf+lLce++9m71vW4yxbQsPAAAAAAAAsA1rLWi+/PLL44c//GGbg/WIiLFjx8bjjz8e48eP76z22mXQoEFxzz33xIc//OFumb8jrFwHAAAAAAAA6AStrVx/6aWX2vR8eXl5jBw5MqX+rW99K3784x+3qA0ePDjmz58fWVlZKfdXVVXFggULoqioKIYNG5Z2rrvuuitOOeWUNvXVmveuXK+srIwlS5ZETU1NlJeXx4ABAyI3Nzfts2+99Vba9/of22KM7cx1AAAAAAAAgC603377tem+3/3udymBc1VVVfz6179Ouffoo49OG6xfccUVcemll0ZtbW1EROy+++7xwAMPxJAhQ1rcd+ihh7a1/VY1NjbGH/7wh7j//vvj2WefjSVLlrS4XlpaGmeddVZceeWVKSH7LrvsEqNGjYo333yzw31sLbaFBwAAAAAAAOhm/fr1izPOOCOl/vvf/z7WrVuXUu/bt29Kbf369XHJJZdsCtYjIqZNmxbXXnttyr3FxcUdazgiampq4tOf/nTcddddKcF6RERFRUVce+21cdNNN6V9vk+fPh3uYWsSrgMAAAAAAAB0s/PPPz/y8/Nb1BoaGuLnP/952vtXrFiRUsvNzU0ZI+KdFeTvNXPmzC3stP0yM9PH0kuXLt1qPXQG4ToAAAAAAABANyooKIhzzz03pX733XfH/Pnz0z7z4IMPRl1dXYtaXl5e3HnnnbHHHntEfn5+9OrVK84666z46le/mvL8L37xi85ofbMKCwvj3HPPjbPOOivl2tSpU1t9b9uqjOZt8SR4AAAAAAAAgO1MRkbGFj133nnnxfXXX59S32+//WLKlCmtPnf++efHNddc0+rK8HQaGhri29/+dvz0pz/dol5bM3r06Ljtttsi4p2V6iUlJTFs2LDIyclJuXf16tVxzDHHbPa9bYsxtnAdAAAAAAAAoBNsSbiekZERs2bNitGjR7eoP/HEE3HYYYclPv/hD384rrjiihg3blzivX/84x/jiiuuiBkzZrS7zyR77LFHvPrqq5u9Z+PGjXHvvffGJZdckrhqfVuMsW0LDwAAAAAAANBNPvKRj6QE6xERV155ZZuev//+++N73/tem7ZYP+WUU+LLX/5y9OzZs71tdoo33ngjHnvssViyZEm3zN9RVq4DAAAAAAAAdIItWbn+9NNPx6RJk1rUZsyYERMmTEh8dtddd43bb789dttttxb1mpqamD9/fpSWlsaAAQNSnluwYEEceuihsWDBgnb325q2rFz/j+nTp8fxxx+/2S8EbIsxtpXrAAAAAAAAAN3ggAMOSAnWIyJ+9rOfJT47YMCAePzxx1OC9csuuyzKyspi/PjxMXDgwNhrr73ijTfeaHHPsGHDNp2P3lmmTp0aGRkZkZGREdnZ2dG/f/849thj45577km5d8KECfHggw9GXl5ep/bQ1axcBwAAAAAAAOgE7V25fuedd8bJJ5/corZs2bIYNmxY1NXVbfbZX/3qV3Huuee2qP3973+PD33oQyn37rfffvHiiy+m1A844IC09c72k5/8JL7xjW+k1D/72c/G73//+7TPbIsxtpXrAAAAAAAAAFvZiBEj4sQTT0ypX3fddYnBekSkDdEfe+yxtPe+9NJLUVVVlVLff//929Bpx1199dVp60ccccRWmb+zCNcBAAAAAAAAtrILL7wwsrKyWtSqqqri17/+dZueT3eW+uZWe6e7VlRU1Ka5Oqq6ujptvU+fPltl/s4iXAcAAAAAAADYisrKyuIzn/lMSv2mm26KtWvXtmmMioqKlNrhhx+e9t599tkniouLU+orV65MqV166aXR3Nzc4te8efPSjrvffvu1qdePf/zjaevp5t+WCdcBAAAAAAAAtqJzzjknZdV4Q0ND/PznP2/zGP/6179Sascff3x873vfi9zc3E21iRMnxh/+8Ie0Yzz//PNtni+dF198MZ555pk4//zzY+TIkSnXy8vL46KLLorrr78+7fPPPvtsh+bf2jKat8WT4AEAAAAAAAC2MxkZGYn35OTkxPz582PgwIEt6nfccUerK7zTOe200+K2225Le23jxo0xf/78KC0tTZnnP5599tmYNGlSSv3SSy+N73//+y1q8+fPjxEjRqTc+96oubKyMpYuXRrV1dVRVlYWQ4cOTdn6/j+WLVsW48ePj3Xr1qW9vi3G2Nnd3QAAAAAAAADAzuL0009PG3hfddVV7Rrnz3/+c5xyyilx4oknplwrKCiI8ePHt/rs6tWr4/Of/3y75muLkpKSKCkpSbyvsrIyTjvttFaD9W2VbeEBAAAAAAAAtpKvfe1rKbUnn3wyXnrppXaPdcopp8RPf/rTqK2tbfMzzz//fLz//e+PGTNmtHu+92psbGz3M4888kgceOCB8fjjj3d4/q3NynUAAAAAAACAreCoo46KiRMnptTbu2r9PxobG+Mb3/hGXHvttXHKKafEYYcdFrvuumv07ds3evToEfX19VFRURFvvfVWvPzyy3H33XfHE0880dG3sUmfPn3iyCOPjAMPPDD22GOPGD58ePTp0ycKCwujsbExqqqqYvny5TFr1qx44YUX4m9/+1u88cYbnTb/1ubMdQAAAAAAAIBO0JYz12mbbTHGti08AAAAAAAAACQQrgMAAAAAAABAAuE6AAAAAAAAACQQrgMAAAAAAABAAuE6AAAAAAAAACQQrgMAAAAAAABAAuE6AAAAAAAAACQQrgMAAAAAAABAAuE6AAAAAAAAACQQrgMAAAAAAABAAuE6AAAAAAAAACQQrgMAAAAAAABAAuE6AAAAAAAAACQQrgMAAAAAAABAAuE6AAAAAAAAACQQrgMAAAAAAABAAuE6AAAAAAAAACQQrgMAAAAAAABAAuE6AAAAAAAAACQQrgMAAAAAAABAAuE6AAAAAAAAACQQrgMAAAAAAABAAuE6AAAAAAAAACQQrgMAAAAAAABAAuE6AAAAAAAAACQQrgMAAAAAAABAAuE6AAAAAAAAACQQrgMAAAAAAABAAuE6AAAAAAAAACQQrgMAAAAAAABAAuE6AAAAAAAAACQQrgMAAAAAAABAAuE6AAAAAAAAACQQrgMAAAAAAABAAuE6AAAAAAAAACQQrgMAAAAAAABAAuE6AAAAAAAAACQQrgMAAAAAAABAAuE6AAAAAAAAACQQrgMAAAAAAABAAuE6AAAAAAAAACQQrgMAAAAAAABAAuE6AAAAAAAAACQQrgMAAAAAAABAAuE6AAAAAAAAACQQrgMAAAAAAABAAuE6AAAAAAAAACQQrgMAAAAAAABAAuE6AAAAAAAAACQQrgMAAAAAAABAAuE6AAAAAAAAACQQrgMAAAAAAABAAuE6AAAAAAAAACQQrgMAAAAAAABAAuE6AAAAAAAAACQQrgMAAAAAAABAAuE6AAAAAAAAACQQrgMAAAAAAABAAuE6AAAAAAAAACQQrgMAAAAAAABAAuE6AAAAAAAAACQQrgMAAAAAAABAAuE6AAAAAAAAACQQrgMAAAAAAABAAuE6AAAAAAAAACQQrgMAAAAAAABAAuE6AAAAAAAAACQQrgMAAAAAAABAAuE6AAAAAAAAACQQrgMAAAAAAABAAuE6AAAAAAAAACQQrgMAAAAAAABAAuE6AAAAAAAAACQQrgMAAAAAAABAAuE6AAAAAAAAACQQrgMAAAAAAABAAuE6AAAAAAAAACQQrgMAAAAAAABAAuE6AAAAAAAAACQQrgMAAAAAAABAAuE6AAAAAAAAACQQrgMAAAAAAABAAuE6AAAAAAAAACQQrgMAAAAAAABAAuE6AAAAAAAAACQQrgMAAAAAAABAAuE6AAAAAAAAACQQrgMAAAAAAABAAuE6AAAAAAAAACQQrgMAAAAAAABAAuE6AAAAAAAAACQQrgMAAAAAAABAAuE6AAAAAAAAACQQrgMAAAAAAABAAuE6AAAAAAAAACQQrgMAAAAAAABAAuE6AAAAAAAAACQQrgMAAAAAAABAAuE6AAAAAAAAACQQrgMAAAAAAABAAuE6AAAAAAAAACQQrgMAAAAAAABAAuE6AAAAAAAAACQQrgMAAAAAAABAAuE6AAAAAAAAACQQrgMAAAAAAABAAuE6AAAAAAAAACQQrgMAAAAAAABAAuE6AAAAAAAAACQQrgMAAAAAAABAAuE6AAAAAAAAACQQrgMAAAAAAABAAuE6AAAAAAAAACQQrgMAAAAAAABAAuE6AAAAAAAAACQQrgMAAAAAAABAAuE6AAAAAAAAACQQrgMAAAAAAABAAuE6AAAAAAAAACQQrgMAAAAAAABAAuE6AAAAAAAAACQQrgMAAAAAAABAAuE6AAAAAAAAACQQrgMAAAAAAABAAuE6AAAAAAAAACQQrgMAAAAAAABAAuE6AAAAAAAAACQQrgMAAAAAAABAAuE6AAAAAAAAACQQrgMAAAAAAABAAuE6AAAAAAAAACQQrgMAAAAAAABAAuE6AAAAAAAAACQQrgMAAAAAAABAAuE6AAAAAAAAACQQrgMAAAAAAABAAuE6AAAAAAAAACQQrgMAAAAAAABAAuE6AAAAAAAAACQQrgMAAAAAAABAAuE6AAAAAAAAACTI7u4GAAAAAGBnl5GR0d0t7DCam5u7uwUAAHZQVq4DAAAAAAAAQALhOgAAAAAAAAAkEK4DAAAAAAAAQALhOgAAAAAAAAAkEK4DAAAAAAAAQALhOgAAAAAAAAAkEK4DAAAAAAAAQALhOgAAAAAAAAAkEK4DAAAAwDZs8uTJ0dzc3O5fP/jBD9KOl5WVFZMmTYqLL744/vznP8dLL70Uy5cvj+rq6qitrY2VK1fGK6+8EjfeeGMcffTRkZGR0SXva+TIkfHxj388rrzyypg8eXJUVFSkfR/Dhg3rkvkBAKC9sru7AQAAAABg6zjkkEPivvvui9LS0lbv6d27d/Tu3Tv22muv+NznPhevvvpqnH322fHqq692Wh/f+c53Wg3/AQBgW2XlOgAAAADsJHr27LnZYD2dPffcM5544onYf//9O62PrKysThsLAAC2FivXAQAAAGA7UltbG9OmTUu8b/HixW0ab+PGjbFo0aLIzs6OYcOGpQ2+S0pK4o9//GPstttu0dDQ0O6e26Kmpiby8/O7ZGwAAOgMwnUAAAAA2I4sXbo09ttvvw6NUVNTE7fffnv88Y9/jKeeeirq6+sjIqK0tDT+53/+Jy644IKUZ8aOHRtHHXVUPPjggx2aOyJi/fr18cQTT8SUKVM2/Ro8eHBMnjy5w2MDAEBXEa4DAAAAwE6isbExbrzxxvjud78by5cvT7leUVERF154YeTn58cXv/jFlOsHHXRQp4TrP/vZz+JnP/tZi9qgQYM6PC4AAHQlZ64DAAAAwE7i/vvvjy984Qtpg/X/dtNNN6Wt9+7duyvaAgCA7YJwHQAAAAC2I717946nnnoqVq5cGXV1dbFmzZqYOXNm3HrrrXH66adHTk5Oh+eorKxMW1+6dGmHxwYAgO2VcB0AAAAAtiNFRUVx8MEHR+/evSMnJyfKy8tj7Nixcfrpp8ett94ac+fOjQ984AMdmmP//fdPW58yZUqHxgUAgO2ZcB0AAAAAdiBDhgyJhx56KE4++eQtej4/Pz++8Y1vpNTffPPNTjlvHQAAtlfCdQAAAADYjixbtixee+21WLBgQTQ2Nqa9JysrK/74xz/G4MGD2zV2ZmZm/OEPf4jx48e3qDc2NsaXvvSlaG5u3uK+AQBgeydcBwAAAIBtWGVlZfzhD3+IU045Jfr06RMDBgyIPfbYI4YPHx5FRUXx1a9+NdatW5fyXEFBQXzzm99s8zwFBQVxzz33xKmnnppy7Wtf+1o88sgjHXkbAACw3cto9nVTAAAAAOhWGRkZm72W9CO8SZMmxZNPPhmZmS3X0ixYsCCGDx+eOH+fPn3ivvvuiwMOOCDl2te//vW48sorE8foqEMPPTQef/zxlPrw4cNjwYIFbR7HjzsBgO60uc91tM+2+LnOynUAAAAA2Ia15YeKzzzzTDz33HMp9WHDhkV+fv5mnx09enQ899xzKcF6Q0NDfPGLX9wqwToAAGwPhOsAAAAAsANobXV3WVlZq88ceOCB8eyzz8bIkSNb1Dds2BAnnXRS3HDDDZ3ZIgAAbNeE6wAAAACwAxg2bFja+po1a9LWTzrppPjnP/8ZvXv3blFftmxZHHrooXHfffd1eo8AALA9E64DAAAAwDbq/PPPjyOPPDLxvkmTJsWBBx6YUn/zzTejrq4upX7BBRfEHXfcEQUFBS3q06dPjwMOOCBefvnldvV56aWXRnNzc4tf8+bNa9cYAACwrROuAwAAAMA2ap999ol//OMfMWXKlDjvvPNixIgRLa7n5eXFBRdcEPfdd19kZqb+qO+uu+5q8TojIyN+/vOfxy9+8YvIyspqce2xxx6LSZMmxcKFCzv/jQAAwA4gu7sbAAAAAAA2b5999ol99tknIiJWrVoVy5Yti6KiohgyZEhKSP4fK1asiCuuuKJF7ROf+ERceOGFae/v1atX/OMf/9hsHy+//HKcc8457X8D7/GhD30ovv/977eoFRcXp733b3/7W8rq+xNOOCGWLVvW4T4AAKA9hOsAAAAAsB3p3bt3yjnp71VRUREnnHBCrFu3rkU9Nze31Wf22GOPxLmrqqra1GOS3r17x7777tumeydOnJhSy8vL65Q+AACgPWwLDwCwHcvIyPCrk34BAGyLXnrppVi9enW7npk8eXLst99+8eKLL3ZRVwAAsHOych0AAAAAtlG/+tWv4oYbbohDDjkkDjvssNh7771j9OjR0a9fvygqKoq6urpYt25dzJkzJ1544YW4/fbb45VXXunutgEAYIeU0dzc3NzdTQAAsGWsuO48PhYDAN3J57rO43MdANCdfK7rPNvi5zrbwgMAAAAAAABAAuE6AAAAAAAAACQQrgMAAAAAAABAAuE6AAAAAAAAACQQrgMAAAAAAABAAuE6AAAAAAAAACQQrgMA7GQGDhwYa9asiebm5pRfN910U9pnJk+enPb+9vzqTCNGjIhvfOMb8fe//z3mzp0bFRUVUV9fH1VVVbFkyZJ4+umn45prronDDz+8U+cFAAAAAHZe2d3dAAAAW9eNN94Y5eXl3d3GFsnOzo6rr746zj333MjJyUl7vUePHjFgwICYNGlSfOUrX4kXX3wxTj/99Jg7d243dAwAAAAA7CisXAcA2Il89rOfjeOOO66729hif/zjH+MrX/lK2mC9Nfvvv388/fTT0a9fvy7sDAAAAADY0Vm5DgCwkxgyZEhcffXVW/TsrFmzoqioKPG+7Ozs2HPPPVPqjzzyyBbN+98OOuigOO2009JeW7duXSxatCh69uwZgwYNSrnev3//uPjii+P//b//1+E+AAAAAICdk3AdAGAn8b//+79RWlq66XVtbW3k5eW16dlzzjmnTfd98pOfjFtuuSWlftVVV7Wtyc049thj09YvuOCCuP7666OxsTEiIg499NC49957W7zX/9QBAAAAALaUbeEBAHYC55xzThx11FGbXj/44IPx3HPPdfo8F110UUpt6tSp8eijj3Z47L59+6bUpk+fHtdee+2mYD0i4oknnog//elPKfcWFxd3uAcAAAAAYOclXAcA2MGNGDEirrzyyk2v165dG5/73Oc6fZ4jjzwy7ZbwW7oV/XutWLEipdbaVvXvXbUeETFz5sxO6QMAAAAA2DkJ1wEAdnA33XRTixD6y1/+cixZsqTT50m3an3RokXx5z//uVPGv/fee1Nqw4YNi5tvvjnGjBkTubm50b9//7joootSzmZvamqKa665plP6AAAAAAB2TsJ1AIAd2Fe+8pUWZ43fc889ceutt3b6PLvuumvaM9GvvfbaaGho6JQ5pkyZ0mIF/n+cddZZMWvWrKitrY2lS5fGVVddFVlZWZuuV1dXx1lnnRWPP/54p/QBAAAAAOychOsAADuoUaNGxY9//ONNr1esWBHnnHNOl8yVbtV6ZWVl3HDDDZ06z9e//vX43Oc+F4sWLUq8t7GxMX7xi1/ErrvumvYMdgAAAACA9hCuAwDsgDIyMuLmm2+OwsLCTbVzzz03Vq5c2elz9evXL04//fSU+g033BCVlZWdPt+f/vSn+MEPfhCrVq3a7H1ZWVlx9tlnxxe/+MUoKCjo9D4AAAAAgJ2LcB0AYAd00UUXxaRJkza9vu222+Kee+7pkrm+/OUvR35+fotafX19/OIXv+j0uQ4++OCYPXt23HDDDdG7d+9N9Q0bNsSMGTNSAvfS0tK45JJL4tlnn43y8vJO7wcAAAAA2HkI1wEAdjDjxo2Lyy67bNPrJUuWxPnnn98lcxUUFKTdav7222+PxYsXd+pcu+++ezz88MMxdOjQTbXGxsY477zzoqSkJCZMmBB9+vSJww8/PJYuXdri2T333DN++ctfdmo/AAAAAMDORbgOALCD+drXvtZiG/TPf/7zsXbt2i6Z6zOf+Uz06tUrpX7VVVd1+lxXXHFFi23uIyJ++9vfxq9//etoamraVHv88cfjggsuSHn+4x//ePTv37/T+wIAAAAAdg7CdQCAHUxOTk6L1w888EA0Nzen/DrssMNSnv30pz+96fq8efM2O09GRkZceOGFKfVHH300pk6d2pG3kCI3NzeOPPLIlPpjjz2W9v7Jkyen1LKysmLfffft1L4AAAAAgJ2HcB0AgC3y0Y9+NEaNGpVS74pV6717947c3NyUenNzc9r7W6sXFRV1al8AAAAAwM5DuA4AwBa5+OKLU2qvvfZaPPLII20e49JLL01ZUZ9uxXxFRUXa5w8//PC09XSr8iMiVq5c2ebeAAAAAAD+W3Z3NwAAQOeaN29eTJkyJfG+sWPHRnFxcYvaqlWrYv78+RERsWTJklaffd/73hcHHXRQSv3qq69uX7NttGHDhpgzZ06MHj26Rf2cc86JadOmxY033rhptfr73//+uOaaa1LGqK+vb9M/FwAAAACAdDKaW9szEwCAbV5GRsYWPzt58uSUFd4333xznH322YnP3nnnnXHyySe3qL399tsxYsSIaGhoaHMPl156aXz/+99vUZs/f36MGDEi5d5LLrkkLr/88rTjVFVVxYIFC6JPnz7Rt2/ftPfcdtttccYZZ7Tai4/FAEB36sjnOlryuQ4A6E4+13WebfFznW3hAQBolxEjRsSJJ56YUr/22mvbFay319VXXx3PP/982mtFRUUxYcKEVoP1efPmxUUXXdRlvQEAAAAAOz7hOgAA7fLVr341srKyWtQqKyvjt7/9bZfOW1dXFx/4wAfipptuiqampjY/9/e//z0OOeSQWLZsWRd2BwAAAADs6Jy5DgBAm5WVlaXdNv53v/tdVFZWdvn8GzZsiM985jNx+eWXx6mnnhqTJk2K8ePHR69evaKwsDBqa2ujoqIiZs+eHS+++GLccccd8fLLL3d5XwAAAADAjs+Z6wAA2zFnOHUeH4sBgO7kc13n8bkOAOhOPtd1nm3xc51t4QEAAAAAAAAggXAdAAAAAAAAABII1wEAAAAAAAAggXAdAAAAAAAAABII1wEAAAAAAAAggXAdAAAAAAAAABII1wEAAAAAAAAggXAdAAAAAAAAABII1wEAAAAAAAAggXAdAAAAAAAAABII1wEAAAAAAAAggXAdAAAAAAAAABII1wEAAAAAAAAggXAdAAAAAAAAABII1wEAAAAAAAAggXAdAAAAAAAAABII1wEAAAAAAAAggXAdAAAAAAAAABII1wEAAAAAAAAgQXZ3NwAAAAAAAABsXbdkFHV3CzuMM5urursFthIr1wEAAAAAAAAggXAdAAAAAAAAABII1wEAAAAAAAAggXAdAAAAAAAAABII1wEAAAAAAAAggXAdAAAAAAAAABII1wEAAAAAAAAggXAdAAAAAAAAABJkd3cDAAAAAAAAwLavYOCAOOH1FyOvvDzl2tyb/xTPnn1O4hi5ZWWxy5mnxcDjPhil48ZEft8+0dTQEDXLV8TqKf+Kt//291hw5z3R3NjY6f0XDh4Uvfbd+9+/9ope++4Veb16pdz3yGHHxvInnur0+dn+CdcBAAAAAACARAfe+Mu0wXpbjfrMp2Lvn/4gbaCdW1ISJaNHxYjTTondv/uNeP5zX4qVz73QkXZbGPHJT8TBt/yu08Zj52RbeAAAAAAAAGCzRn32rBh03NFb/Pzu3/1mHPi/v0obrL9X2a7j4gP/uC8GfPDILZ7vvTKysjptLHZewnUAAAAAAACgVYVDBsc+V1++xc8POu7o2POy76TUmxobo2Lm7KhasDDlWnZhYbz/9j9EwYD+Wzxvksaami4bmx2TbeEBAAAAAACAVh30v7+K3NLSTa8ba2sjKy+vTc9mZGfHAb+5JqW+fu5b8diHTo7KWbMjImLQh46J9995S2QXFGy6J7esLPb9+RXx1CfO6uA7iGjcWBMrn3shVk/5V6ye8kqsefnVaKiujhPfer3DY7PzEK4DAAAAAAAAaY0553Mx4KgjNr1e/OAjkVVQEP0PO6RNzw/56AnRY8jglPoL5164KViPiFj8wEMx8xfXx26XXNzivqEnfTjy+/WNmuUrtvAdvGPBHXfHgjvublHrMWxoh8Zk52NbeAAAAAAAACBF0YjhsfeVP9z0unbt2njuc19q1xgjTjslpVazYmUsffSxlPq82+5MqWXm5MTwUz/WrjmhqwjXAQAAAAAAgBQH3fSbyCkq2vT6pS9fHBuXLG3XGL3ft19Kbc2/pqa9t2LGG9FQXZ06xgH7tmtO6CrCdQAAAAAAAKCFcV85L/odevCm1wvv+VvMu/X2do2R17t3FA4ckFLfsHBR2vubm5pi49JlKfXyPXZv17zQVYTrAAAAAAAAwCbFo0bGXj/+/qbXNStWxgvnXNDucfJ690pbr12zttVnalevafM4sLUJ1wEAAAAAAIB3ZGTEQTf/JrILCzeVXjj3wqhZubLdQ+WWlqStN9XWtfpMY5pruWWl7Z4buoJwHQAAAAAAAIiIiF0v+kr0nXTgptfzbrsjFt5zb+dOkpGxJZeg2wnXAQAAAAAAgCgZNzb2uOw7m15XL1kaL55/0RaPV1dRmbaemZvT6jOZeXmp46yr2OIeoDMJ1wEAAAAAAIDY9WvnR3ZBwabXz3/+/Khb2/r56ElqV61OW8/r1bPVZ9Jda20c2Nqyu7sBAAAAAAAAoPtl5rRcUX7EA3e3+dmRn/5kjPz0JyMiomr+gvjLiAlRu2pVVC9eEoWDBra4t8fQIWnHyMjMjIIB/VPqa159rc19QFeych0AAAAAAADoEqtemJJS67nXHmnvLZ0wvsXK+c2NAd1BuA4AAAAAAAB0iXm33ZFSy+/TOwZ88MiU+ojTTkmpNdXXx4I770mp73LWGXFmc1XKL+hKtoUHAAAAAAAAomreglg95ZXE+0rGjo6c4uIWtZpVq2PD/AUREVG9ZOmm+qJ7748Ni96OHkMGt7j/gF/9PB770MlROWt2REQMPv7YGP/V81PmWnj3vVGzfEW73wt0hYzm5ubm7m4CAIAtk5GR0d0t7DB8LAYAupPPdZ3H5zoAaJtbMoq2+NmjJj8Y/Q87pEVt7s1/imfPPift/YM+dEwccf9dKfWmxsZYP2duZBXkR9GwoSnX69ati7/tum9sXLos5douZ50Rk27+bUq9tffVc+89432/vbZFLTM3N8on7pZyb8Ws2dGwvuUq+Oe/+JVY88qracf+7xXzPtd1nm3xc52V6wAAAAAAAECXWfzAQzH10h/FHv/z7Rb1zKysKB03Ju0zDdXV8eTHz0obrG+JnOLi6LXv3m26t3Rsak/vXanPzsmZ6wAAAAAAAECXeu2yH8dznz8/atesSby34o1Z8Y+jPhxLH/nnVugM2s7KdQAAAAAAgB3AF8ZN7u4Wdhg3zDy8u1vYIb35u5tj4d33xi6f/EQM+tDRUTp+bOT16R3NDQ2xcfmKWPPyq7Ho3vtjwR33RHNjY3e3CymcuQ4AsB1zhlPn8bEYAOhOPtd1Hp/rgJ2ZcL3z7AzhekfOXKclZ653jW3xc51t4QEAAAAAAAAggXAdAAAAAAAAABII1wEAAAAAAAAggXAdAAAAAAAAABII1wEAAAAAAAAggXAdAAAAAAAAABII1wEAAAAAAAAgQXZ3NwAAAAAAAEDXGrZbcYzepzQGjyuKvsMKo6g8J3qUZkdhcXY01DdHbXVjrF5cE0ve3BDTn14Tr/5jZTTUN292zE//eFwcdOKAdvfy/N+Wxe+//saWvpUWLvrjnjF2//J2P/fAr+fHvdfM65QegJ2HcB0AAAAAAGAHlleYFd++a99Wr2flvHNPSe/cGLFHSUz62IBYu7w2/nzZ7Hj1n6u2YqcA2zbbwgMAAAAAANBCeb+8OOe63WKPI3p3dysA2wwr1wEAAAAAAHYiG6saomJFbdTXNkVhSU6U9smN7NzU9ZiZmRlx6iWjYupjbV+9Pv/1ysR7Vi2qaVe/7VFf1xSLZ1cl3rdueW2X9QDsuITrAAAAAAAAO7CmxuZ49q9LY9rk1TH3XxWxbkVdi+sFxdlx4Ef7x8n/b2RKyN5nSEH0HVYQKxZsbNNcl5/8cqf1vSUqVtZ2ew/Ajku4DgAAAAAAsAOrr22Km785s9XrG9c3xGO3vB0DRxXG+z8+KOV6Uc+cNofrADsyZ64DAAAAAAAQGRkZaesV71npDrCzsnIdAAAAAABgJ5ZbkBkHfrR/HPjR/inXFs2sitWL235G+ldv2jMGje4RhSXZUV/XFFVr62PRG+tjxjNr4/m/LYu6jU2d2XqKorKc+Pqte0X/XQqjoCg7aqobY/2a+lgwfX1Me3x1vPzwimisb+7SHoAdl3AdAAAAAABgJ9F3eEF87qpdIyIiMyMj8ouyotfA/MjKSd3suGpdffzxO61vJ5/O+APLN/0+OzczCoqyo8+Qgtj7g33jxK/uEn/+4ex48f4VHXsTm5HfIztG7VO26XWP0szoUZoT/UcUxgHH94uTLtol/vDtmfHGs2u7rAdgxyVcBwAAAAAA2Enk5mfF8N1KNntPXU1jTP3nqrjnZ2+1a9V6kh5lOfG5qyZESe+8+MfNizpt3PboOSA/Lrhxj7jxa9Pj5YdXdksPwPbLmesAAAAAAABssmxudcx8YW1UrKht13NVa+tiyZwNsWJBdTTWt779+8lfHxnDdy/uaJtpVaysjbdnvbOVfVNj+u3fM7My4uwrxkd5/7wu6QHYcVm5DgAAAAAAwCZDJxTHmZeNiyPPHBLXnfNaq6vX62ub4uWHV8TUx1bFzOfXxbrl74bxmVkZccCH+8VHL9wlyvu1DLEzMzPihC+NiOvOea3DvdZUNcazf10a0yavjlkvrouqtfWbruXkZcahnxgYx39peBSW5LR4Ljc/K475/ND48w/mdLgHYOeR0dzcnP5rOwAAbPMyMjK6u4Udho/FAEB38rmu8/hcB+zMvjBucrvuz8zKiKLynBg6vigOPmVg7P3BPin3LHtrQ1z20SnRUJe6Ej0jIyLpj90+Qwvie3/dL/IKs1rU62sb48L9n4762tZXuLdFW3oYtXdpXPynvSIzs+Xft6sX18QlRz6X9pkbZh7eob62B7dkFHV3CzuMM5urNv3e57rOsy1+rrMtPAAAAAAAwE6oqbE5KlfVxetPrYnffOX1eOjGBSn39N+lRxxwQr+0z7cl91q5cGO8+s/Us81z8rKi16D8dve8JT28+UpFvPVqZUq916D8yMkTlQFt508MAAAAAAAA4tGbFqWtj3tfWYfGXb0k/dnthSVb7/Ti1UvSb22/NXsAtn/CdQAAAAAAAKKuJv0W7cU9czs0bq+BeWnrGyrq09a7Qq+B6VfJb1i39XoAtn++jgMAAAAAALADG757ccyftj7xvn2P7Zu2vn5NXUpt/+P7RUN9U7zycOqW7/+tz9CC2OsDqWe512xoiNVvp64mP+H84XHC+SNa1FYt3hjfOvL5lHsP/+SgWDa3Ot54bu1mexi1d2nssmdJSn3FgupoqN/2znQGtl3CdQAAAAAAgB3Yt+7cN+b+qyJefGB5vP7kmli5cGOL64Wl2THpYwPioxeMSPv83H+lnlfeb3hBnHD+iFg2rzqeuXtpTH1sVSx7q3rT9cysjDjghH7x0a/uErkFWSnPT3t8dYeD7WETiuO074yJBdPXxzN3L43Xn1wdq/4rsM/OzYxDPzEwjv/S8MjMzEh5/uWELwYAvJdwHQAAAAAAYAc3cq/SGLlXaUREbKxqiIqVdVG3sTEKS7Kj54D8yMxKDZ8jIipW1saL9y9vddz+IwrjYxePjI9dPDKqK+tj3Yq6yM7JiJ4D8iM7N/3pxPW1jfHXa+Z1/E3927AJxTFsQnFERFStrYuKlXWR1yMrevZv/X1Vrq6Lh3+3sNN6AHYOwnUAAAAAAICdSEFRdhQUJUdEG6sa4ncXz4jqyoY2jVtYkhOFJTmbvaehrilu+OqMlNXznaWoPDeKyjd/RvzG9Q1x/bnT2vy+AP4j/VeGAAAAAAAA2CE0NbZ/+/UZz6yJn3zi5Zj1wrq01xfP3hBrl9e2a8xFb6yPK05/JaY+tqrd/aQzf9r6qFpX365nZr2wNn50ypSY91rqVvcASaxcBwAAAAAA2IF97aCnY/z7ymOXvUpj8Nii6D0oP4p65kRufmY0NUXUVjdG5aq6WD6vOua9VhlTH1sVS+dWb3bMVx5ZGf96dGWM2LMkxu5fHsN3K45+wwujtE9u5BVmRXNzc2xc3xgr394Y86etj389sjJmv7SuU9/X47ctjqfuWBKj9imNsfuXx9AJRdF3WGGU9MqJvMKsaKxvjur1DbFiwcaYN7UyXnpweSycXtWpPQA7l4zm5ub2f10JAIBtQkZG+nPDaD8fiwGA7uRzXefxuQ62bT898e/d3cIO4+t/OS6l9oVxk7uhkx3TDTMP7+4WutwtGUXd3cIO48zmd7+04XNd59kWP9fZFh4AAAAAAAAAEgjXAQAAAAAAACCBcB0AAAAAAAAAEgjXAQAAAAAAACCBcB0AAAAAAAAAEgjXAQAAAAAAACCBcB0AAAAAAAAAEgjXAQAAAAAAACBBdnc3AAAAAAAA0H9UaQweXx59hpdE+YDCKCzJjfyinMjrkRONDU1RX9MYFSs2xqpF62P+v1bFnBeWR2NDU5vHL+qZF7seOih22btPlPV/Z/yGuqbYsK42Fs9aG3OeXx5zp6zosveXk58VEw4dFMP37B19R5REQXFOZGVnxsbKuli3vDreemVlTH9iSVStrumyHgDoGOE6AAAAAADQrXLys+JTV05q9XpWdmbk5mdHj7K8GDimLCYeOSTWr66JR2+YHm++uDxx/Pd9bGS87+SRkZvfMhbJzs2K/KKc6DW4KCYeOSQWz1obD/7ytVjz9oYOv6f/ttvhg+KIz+wa+UU5KdeKexdEce+CGDKhVxx4yqh44e658dxdczt1fgA6h23hAQAAAACA7U5xr/w48Rt7x6j9+272vmPO2z3e/8mxKcF6OoPGlsfpPzow+o4o6aw245AzxsRxX9kjbbD+Xrn52XHIGWPjuK9MjMjotBYA6CTCdQAAAAAAYJtSW10fq9+uiuXzKqNixcZorE+//XtGZkYccfaurY6z17HDYuJRQ1LqjfVNsWrR+qhak7oFe2FJbnz0G3tHTl7Wlr+Bfxu1f9848ORRaa9Vra2NNYur0r633Q4fHPueMKLD8wPQuWwLDwAAAAAAdKvmpuZ4ffLbMXfKilg8c21UraltcT2vMDt2O2JwHPapcZGV03LdYFn/wigfUBhrl1a3qBeU5MahZ45NmWvpnHXxl5+8vGmOiR8YHEefu3tkZL67VLysX2EcdOqoeOKWWR16X+8/I3X+jevr4t6fvhILX1/zznvrkR3HfWWPGL1/vxb3HXL6mJj51JKoWlubMgYA3cPKdQAAAAAAoFs11DXF3699LWY9uywlWI+IqK1uiJfvnx/THns77fMFJbkptd2PGBS5BS3XGDY3NccDv5jaYo7X/vF2zHxmaerzHxgSWdlbHqOUD+wRvYcWp9Rf+Mtbm4L1iIjaDQ3x4C9fi/raxhb35eRlpV11D0D3Ea4DAAAAAADbhYxWUo0NaVZ3jz94YEpt+VuVsWbJhpT6jCeXpNQKS3JjxF6929/kv/Uc2CNtfdmcdSm1mvX1sXZpal/jDh6wxfMD0PmE6wAAAAAAwDYtJy8r9jxmaOx22OCUayv+fS77f8vOzYw+w1NXjS+bW5F2/NbqA8aUtb/Zf8vN7/iZ7b0GFaWsvgeg+/gTGQAAAAAA2GaUD+wRJ3x1z4iIyMiIyC3MjpI+BWm3aN+4vi4e+tW0lHrvocWRmZV6f+WqjSm1iHdWvjc2NKXM0Xd4yRa8g3+PWVGXtt5/VFmLbeEjIvKLcqJ8QOpK94zMjOg9tCiWzFq3xX0A0HmE6wAAAAAA0E2O+ua/ttpcj/5kr602V0fk5GZG/1Glm72nvrYx3nxxeTz5p1kpq9Yj0p/BHvHO9uutqdlQHz1K81qOU5zTho7TWzp7XdTXNkZOXssV7AectEssmb023p6xNiIi8npkxzFf2j3lvnd7SP9eANj6hOsAAAAAAMB2Zc3bVbFw2uqoWpN61npERF5h+vijsaGp1TEb61Ov5fXY8nC9vrYxpv1zUex93PAW9YLi3Dj9RwdG1ZqaqK1uiNJ+BZGd0/oW8raFB9h2OHMdAAAAAADYrvQbWRpHn7d7nHX1pCjtW9ApY2Z0yigtPXnr7FgxvzLttaKe+dFrcNFmg/WIiIa6xi7oDIAt4etOAAAAAACwE1n7vfu22lzll53Q7mdWzF8fPz3x7xHxzpnjhSU50XeX0tjjqCEx5n39W9zbe2hxnPzd/eLmrz3dYuV5bXVD2rHTndu+6VpO6rXaDa1vI98WddUNcfulL8ZxX54YI/ftu9l7l8+tiH4jU7fDr6nqWA8AdB7hOgAAAABtdktGUXe3sMM4s7mqu1sA2OY1NzXHhnV1Me+VlTHvlZVx6Jlj44CTRra4p9fgotj1/QNj2j/f3lTbWFmXdrxWz1DPSL8F/MbNnNHeVhsr6+LuH02JIRN6xoTDB8WgseVR3Cs/srIzo7qiNpbMqYjXH3s7ajbUxxmXH5jyfMWK6g73AEDnEK4DAAAAAADbhZf+Ni8lXI+IGLZ7rxbh+qqF66OxoSllpXpJn/RbyBeV56Vd1b58Xvot3bfEoulrYtH0Na1eP/Dk1PdVuWpjVK6s6bQeAOgYZ64DAAAAAADbhfra9OePF5TmtnjdUNcUqxasT7kv3bbrERH9W6kvnb2ufQ1uocysjNj9A0NS6vNfXbVV5gegbaxcB2CLfWHc5O5uYYdxw8zDu7sFAAAAgG7Tf3RpLJtTkXjfuEkD0tY3VqRuAz/jqSUpYXr/kaXRc2CPWLNkQ4v6+EMGpjxfXVmXNtye9PHRMekTo1vUKlZUx2+/+Hj6pjMiojn9pf847NPjoqxfYUr95fvnb/5BALYqK9cBAAAAAIBu9amfToozfnxg7H3csCjrnxoy5xflxH4fGRFHfWFC2ucXz1qXUnt98uKo29iQUv/QhXtEUc+8Ta8nHjUkbWj/2j8WRWNDUzveRXpnXnFQHHza6Og7vPidoP2/9BlWHB/9xt6x7/EjUp6b+czSWJlm9T0A3cfKdQAAAAAAoNsNGlceg8aVR0REbXV9bFhbG/W1jZHXIydKehdEZlZG2ueq1tbGjCcXp9Q3VtbFE7fMSgnkB4wuiy/+5vBYu3RD5BflRFHP/JRn1y2vjufueLMT3tU757kfdOroOOjU0VG3sSHWr66Jxvqm6NEzL3qU5qV9Zt3y6nj4V9M6ZX4AOo9wHQAAAAAA2KbkFeZEXmFO4n211fVx/8/+FbUbUleoR0T868EF0W+Xkpj4nvPMs3Iyo/fQ4rTPVFfWxb0/faXV8907IrcgO3oNLtrsPavfroq7fvhS1Fanf08AdB/hOgAAAAAA0K2aGptbXZnemnmvrozHfv9GrF5Utdn7Hrp+WqxbXh3v+9jIyM3ffCyyZNbaePCX02L125sfsys0NjTFtH++HU/cMrPVLwsA0L2E6wAAAAAA7PR+fdmqrTbXud/rvdXm2l788tP/iGETe8XAseXRd3hxlPQtiMKS3MjJy4qmpuaor2mMDetqY83iDbF0zrp488UV7QrAn79rbrz+2Nsx4bDBscvevaOsf48oKMmJhrqmqF5XG4tnros5LyyLN19a0env7fZLX4yhu/eKIRN6Rs/BRVFYnBP5xbnR3NQc1ZV1sW5pdcyfujJmPbssKlZs7PT5Aeg8wnUAAAAAOkV2UVH0O/Tg6L3/vlG+5+5RPHKXKBjQL7KLiqK5sTHqKyqjcs7cWPX8izHv1ttj7dTWz5I9cd70KBo+bIt7qZq/IP4yYkLyjQm2tI/nPvelePN//9Dh+QF2FjVV9THr2WUx69llXTZH1ZraeOGeufHCPXM7NM4zt8+JZ26f0+b71yzZEGuWbIhXH17YoXkB6H7CdQAAAAA6bNeLL4g9f3RpZOXmtnpPdkFBFPTvF/0OOSgm/L8LY8Fdf40Xzr0waldtvdWiAAAAWyqzuxsAAAAAYPtXOGjgZoP1dIad/NH44BMPRW7Pnp3fUHNz548JAADs1KxcB6DL5PXIijH7lcWI3UtiyPii6DOkIEr75EZe4TtnZW1c3xArFmyMt6ZWxgv3LY+3Z7Z+Ttbl/3xf9B5UsMW9rFq8Mb515PNb/Hw6Q3ctiv2O6xfjDiyP8n55UViSHdWVDbFueW288fzaeOnvy2Ph9Laf/bWjuyWjqLtb2GGc2ezfKwBg+1C3bl1UL14aeb16RkH/fmnvKdt1XOxz1Y/iuc+c26K+9rXXo3bV6sQ5snv0iNLxY1PqSx+dvGVNJ6hfvz4qZyVvBVyz0mp8AADY0QjXAegSH/zMkPjohbtEdm7rm6Tk5mdFaZ+8GL1vWRz92aHx8sMr4tbvz46qtfVbsdP2y++RFad/b0zsf0K/yMzMaHGtpHdulPTOjaETiuOos4fEi/ctj9sumx01Gxq7qVsAANi6alasjDk33hwL7vpLrH31tU314tGj4oDrfxYDjjoi5ZkRZ3w8plz4jaivrNxUe/wjH2/TfLt/5xux5w++26LW3NQUM66+dgvfweatfvnVePTwY7tkbAAAYNtmW3gAukRZv7zNBuvp7HN037j4lr2iR1kXfPerk3aELCzNjq/dvGe87yP9U4L198rMzIj3faR/fO3mPaOw1PfZAADYsdVVVMYr3/xe3D10XLz6nf9pEaxHRKyf82b887iTYu206SnPZuXmRq/99m73nJm5uTH2S19Iqb99/4NROTt5dTkAAEB7+Ek/AFtNdWV9rFteFz3KsqO0T17aewaO6hEnf31U/OFbM1vUF8/a0KYV7XkFWTFgZI+U+oxn125Z0+9x5mVjY/juJSn1jVUNsWZJTfQckB8FxS3/eh2+e0mc+T9j47cXpv4QEQAAdhSvff9Hifc0NzTEvFtvj/KfXJZyLb9373bPucuZp6Xdbn7GVV2zah0AANi5CdcB6FKVq+vi6TuXxMsPr4xFb7x7TnTf4QVx+nfHxK6TeqY8c8Dx/eKOy+fExqp3t1K//rxpbZrvQ+cOi49csEuLWlNTczx608ItfAfv2u2QnrHP0X1T6k/duSRu/9GcqKtpipy8zPjEt0fHIacObHHPPsf0jd0OWRqvP7Wmw30AAMD2rL5yfdp69dJl7R5r/Ne+nFJb9cJLseKpZ9o9VluV7Toujn3h8SgePTJyioqivrIyNi5dHqtenBKL/nJfvP3AQxHNnbR1FgAAsE2xLTwAXWJjVUPcc/Xc+Obhz8VffzGvRbAeEbFi/sa47ouvxeLZVSnPZudmpl0dniQ7JyMOO31QSn3a46tj+byN7R7vvQ4/Y3BKbdXijXHbZbOjrqYpIiLqa5vith/MjtWLa1LuPeyM1N4AAGBn03v/fVJqjTU1sS7NdvGbM+i4o6Ns13Ep9eldvGo9v2+f6L3/vpFXXh6ZOTmR16tXlO22a4z6zKfi8PvujBOmvRg9996zS3sAAAC6h3AdgC5x33Xz46EbF0ZDXVOr9zQ2NMcL9y1Pe62oPKfdc77vI/3Tbjf/yO87vmq9sCQ7JhySusr+lYdXRmN9y1UpjfXN8fIjK1LunXBwzygssWkMAAA7r5KxY2LYxz+WUp932x1Rt7Z9RzntetFXUmrr574Vi+65d4v76wxlE8bH0U89En0mHditfQAAAJ1PuA5At9pY1ZC2XrGyrt1jfeDTQ1Jq86ZWxpwpFe0e672G714cmVkZKfUF09Nvabng9dR6VnZmDNutuMO9AADA9ii/b9847C9/juyCghb1mpWr4tXvpJ7Bvjnle06M/kccmlJ/4+fXR3NT61/w7Qwb3l4ca197PaqXLG11ruzCwjj0rj9Fdo8eXdoLAACwdVk+B0C3GjExdfv3+trGeDvNdvGbs/uhvWLgqNQfXHXGqvWIiMFji9LW1yypTVtfuyx9ffC4onjj2fatyAEA6GpfGDe5u1vYYdww8/DubmGbVDRieBzx4D1ROnZMi3rDhg0x+cOnxsZ2nrc+4eILUmq1q1fHm7//Y4f6TKd21epY/PdHYvHfH44VTz0b9ZWVm67llJTErhd9JSZ8/cLIys9v8VxB/34x5tzPxYyrrun0ngAAgO4hXAd2aD898e/d3cIO4+t/Oa7Tx+w/ojD2PbZvSv3F+1dEdUX6Fe2tOers1FXrKxdujFceXbnF/f231rap31BRn76+Ln29qKz9293vDLKLiqLfoQdH7/33jfI9d4/ikbtEwYB+kV1UFM2NjVFfURmVc+bGqudfjHm33h5rp07b7HgH3fSbGPnpT7a7j7f+9H/xzJmf29K3scmZze37csh7LXv8qXj08GM73AcAwLag1377xOH33RkF/Vp+9q+vqorJJ5waq55/sV3jFQ4eFMNOPSmlPvvX/xuNGzd2qNd0/r7/oRHNzWmv1VdWxtRLfxgVM2fFIbfdlHJ98PHHCtcBAGAHIlwHoFsU98qJc3+5W+TmZ7Wor19TF3+95q12jTVkfFGMe195Sv0ff1gUzZ20I2RBcfq/Mls7U761ujPXU+168QWx548ujazc3FbvyS4oiIL+/aLfIQfFhP93YSy466/xwrkXRu2qVVuxUwAA2mvw8cfGIf93c8r26DWrVsfkD30sVr04pd1jjrvgvMjMafml1caamph53W861GurWgnW/9v8P98Z+1z5oygcNLBFvWTcmFaeAAAAtkfOXAdgq+s9OD/+35/2jgEjW/6Arba6Ma4/b1pUrGjfeesf/EzqqvWqdfXxzN1LO9RnW2SkHsOecIH3Khw0cLPBejrDTv5ofPCJhyK3Z88u6qqbteEHuAAA27ox534+Dv3Ln1OC9fVz34qHDjpyi4L1nOLiGP35T6fU37rlz1GzYsWWttopqhakHkmVW1baDZ0AAABdxfI5ALaq4bsXx/m/nhglvVuGqTUbGuL686bFW69WtvJkeuX982LfY1K3ln/iz4ujrqaTlq1HxMb16bepz8pJ/z217Nz04Xp1Zfu2u99Z1a1bF9WLl0Zer55R0L9f2nvKdh0X+1z1o3juM+e2aczVU15JvKfqrfntabNDc0VE5JaXRfHIXVLqSx99rFP6AADoLnv95LLY7RtfS6mvfO6FmPzhj2/xDkSjPndW5Ja2DKybm5pixtXXbdF4nalo2NCUWu2atd3QCQAA0FWE6wBsNRMP7xWfv3pC5BW23Aq+am1dXPfFaTHvtfYF6xERR35qcErAXV/bGI/96e0O9fpeVWvbd4Z6a/WqVs5iJ6JmxcqYc+PNseCuv8TaV1/bVC8ePSoOuP5nMeCoI1KeGXHGx2PKhd+I+srkf3f+vt/7O7XfzpjrwN9dnxKu11dVxexf/64r2gIA6HKZublx0M2/jRGnnZJybcFdf41nzvxcNNbUbNHYGVlZMe6C81Lqix94KCpnzW7zOAfd9JsY+elPtqgte/ypePTwY1Pu3f3bX4/FDz0aa17+12bHHH7aKSlbwkdEVEx/o819AQAA2z7bwgOwVRx62sA497rdUoL1lQs3xk9Oe2WLgvX8HllxyCmpP8B6/t7lsX5154bYi2ZWpa33HJiXtl7ePz9t/e030o+zM6urqIxXvvm9uHvouHj1O//TIliPiFg/583453Enxdpp01OezcrNjV777b21Wu1U+f36xogzPp5Sn/v7W6Ju3bqt3xAAQAfllpXFBx75W9pgfcbV18aTp3xyi4P1iIhhp5yUdnX49Kuu3eIxk/T/wOHxoSlPxVGTH4xdzjojCgb0b3E9p6QkJn7/23HQ73+d9vkFd/21y3oDAAC2PivXAehyJ120Sxzz+WEp9bmvVsT1505rdVV4koNPGRgFxS3/Kmtqao5Hb1q0ReNtzoLX10djQ1NkZbf8XtrQCcXx4v2pZzsO2604pdbY0BQLpq/v9N62d699/0eJ9zQ3NMS8W2+P8p9clnItv3fvrmiry407/5zIym/5JYymhoZ44+e/7KaOAAA6Zu8rfhD9Dj04pd5YUxP9Dj04jnvpyc0+P+eGm2LOjTe1en3Xi76cUlv14pRY8eTT7W+2nfofdkj0P+yQiIjYuGx51KxcFXk9y6NgQP/IyEy/dmXdjJnx5v/+oct7AwAAth7hOgBdJjsnIz79k/Gx/4dSz8x++eEV8fuvvxH1tVt2LnpmVkYceebglPq0J1bHsnnVbR7n0z8eFwedOKBFbdaLa+PqT73aolZd2RDTn14TEw9rGeTu/cE+8Zer34rGhuZNtaycjNj7qD4pc73+1BpnrndAfWX6LyZUL13Wpuc/8I/7o2y3XSO3vCwaa2qidtXqWPOv12LpI/+MeX/6v2iobvu/Nx2VVVAQY879bEp94d33RtX8BVutDwCAzpSZm/5opKz8/Oi1b/JuQ2/f/1Cr1/odekjaMWZ04ar11hT07xcF/VP/G+e/VS9eEo9/+NRobvD5HwAAdiTCdQC6RGFJdpx3/e4xZr+ylGuP3LQw7rpibofG3+eYPtFrUOrW64/+vvNXrf/H47cuTgnXew8qiNMvHRP/98M5UV/bFDl5mfGJ74xO29vjty7ust52Br333yel1lhTE+vSbBefzoAjD9v0+6zc3MgtKYniXUbEsI99JPb68ffjxfMvivl/vrOz2t2skWefGXm9eqXUZ1x1zVaZHwDaI69HVozZryxG7F4SQ8YXRZ8hBVHaJzfyCrOiqak5Nq5viBULNsZbUyvjhfuWx9utHKeTOE9hVnzv3v2iz5CClGvpvvzYERf9cc8Yu395u5974Nfz495r5nVaH7RdulXr69+aFwvv/muXzrvy6eei1z57Rk5x6s5UrVlw11/jpS9fFBuXLe/CzgAAgO4gXAd2Wrn5WTFkt14xYHRp9B1eEmX9C6NHeV7k5mdHU1Nz1FY3xNqlG2Lp7HUx44nFsWL+lm3nnZOfFWf//JAo61+Ycm3h66vj/777QkffSqKinnnxmWveH/lFqStJpj32djx43WtpnuqYky4emTZYr69tjDH7lcW37koNSv/bU3csiafuWNrq9aPOHpJSm/daZcx+aV17W22z159aEy8/vCL2Obpvi/ohpwyMfY/tG2uW1ETPgflRUJT61+vLD62I6U+v6bLednQlY8fEsI9/LKU+77Y7om7t2g6Pn9ezZxxy201R0L9f12/LnpER4y88L6W8/ImnY/WUV7p2boDt2E9P/Ht3t7DD+PpfjmvzvR/8zJD46IW7RHZu+m2vI975XF3aJy9G71sWR392aLz88Iq49fuz2330z8f+38i0wTqUjBkdgz50TEp95i9+Fc1NW7YTVlu9+t3LYtrlV0a/ww6Jfu+fFD332iOKR+0SeX16R3ZhYTTW1ETduoqomDEzVj73Ysy79fZYP+fNLu0JAADoPsJ1YKe0/0dHxCGnj42snPQ/JMyKiJy8rCgqz4shu/aM/T+6S8x6dmk88tvpsbGyrl1zHXbWuLTB+tZ09Hm7pw3Wu1J2Tkbaek5eVgzfrSTx+WmPr2712pj9y9KO8cjvF7a9wS10y/dmRa9B+SnzFxRlx6AxRWmfmf96Zdxy6awu721Hld+3bxz2lz9HdkHLH7bXrFwVr34n9Qz2dGpWrY6a5SsiMy83ioYNjcyc9P9/2Oeqy2PF08/F6pde7nDfrRnykeOjZPSolPr0K3/RZXMCwJYq65e32WA9nX2O7hsDRvaIKz/5SmxY17YtsccfWB6HnTZoS1pkG/Ls2efEs2ef0+njVs6eE3/KSv5viLZqb5+NGzfGkgcfiSUPPtJpPQAAANsn4TqwUyrqmd9qsN6asQcNiF5DiuK2bz8fNevbtgpn2MResdcxw7akxU4z8QODY+Q+fZNv3I6kW7W+ctHGeOWRlV0+d3VFQ/z806/Gad8bE/sf3y8yM9N/iSAioqmpOV68f3nc9j+zo2ZDY5f3tiMqGjE8jnjwnigdO6ZFvWHDhpj84VNjYyvnrTfW1MaCu/4ab//tgVj22BNRvXjJpmsZWVkx4pOfiL1+dGkUDhrY4rmMzMyYeOklMfn4kzv/zfzbrhd/JaW2bsbMWPxA62eMAsC2pLqyPtYtr4seZdlR2icv7T0DR/WIk78+Kv7wrZmJ4+X3yIpP/XBcZ7fZLvV1TbF4dvJ29uuW126FbgAAANhWCdcB/q1mQ31Ura6J/OLcKCpP/0PC3kOK4/CzxseDv0zeRj23IDuO+dLEzm6zXYp758fhnx7frT10tn4jCmL3Q1PPqv7nHxdFc9fuCLnJxqrG+P3X34h/3Lwo9j++X4x7X3mU9cuLwuLs2FjVEGuX1cbM59fGiw8sj4XTt+zMUSJ67bdPHH7fnVHQr+WXQ+qrqmLyCafGqudfbPXZF867MKK5Oe215sbGeOsPt8bKp5+L46c+F9k9erS4PuDIwyIrPz8aa2o6/B7eq/cB+0XfSQem1N/42XWdPhcAdKbK1XXx9J1L4uWHV8aiN979fNN3eEGc/t0xseukninPHHB8v7jj8jmxsWrzXzI89ZJR0WtQ/qbX9XVNkdPO1fIdVbGyNi4/uet2rgEAAGDHIFwHdmobKmrjtUcXxaxnl8WKeZWb6uUDe8RRn58Qw/fsnfLMru8fGP/8/Yyoq978FpdHfGZ8lPZ9dxvrhvrGyM7J6rzm2+DYL02MvB7vbn+9NXu4+ZKZcfMlySuV2mv5vI1xzq6Pd9p4Helz4YyqWDhDeN4VBh9/bBzyfzenBN81q1bH5A99LFa9OGXzA7QSrP+39XPfikV/vT9GnPHxFvWs/PzoMXxYVM7s/K38d734gpTaxmXL461b/tzpcwFAZ9hY1RD3XD03/vGHt6OhLvWbjCvmb4zrvvhafOeefVOOyMnOzYzhu5fEG8+tbXX83Q7pGQef/O5OMotmVsWSNzfEAcf367w3AQAAAJ1k634VHGAbUVvdEE/cMjN+8/nJ8dSts1sE6xERa5dsiLt++FKsXLA+5dmsnMwYMKp0s+OP2LtPTPzAu1uXr5hXGbOfW945zbfRnkcPbfHlgLdeWRFLZq3bqj3Alhhz7ufj0L/8OSVYXz/3rXjooCOTg/V2qFqwMG09t2zz/x/fEkUjhseQE09Iqc+87jfRVFfX6fMBQGe477r58dCNC9MG6//R2NAcL9yX/rNuUXlO2npEREFxdpz5X9vBN9Q1xU3fmBGN9VtpOyIAAABoJyvXgZ3SM/83J/GepsbmmPHk4jj0zNTzHwtKclt9Lq8wO445b/dNrxvrm+KBa6fGvieM2LJmt0Bpv4I47Kx3+66pqo+Hrp8Wx391z63WA2yJvX5yWez2ja+l1Fc+90JM/vDHo3bVqk6dr2jY0LT1ujWtr7DbUuMv/FJkZrXcOaK+qipm//p3nT4XAGxtG6vS7+pUsbL1L5Cd9p3RUd7v3eOY7v/V/Hh71oZO760tispy4uu37hX9dymMgqLsqKlujPVr6mPB9PUx7fHV8fLDK6KxPnlnHAAAAHZswnWAzahtZev3DWtrW33mA5+fEMW93j0z8tk75sTK+akr4LvScV+eGLkF7/4R/4/fTY+qNa33DN0tMzc3Drr5tzHitFNSri2466/xzJmfa/MZ6CNOPzUaa+ti4d1/3ex9xSN3SbuSvL6qKqrmL0ipT7z0W7HH97/VolY1f0H8ZcSExJ5yy8pi5GfOTKnPvelPUbe284N8ANjaRkwsSanV1zbG27PTH6GzxxG9430f6b/p9bzXKuOhG9PvKLM15PfIjlH7lG163aM0M3qU5kT/EYVxwPH94qSLdok/fHtmvPGsv7cBAAB2ZraFB9iMAaPLUmoNdY1pt4uPiBi1f9+YcNigTa+XzlkXz9/zVle1l9Y+xw+PIRN6bXo9+/llMeOJJVu1B2iP3LKy+MAjf0sbrM+4+tp48pRPtjlYj4goHj0qDr3rT/Hhma/EhK9/NUrGjW1xPSMrK3b51OnxwSceiuzCwpTnF9//UKdv0z7mnM9GTlHLc2ibGhrijZ//slPnAYDu0H9EYex7bN+U+ov3r4jqitQvq/Yoy45P/s+YTa/rahrjpm++EU2N2+7K8J4D8uOCG/eIfY7u092tAAAA0I2sXAdoRc9BPWLcpAEp9RlPLYmaqvqUen5xTnzwnHe3g6+vbYwHrp0azU1b74eE5QMK4/2ffDdI3FBRG4/85vWtNj9sib2v+EH0O/TglHpjTU30O/TgOO6lJzf7/Jwbboo5N96UUi8dOyb2vuIHsfcVP4i6deuiesmyyMzNiR5Dh0RWbvqjHRprauLV71y2ZW+kFZk5OTH2y+ek1Bfe87eomje/U+cCgK2tuFdOnPvL3SI3v+XRJ+vX1MVfr0n/JdPTvzsmSvu8ux38vdfMi2VvVXdpn0kqVtbG+jX1UVCUHeX98yIzKyPlnsysjDj7ivHx1tTKWLvMrlAAAAA7I+E6QBqFpblx4jf3iZy8lj8krK6ojadvnZ32maM+PyGKyt/9IeHTt82ONW9vxTMjMyKO/fLEFj0/+pvpUV3RuStwobNl5uakrWfl50evffdOfP7t+x9KvCe3rCxyy8o2e09jXV08+fGzYv3czt1tYvjpp0bhwDRf1Lnqmk6dB2BnlpufFUN26xUDRpdG3+ElUda/MHqU50VufnY0NTVHbXVDrF26IZbOXhcznlgcKxKO7MnKyYzB48tj4Jiy6LtLaZT3L4yiXvnvBMgZ7xwdVLF8Yyx7c1288fTSWPxG120VXlCcE7sdPjiG7t4r+gwvjvyinMjIyIjqirpY/XZVzPvXypj++OK0X/7sar0H58dXbtwj+o9ouRNMbXVjXH/etKhYkfo5dO+j+8R+H+q36fWcKeviHzcv6vJe36umqjGe/evSmDZ5dcx6cV1UrX33n19OXmYc+omBcfyXhkdhScvPKbn5WXHM54fGn38wZ2u3DAAAwDZAuA7wHqX9CuKU7+4XPQe13MK5rqYh7vnxy1GV5rz1MQf2j/GHDNz0etGMNfHSffO6vNf/tv9HRsTg8T03vZ7x5JKY/fyyrdoDbAvWTZse1YuXROGggck3/9uaV1+L5z9/fqye8kqn97Pr176cUlv+5DOx+qWXO30ugJ3R/h8dEYecPjayctKfepYVETl5WVFUnhdDdu0Z+390l5j17NJ45LfTY2Nlavg7/uABccz5E1O+ZPnfskuzokdpXgwcUxZ7Hzc8Fk5bHQ9e/1pULN/YWW8rIiNi/4/sEpM+MTptL6V9C6K0b0HssnefOOjUUfHkLbNi6qNbL6QevntxnP/riVHSu+VuMDUbGuL686bFW69WpjxT3DMnzrh0TIt7b77kjWjuht3gf/Wlaa3OW1/bFP/4w9sxf9r6uPhPe0VmZstV7BMP6y1cBwAA2EkJ1wH+S//RpfGxb+0bPcryWtTrNjbEPZdPiSWz1qU8U1iaGx/84oQW9z543WsRW/GHhD0H94hJn3j3B5VVa2riHzdO33oNwDZk4T33xsK//C36vG//6HfYIdFrv32iZMyoKBjQL7KLiiKamqKuojKq3poXq196JRbcfW+sePLpLullwFFHRPnE3VLqVq0DdJ6invmtBuutGXvQgOg1pChu+/bzUbO+5YrvwrK8zQbr6QzdvVeccfmBcdu3n491yzpne/Pjvjwxdjt8cJvuLSjOjaPP2z2Ke+fH03/u+tB34uG94vNXT4i8wpb/nKrW1sV1X5wW815LDdYjIg45ZWAU93w3jL/7qrmxclFNl/bamrYE+m++UhFvvVoZo/YubVHvNSg/cvIyo762qYu6AwAAYFslXAf4t5H79o0TLtozcvNb/tFYXVkXd//wpVg6pyLtcxOPGhKFpe+G8Y//cWan/VC1rfb78IgWPwR+6FfTumVrUNgSz559Tjx7duqZ5B3S3Bwrn3shVj73QqcN+dr/XB6v/c/l7Xpm6aOPxS0ZRck3AtCpajbUR9Xqmsgvzm1xbM9/6z2kOA4/a3w8+MvXEser29gQ61fXRE5+VhT3zI+MzNTzuIt65sfR5+0Wt3/vxQ73v8/xw9MG681NzbF+TU001jdFad+CyMxq+aWCg04dHcvnVcac55d3uIfWHHrawPjEt0dHVnbLuVcu3BjXfGFqrJjf+ur9rJyW/9zOuHRsnHHp2DbNO3b/8rhh5uGbXn9h3OR2dL3lVi+pSQnXIyIKS7KjYqXjlwAAAHY2wnWAiNjzmKHxgc/tmvIDyrXLNsRdP5gSa5e0fnZ61nue+eAXd4sPfjF1pWo6Q3frFV//y3GbXv/0xL+3o+t3vbfvk7+zX5uf3f2IwbH7Ee/88LZiRXX89ouPb1EPAADdaUNFbbz26KKY9eyyWDHv3ZXT5QN7xFGfnxDD9+yd8syu7x8Y//z9jKirbki5VltdH69PXhxvPLUkls5ZF83/XqTcozwvjjh7fIsjgf5j2O69o9fgolj9dtUWv4/M7Iw46NRRKfV1y6vjrz95edN58UW98uMjF+8Vg8aVt7jvg1/cLd56eWU01nf+quqTLtoljvn8sJT63Fcr4vpzp7U4t3xH0Wtgftr6hnU73nsFAAAgmXAd2OkdeubYOOCkkSn1xbPWxj2Xv5z2LE4AALYNtdUN8cQtM2PKffPTBsprl2yIu374Upx19cHRZ1hxi2tZOZkxYFRpLHht9aZaY31TvPCXufHcXXPThu4b1tbGfT97NfJ65MQue/dJuT5oXFmHwvWhE3pFQXFuSv3JW2ZtCtYjIqpW18RD10+Lz173/hb39SjLi3GTBsT0xxdvcQ/vlZ2TEZ/+yfjY/0P9Uq69/PCK+P3X3+j2LdJPOH94nHD+iBa1VYs3xreOfD7l3sM/OSiWza2ON55bu9kxR+1dGrvsWZJSX7GgOhrqu+GgeAAAALqdcB3YaWVlZ8ZxX5mYdtXRrGeXxgPXTI2Guu79IeGkj4+OSZ8Y3aJmdTkAwLue+b/kM8abGptjxpOL49Azx6VcKyhpGWS/+vDCNs37+uS304br7x2vvXoO6pG2vnTOupTa6reronZDfeT1yGlRH3dw54XrhSXZcd71u8eY/cpSrj1y08K464q5bR5r3YramP96+vPY/1vvQflRVN7yn2PNhoZYNq9zjl4aNqE4TvvOmFgwfX08c/fSeP3J1bHq7XfPfs/OzYxDPzEwjv/S8MhMcwTAyw+v7JQ+AAAA2P4I14GdUl6P7Djpkn1iyIReKddeuvetmHzzzDaPVbWmJpa9mf489v9W0rcgCt/zw9a6jQ2xZnHrW863VcXy6jb10HNQj8gtSD1TvnLFO2djVq2pSfcYAMB2rzbNKvSId1aib4l0q9ojIqq2cLz/yMnv+H+mDxhd1uEx/uOki0emDdbraxtjzH5l8a279tns80/dsSSeumPpv3+/dNPvN+fTPx4XB504oEVtwfT1cfWnXm1z320xbEJxDJvwzm4GVWvromJlXeT1yIqe/fMjMys1VI+IqFxdFw//rm1fwAAAAGDHI1wHdkqHfWpc2mC9oa4xhkzoFZ+6ctJmn5/6yMKY+uiid37/6KJNv9+cY788cdPZ5v+xbG5F/N93X2hH5+k9e8eb8ewdbybe94kfHBBDd2v5vudOWREPXvdah3sAANiWpQucG+oaY+WC9ak3b+F4EdGmLzxuTnVF+nC+/6jSqPj3FyL/o+egHimr1iMiCktyo6g8r8NBf8Q7W8Knk5OXFcN3S90y/b2mPb468Z5tQVF5bspq+ffauL4hrj93WlRXpv9iBQAAADs+4TqwU8rMzkxbz87Niv6jShOfnzslv7NbAgC2U7++bNVWm+vc7/XeanPtSHoO6hHjJg1Iqc94aknUVNW3e7zC0tzY89ihKfUF01bF6kVbft56RMSi6WvS1t9/5thY/faGWLXwnS8DFPXMi2O+tHur4+QX53RKuL4jmj9tfUw8vHcUlaV+MaE1s15YG7dcOitWzN+YfDMAAAA7LOE6AAAAO6zC0tw48Zv7RE5eVot6dUVtPH3r7HaPl5OXFR/5f3tHj9K8FvX62sZ47H/f6FCvERHrllXH3CkrYuS+fVvUy/v3iLN/fnCsX10TjQ1NUdq3IDKz0n9hNCJSjgLiXY/ftjieumNJjNqnNMbuXx5DJxRF32GFUdIrJ/IKs6Kxvjmq1zfEigUbY97UynjpweWxcHrHvjQBAADAjsF/bQMAALBDKu1XEKd8d7/oOaioRb2upiHu+fHL7V7ZXVCcEyd9e98YNLa8Rb2psSnu/8WrW7zF/Hs98tvX45PDD4zi3gUt6hmZGVHSp6CVp1pqqGvqlF5uvmRm3HzJzE4ZqyvnvO+X8+O+X85v8/2NDc0x64V1MeuFde1rDgAAgJ2acB3YKT143Wtb/ZzxLZnzmdvnxDO3z+m0HjrjfHcAgO1B/9Gl8bFv7Rs9ylquMK/b2BD3XD4llsxa167xyvoXxinf3S/KB/ZoUW9qbIoHrnkt5jy/vKMtb7J+VU3c9p3n44Sv7hkD3xPkv9fyuRXRb2TqsUY1VXWd1g8AAADwDuE6AAAAO5SR+/aNEy7aM3LzW/4nb3VlXdz9w5di6ZyKdo03YExZfOxb+0Rhmq3g/3bVv2LulBUd7vm9KpZvjD9d8lyM2rdvjDt4YAwYUxo9yvIiMzMjqtbWxuKZa2PqIwujpHdBHP/VPVs821DXGBvWCtcBAACgswnXAQAA2GHseczQ+MDndk05j3ztsg1x1w+mxNolG9o13qj9+8UJX9sz5cz2DRW1cc/lL8fS2es62nLrmiPefGlFvPlS6+H9MecNTqktfbMiGhs6Z1t4AAAA4F3CdQAAAHYIh545Ng44aWRKffGstXHP5S/Hxsr2rebe+7hhccRndo3MrIwW9TWLq+KuH06JdcuqO9RvR+UX5cTYSf1T6vNfXdUN3QAAAMCOT7gOAADAdi0rOzOO+8rEGH/IwJRrs55dGg9cMzUa6tq3kvuws8bF/h/dJaW+aMaa+MuPX46aqvp2jXfslyfG7ke0XGW+8PXV8X/ffSH9AxkR0dz6eBmZEUeft3vkFea0qNfXNsbURxa2qzcAAACgbYTrAAAAbLfyemTHSZfsE0Mm9Eq59tK9b8Xkm2e2a7ysnMz40AV7xLhJA1KuvfHUkvj7ta91+ZbrGZkZ8blfvj+mProo3nxheax5z1b2A8eWxfs/OTaG7pb6nl/5+/yornDeOgAAAHQF4ToAAADbrcM+NS5tsN5Q1xhDJvSKT105abPPT31kYUx9dNGm1/t9eETaYL25qTnKB/aIM3584GbHe/Ol5fHsHW+2sfvWlQ/oEYd9alwc9qlxUbOhPqpW10Rzc0Rxr/zIL8pJ+8zSOeviqVtnd3huAAAAID3hOgAAANutzOzMtPXs3KzoP6o08fm5U/JbvM5qZbyMzIzoPzJ5vJUL1yfe0175PXIiv0f6QP0/Fs9cG/dcPiWaGjezlzwAAADQIcJ1AAAA2E7V1TTEKw8siGdunxON9V27XT0AAADs7ITrAAAAsA1pbmqOm7/2dAzdrWcMmdAzyvr3iILinMgvzonGuqaoXl8XqxdVxbx/rYrZzy2NDeucsQ4AAABbg3AdAACA7daD170WD173WqeN98ztc+KZ2+d02nj/0d4+V8yrjBXzKmPKffM7vRcAAABgy6Q/TA4AAAAAAAAA2ES4DgAAAAAAAAAJhOsAAAAAAAAAkEC4DgAAAAAAAAAJhOsAAAAAAAAAkEC4DgAAAAAAAAAJsru7AQAAAAAAtk0Zf5y/1eZq/tTwrTYXAMCWsHIdAAAAAAAAABII1wEAAAAAAAAggXAdAAAAAAAAABII1wEAAAAAAAAggXAdAAAAAAAAABII1wEAAAAAAAAggXAdAAAAAAAAABII1wEAAAAAAAAggXAdAAAAAAAAABII1wEAAAAAAAAggXAdAAAAAAAAABII1wEAAAAAAAAggXAdAAAAAAAAABII1wEAAAAAAAAggXAdAAAAAAAAABII1wEAAAAAAAAggXAdAAAAAAAAABII1wEAAAAAAAAggXAdAAAAAAAAABII1wEAAAAAAAAggXAdAAAAAAAAABII1wEAAAAAAAAggXAdAAAAAAAAABJkd3cDwI5v7ffu22pzlV92wlabCwAAAAAAgJ2HlesAAAAAAAAAkEC4DgAAAAAAAAAJhOsAAAAAAAAAkEC4DgAAAAAAAAAJhOsAAAAAAAAAkCC7uxuAbUHVnWdvtbmKTrlpq80FAAAAAAAAdA4r1wEAAAAAAAAggXAdAAAAAAAAABLYFh52Mkd9819bba5Hf7LXVpsLAAAAAAAAupKV6wAAAAAAAACQQLgOAAAAAAAAAAmE6wAAAAAAAACQwJnrAAAAAABsU6ruPHurzVV0yk1bbS4AYPtm5ToAAAAAAAAAJLByHbrJry9btdXmOvd7vbfaXAAAAAAAALAjsnIdAAAAAAAAABII1wEAAAAAAAAggXAdAAAAAAAAABII1wEAAAAAAAAggXAdAAAAAAAAABII1wEAAAAAAAAggXAdAAAAAAAAABII1wEAAAAAAAAggXAdAAAAAAAAABII1wEAAAAAAAAggXAdAAAAAAAAABII1wEAAAAAAAAggXAdAAAAAAAAABII1wEAAAAAAAAggXAdAAAAAAAAABII1wEAAAAAAAAggXAdAAAAAAAAABII1wEAAAAAAAAggXAdAAAAAAAAABII1wEAAAAAAAAggXAdAAAAAAAAABII1wEAAAAAAAAggXAdAAAAAAAAABJkd3cDAAAAnaXqzrO32lxFp9y01eYCAAAAoPtZuQ4AAAAAAAAACYTrAAAAAAAAAJBAuA4AAAAAAAAACYTrAAAAAAAAAJBAuA4AAAAAAAAACYTrAAAAAAAAAJBAuA4AAAAAAAAACYTrAAAAAAAAAJBAuA4AAAAAAAAACYTrAAAAAAAAAJBAuA4AAAAAAAAACYTrAAAAAAAAAJBAuA4AAAAAAAAACYTrAAAAAAAAAJBAuA4AAAAAAAAACYTrAAAAAAAAAJBAuA4AAAAAAAAACYTrAAAAAAAAAJBAuA4AAAAAAAAACYTrAAAAwP9n777jojj+/4G/6E0QBRGwAPaOvRcUe2/EimKNGlvixyTGGk00auwau2DXWCH2BvZesHcQVBQEKYIg5X5/8Lv93rF7BbgDy+v5eNzjwc3Ozs4dsDs7750ZIiIiIiIiItKAwXUiIiIiIiIiIiIiIiIiIiINGFwnIiIiIiIiIiIiIiIiIiLSgMF1IiIiIiIiIiIiIiIiIiIiDRhcJyIiIiIiIiIiIiIiIiIi0oDBdSIiIiIiIiIiIiIiIiIiIg0YXCciIiIiIiIiIiIiIiIiItLAOL8rQEREREREXx+DTaF5dizZANc8OxYREREREREREX27OHKdiIiIiIiIiIiIiIiIiIhIAwbXiYiIiIiIiIiIiIiIiIiINGBwnYiIiIiIiIiIiIiIiIiISAMG14mIiIiIiIiIiIiIiIiIiDRgcJ2IiIiIiIiIiIiIiIiIiEgDBteJiIiIiIiIiIiIiIiIiIg0YHCdiIiIiIiIiIiIiIiIiIhIAwbXiYiIiIiIiIiIiIiIiIiINGBwnYiIiIiIiIiIiIiIiIiISAMG14mIiIiIiIiIiIiIiIiIiDQwzu8KECky2BSaZ8eSDXDNs2MRERERERERERERERER0ZeNI9eJiIiIiIiIiIiIiIiIiIg0YHCdiIiIiIiIiIiIiIiIiIhIAwbXiYiIiIiIiIiIiIiIiIiINGBwnYiIiIiIiIiIiIiIiIiISAMG14mIiIiIiIiIiIiIiIiIiDRgcJ2IiIiIiIiIiIiIiIiIiEgDBteJiIiIiIiIiIiIiIiIiIg0YHCdiIiIiIiIiIiIiIiIiIhIA+P8rgARERERERFlX6tfb+bZsY7/VQMA8H7af3l2zEIzO+XZsYiIiIiIiIiItMGR60RERERERERERERERERERBpw5DqpJZPJkJCQkHcH/Jh3x4qPjxd+/pD0Kc+Om/H/j/sxOS8/q6nwc1rKhzw8buZnjU9JyrNjGin8XgEgOTXvjv21i8/y3QLAp/TEfKjJ10nq+/3afIQsv6vw1fgW/l7yQ15/r9bW1jAwMMiz47Fdp3ts1+kX23X6w3adfn0L12m263TnW/h7yQ9s1+kY23V6wXYd6QLbdfr1LVyn2a7TnW/h7yU/fI7tOgOZTMb/HFIpPj4eBQsWzO9qEBEREX114uLiYGNjk2fHY7uOiIiISD/YriMiIiL6OmjTrmNwndTK8ydhiYiIiL4RX/0IJyIiIqJvBNt1RERERF8HjlwnIiIiIiIiIiIiIiIiIiLSAcP8rgAREREREREREREREREREdHnjsF1IiIiIiIiIiIiIiIiIiIiDRhcJyIiIiIiIiIiIiIiIiIi0oDBdSIiIiIiIiIiIiIiIiIiIg0YXCciIiIiIiIiIiIiIiIiItKAwXUiIiIiIiIiIiIiIiIiIiINGFwnIiIiIiIiIiIiIiIiIiLSgMF1IiIiIiIiIiIiIiIiIiIiDRhcJyIiIiIiIiIiIiIiIiIi0oDBdSIiIiIiIiIiIiIiIiIiIg0YXCciIiIiIiIiIiIiIiIiItKAwXUiIiIiIiIiIiIiIiIiIiINGFwnIvpMeXh4wMDAQOnl4+Oj9+P6+PiIjuvh4aH345L+zZgxQ/S7dXV1ze9qERERfXP8/PxE12QDA4Ov/tgAEBQUJHn80NDQPKsD6UdoaKjk7zYoKCi/q0ZERKQT+d2Oyg+urq6izztjxgy9HY/9kl8v9kvS18Q4vytARPQ1CAoKQvPmzXO8f2BgIBuKn7nIyEgcOHAAZ8+exY0bN/Du3TvExMRAJpOhYMGCKFWqFKpVq4aWLVuiTZs2sLGxye8qExERffbYhiLKlJ6ejmPHjuH06dO4cOECXr58iejoaCQlJaFAgQJwdHRE5cqV0bhxY7Rv3x7lypXL7yoTEdFXIjExEbt27cLhw4dx69YtREZGIiEhASYmJrCysoKjoyNKlCiB8uXLo0qVKqhXrx4qVaoEIyOj/K56jgUFBYke/rK1tcX48ePzpT5EmrBfkujzwuA6ERGRGi9fvsTMmTOxefNmJCcnS+aJjIxEZGQkLl26hDVr1sDS0hLjxo3D7Nmz87i2RERERPQlycjIwMqVK7FgwQKEhIRI5omNjUVsbCwePnyIPXv24Mcff0Tjxo3x77//wsnJKY9rTEREX5M9e/Zg1KhRiIyMFG1LT09HcnIyoqOjce/ePRw5ckTYtn37dvTu3Tsvq6pTQUFB+P3335XSXFxcGFynzw77JYk+TwyuExF9psqXL48PHz4opbm5uen9uG5ubqhVq5aoLt+igIAADBo0CDExMdnaLykpCYcOHWIjloiIiD479vb2orZeXrK2tpY8vpmZWT7UJn+9evUK/fr1w+nTp7O977lz5/D27VsG14mIKMe2bNmCAQMGQCaT5XdV6DNWrVo12NvbK6U5Ozvr7Xjsl/w/7Jck+nwxuE5EpEdOTk5aNTitra1FaatXr9ZHlTSaPn06pk+fni/H/pxs374d/fr1U3mTaWJigmLFisHGxgbv379HREQE0tLS8riWREREX6fctKFIvY4dO6Jjx475dvxatWrh2rVr+Xb8z8WbN2/QqFEjvHjxQmWeokWLwsHBAcnJyXjz5g0SEhLysIZERPQ1i4yMxA8//CDZ52Fubg4XFxdYWFggPj4eERER+PjxYz7Ukj4HAQEBeXo89ktmYr8k0eeNwXUiIj0aPnw4ZsyYkd/VoGy6ePEifHx8JBuwZcqUwYwZM9C5c2elDv3ExEScP38emzZtwu7du/OyukRERF8dtqHoa5aamooOHTpIBtbNzc0xduxYDB8+HKVLlxbSZTIZ7t69i/3792PdunUICwvLyyoTEdFXZseOHYiPj1dKMzExwcqVK+Ht7Q1TU1MhPSMjA0+ePMGpU6dw4MABHDt2LK+rS/RNYb8k0efPML8rQERE0jw8PGBgYKD08vHxUcozaNAgUZ6iRYvi3bt3ovJSU1NRs2ZNUf569eohNTVVyOfj4yPK4+HhISovNDRUlM/AwABBQUEAgBs3bmDYsGEoXbo0LCwsYGtriwYNGmDx4sX49OmTVt9BQEAAOnXqBCcnJ5ibm6NEiRLo2bMnjh49qlUdckImk2Hs2LGSdWzZsiVu3ryJfv36iUbKWVlZoXXr1tiyZQsePXqEbt26qT3O27dvMW/ePHTo0AGurq6wtraGmZkZnJycUL9+fUyYMCFbo7ri4+Mxa9Ys1KhRAzY2NrCxsUHVqlUxefJkvHnzRutypNy8eRM///wzGjVqBGdnZ5ibm8Pa2hqlS5dG7969sWXLFj4dS0RE+e7BgwewsrIStQtmzpwpmX/Pnj2S7Qh/f38hj6a2xuXLlzF48GCUKlUKFhYWsLe3R7NmzbBmzRqkp6fr5HO9evUKe/fuxZQpU9ChQwdUr14dLi4usLGxgYmJCQoXLowKFSrAy8sLq1atQmxsrNry/Pz8JD+TFFdXV1E++UMPERERmDx5MqpVqwYbGxtYWVmhUqVKmDhxouS6rXJBQUGSxw8NDRXlVdcejouLw+zZs1GnTh0UKlQIFhYWKFOmDEaMGKFy7fKsQkJCMHbsWJQrVw4WFhaws7ND/fr1sWDBAiQlJWmsQ06tXr0aN27cEKXb2tri1KlTmDt3rlJgHQAMDAxQtWpVTJ06FU+fPsXff/8NKysrlcdIT0/H7t27MXjwYFSuXBn29vZKfy/e3t7YsmWL0n2AJnv37kWHDh3g6OgojGrs06dPjqa1V/T+/XssWbIE3bp1g5ubG2xsbGBmZgZnZ2d4eHhg5syZeP36da6OQUREyi5duiRK69u3L4YMGaIUWAcAQ0NDlC9fHiNHjsTBgwcRHh6ORo0aKeX5+++/RdfLcuXKqZ1y/tKlS6J9jI2Nlc756vqoUlJSsGzZMjRp0gRFihSBmZkZSpYsCW9vb9y+fVt0PMV2Xdb11gHgxYsXkm0UPz8/dV+lkiNHjqBnz54oUaIEzMzM4ODggPbt22P//v1al6HL6+KTJ08wbdo0eHh4oFixYrCysoKJiQmKFi2KSpUqoXnz5hg9ejT8/Pzw7NkzyTLUtQflVLWZtXll/X7ZL8l+yazYL0mfJRkREeVaYGCgDIDoNX369ByX2axZM1F5AwcOVMqTkJAgK1u2rCifl5eXqLwpU6aI8tnY2MiePXumlG/gwIGifM2aNROVFxISIvmZT548KZswYYLM0NBQcjsAWf369WWxsbEqP3tycrKsZ8+eKvcHIOvXr5/s8ePHktsCAwNz8pXLZDKZ7L///pMss2TJkrL379/nuFy51NRU2aRJk2RmZmZqP5/81aZNG9mrV6/UlnnlyhWZk5OTyjIKFy4sO3jwoGz69OmibS4uLirLffXqlaxdu3Za1dPNzU129uzZXH8/RET0bdF1G2r16tWiskxMTGS3bt1SyvfmzRuZvb29KO/o0aOV8qlq75w6dUo2ceJEte2dmjVryiIiIiTr6evrK7mPlB49emh1LVZs3/n5+an8jrJzbBcXF8nfzdatW2U2NjYq6+Dg4CC7ffu2ZJmqfuchISGivKraw8ePH5c5OjqqPL6VlZXs5MmTKr8DmUwm27x5s8zCwkJlGaVLl5bdvn1bqzZ5dqSlpcmKFi0qecy9e/fmuFxFJ06ckLm6umr19+Ls7Czz9/dXW15SUpKsc+fOassZNWqU7NmzZ5LbVLXN09PTZbNnz5ZZWVlprKeZmZls+vTpsvT0dJ18R0RE37pWrVqJzrWDBw/OcXmxsbGyAgUKiMo8fvy4yn3Gjh0ryt+pUyelPKr6qG7evCkrU6aMyuuGsbGxbMuWLUplqWrXaXr5+voKZahqRyUmJsq8vLzUljNixAi136Gur4vTpk2TGRkZZeuzSlHVHtTFd5v1+1X3O8+K/ZI5w35JIt1gcJ2ISAfyK7guk8lk169fl5mamory7tixQ8hz+fJlyQb19u3bReXlthFbuXJlrRo96m7aunTpolUZjRs31nkjdsiQIZJl/vPPPzkuUy4lJUXm6emZ7RuNIkWKyB48eCBZ5sOHD2UFCxbUWIaZmZnksVU1Yu/fvy8rUqRItuppYmIi2717d66/JyIi+nboow0lFYyuVq2aLCUlRcjTqVMnUR53d3dZcnKyUlmq2jv169fX6tpYoUIF2YcPH0R11GdwXf7K2qGck2NLdaZWqlRJZmBgoNVn//Tpk6jM3AbXy5YtK9n2lWo/RUdHS36uPXv2qO1wlb+KFi0q2XGfm+D62bNnJY9Vt27dHJepaM2aNVp9tqyvv//+W7K8jIwMrTs1O3ToIJku1TZPS0vTus2v+OrRowcD7EREOtCtWzfROdbY2Fg2f/58WVRUVI7KHDNmjOR5W0p6errkg3L79+9XyifVR1W8eHGt+kHMzc1ljx8/FsrSZ3C9adOmWpW1adMmye9D19dFPz+/HH1WKV9acJ39kqqxX5JIdzgtPBGRHv3+++8apz/K7bSSNWvWxOzZs0XpP/zwA96+fYuPHz9iwIABoqlJBw8ejN69e+fq2FLu3bsHIHOtrkqVKqFIkSKS+TZt2oSIiAhR+oYNG5SmY1VkZ2eHKlWqCFNgnjt3Tke1/j/Hjx8XpRkYGOC7777LddljxozByZMnJbe5urqicuXKMDExEW2LiopChw4dhOlJFQ0aNAhxcXGSdS5btizKlSsHAwMDpKSkqDx2VvHx8WjXrh2ioqJE2woUKICKFSuiePHioilkU1NTMWDAAOFvgIiIKKdy04Zau3YtSpYsqZR2+/ZtYXp4X19f/Pfff0rbLS0tsWPHDpiZmWlVP/lUqmZmZqhcuTKKFy8ume/hw4f49ddftSpTG0ZGRihRogQqV66MGjVqoGzZsirr/OOPP0q2HXLr/v37whSvpUuXRqlSpSTzPXz4MFtToGrryZMnwjSZJUqUQPny5SXzRUVFYf369ZLpw4YNQ0ZGhmibqakpKleujGLFigHInC7z6dOnOqy9dFsTAHr16pXrss+ePYtRo0ZJfjZbW1tUrVoVdnZ2kvtOnDgRhw8fFqWvWbNGMh0A7O3tUbVqVRQoUAAAcPDgQa3rOnHiRMk2v5GREVxcXFChQgWYm5uLtu/Zs0dyKl8iIsqeWrVqidLS0tIwceJEFC1aFFWqVMHAgQOxePFiXLp0SatlRMaNGwdDQ+Vwg7+/v2TfT2BgoGiqaEdHR3To0EHjcV6+fCn0g8inN896XABITk7G4sWLhfdmZmaoVasWatWqBScnJ1F+U1NTYbviy97eXmOdzpw5AwCwtrZW6rfK6q+//pJM1/V1cfny5ZLHcXJyQrVq1VC+fHkUKlRI5efJLsXvVtVLqv4A1C5zkxPsl1SN/ZJEOpTf0X0ioq+BqhE42rxUjXzJzhSUGRkZsrZt24ryd+nSRTZu3DhRevny5SVHUclkuX9CFIDM09NTmAY1LS1NNmLECMl8WZ/YTU9Pl5UuXVqUz9DQULZ8+XLhadykpCTZqFGjVB4/p0+IpqenS470KVWqVI7KU3T37l3Jst3c3GTXr18X8r17907WvXt3yc81Z84cpTJPnjwpma9ChQqy+/fvC/mePn0qq1GjhmReqSdEp06dKspnaWkp27x5syw1NVXId+fOHZm7u7sob+fOnXP9fRER0bdBH20omSxzdHDWWXuMjY1lu3fvlpzOfN26dZLlqGvv9OrVS2lqxpMnT8oKFSokymdmZiZ7+/atUrnZGT0+Y8YM2fz582XXr19Xug7LpaSkyDZs2CA5taPiTEY5ObbUSCUgc1rKa9euCfk2bdokOUuS1Iig3I5cByCztbWVHTt2TMh3/PhxmaWlpShfixYtJL9PqTLbtWsni4yMFPIdOHBAcnpbTX97mki1tQHIzpw5k+My5erVqyfZjl6yZInwt5Oeni5bv369zNjYWJS3UqVKSqPf0tPTJaeXNzIykq1fv16WkZEhk8kyp06dOHGiyv+VrG3zR48eSR5/8ODBSkspxMfHy8aPHy/KZ25urnF6UiIiUu/ly5cyc3NzrdtdVlZWst69e8tOnTqltlypEb8zZ84U5Rs6dKgo3y+//CLKp+q6aWpqKtu6datwLbp586bkKFdV/TnZnZ5aTlU7CoBswoQJwixI0dHRktdlALKwsDClMvVxXczaLipQoIDs0qVLos8TEREh27Nnj2zkyJEyBwcHyc+szch1TdatWyf5XXh7ewu/Qzn2S7Jfkv2S9CVgcJ2ISAfyO7guk2WuHapq/UbFl5mZmezmzZsqy8ltI9ba2lq0BtCnT58kOyez3jhdvHhRssys65/KNWjQQKeN2MjISMny6tWrl6PyFE2YMEGy7KtXr4ryJicny0qVKiXKW6ZMGaV8w4YNkyxTao3T58+fS96sZW3EZmRkSE7NtmbNGsnPdfv2bck6vH79OudfFhERfTP0FVyXyVQHUbO+evXqpbIMVe2dMmXKSE55vmnTJsn8K1euVMqXnQC3tqTWxB4zZowony6C6ydOnBDlbd26tVZtKF0E16Uehhg+fLgoX9GiRUX5ypcvL8rn6OgoS0hIEOVdtWpVjv721Gnfvr1kmaqm2tTWnTt3JMv94YcfJPNPnjxZMv+5c+eEPOfPn5fMM2HCBMkyW7RoIZk/a9v8l19+EeVp1KiRys9Ws2ZNUf6snbtERJR9qh6O0/Tq2LGjyqVXpK7zJUqUkKWlpQl5UlJSJB9IVJzCXU5VcH3KlCmivLNnz5bMm5SUJMqr6+B6kyZNRHkvXLggmffw4cNK+fRxXcwaXK9QoYIoiJ2V4u9IUW6D63v37pX8O+vYsaPkg6PslxSXx35J9kvS54fTwhMR6ZGTk5PGaZHc3Nx0cqyiRYti48aNoilxspo/fz6qV6+uk2NKGThwIGxtbZXSTExMJKcMff/+vdL7CxcuSJY5dOhQyfRhw4blrJL54NSpU6K06tWro3bt2qJ0MzMzeHt7i9KfPn2K8PBw4f3FixdFeWrVqoWqVauK0t3c3NC0aVON9bx3755oajYAWLp0KWrXri16qZqSV+rzEhERaUsXbagpU6agSZMmavO4ublh9erV2a6ft7e35JSJ3333HSwsLETpUtfs7EhMTMSmTZvQv39/1KxZE/b29rCwsFCaJj8gIEC036tXr3J1XClVq1aFp6enKL1ChQqitKxtPV2ws7OTbCdpc/zo6Gg8evRIlK93797C1OaKBgwYoHIK08+NqraXqvayqva1Yjmq/m5Vtf+0Xe7qxIkTorTnz59LtjVr166N0NBQUX5tpxUlIiLVvL29cezYMVSuXDlb+x04cACdOnUSLT8IAB4eHqI+p/DwcKWlQ44ePSq6Rjdt2hRly5bV6vhGRkYYM2aMKF2qLQAAsbGxWpWbG+PGjROlqapP1s+uj+ti1t/Bw4cP0axZM8ydOxf79+/HgwcPhGV25IyMjCTrmxunTp1Cnz59RH8rTZo0wb///gtjY2OdH5P9ktLYL0mkW7o/exERkWD48OGYMWNGnh2vTZs2+Omnn7BgwQLJ7Z07d5a8AdGlGjVqSKZLdVimpKQovVdsoMkZGRmhSpUqkmXq+iEBOzs7GBoaitaplFrjJ7vCwsJEae7u7irzq9oWHh6OEiVKAMhcZywrqQas4jZNjcsXL15Ipt+9e1ftftqWQ0REpA1dtKGMjIywdetWuLu7SwZ5jY2NsX37dhQsWDDbZVerVk0y3czMDOXKlUNwcLBSulQbR1v+/v4YPnw4IiMjs72vPjqTVbW/tGnr6UKlSpVgamqq1fGzdhpLtZ0A1e0uCwsLlCtXDrdv385BTaWpWvczKipKZSe8NqTamura0a6urrCxsUF8fLxSuuLfqtT3ZWRkhIoVK0qWqa4dqkiqnRgRESG57ml2yiAiouxr0aIF7ty5g5MnT2L37t0IDAzE48ePNe534cIF7Nq1C7179xZt+/HHHzFw4ECltFWrVqFz584AgO3bt4v2URW8lOLs7AwHBwdRulRbANBPeyQrqb4wbeujj+viTz/9JAoUnz17FmfPnhXey6/pTZs2Re/evTU+lJpd165dQ9euXUWf193dHf/995/kA6m6wH5JaeyXJNItjlwnIvrKDBgwQOU2Ly8vvR+/WLFikunaPI2akJAgSrOwsFD59Ky1tXX2KqeBoaEhihcvLkoPCQlBdHR0rsqOi4sTpamrv6ptip3kUt+Xqps3TceTKj83cvt9ERER6UKJEiXg4eEhua1MmTKoWbNmjsrN7jVc6pqtjbNnz6J79+45CqwDkBxRllu5aevl9/FV/R5y0ibLKRcXF8n0q1ev5qpcqbamunY0IP3ZNLU1ddE210V7k21NIiLdMTAwQMuWLbFq1So8evQI0dHROHLkCKZMmaLygUIA+O+//yTTe/fuDUdHR6W0o0ePIjQ0FElJSaLZdgoWLIiePXtqXd/8botIkaqTtvXRx3WxR48eWLVqldprc3p6Ou7evYt//vkHTZs2RceOHZGUlJTrugCZI+XbtWsnakuULl0aR44cydHDrdpiv6Q09ksS6RaD60REX5GUlBS1wfXx48frZXpQRWZmZpLpmqarB6QbWR8/fhQ9sSmX045qdVq2bClKk8lk2LlzZ67KlbpxUFd/VdsUp7aS+r4+fPiQ7TJVlZ8b+ujMJyIiyq4dO3Zg3759ktsePnyIqVOn5qjc7F5vc9rxNnXqVFE7qGDBgli7di1evnyJ1NRUyGQyyGQyyakb9SE3bb38Pr6q30Nu20/ZIdXWBKCXtubHjx/VtsmkPpumtqa6MrX9rnTR3mRbk4hIfwoXLow2bdpg1qxZCA4OxqZNmySvsyEhIZL7m5qa4ocfflBKy8jIwOrVq/Hff/8hMTFRaVufPn2yNYo5v9siUqTqpG199HVd/P777/Hy5Uv4+vrC29sbVatWVfs9Hzx4EL/88kuu6xIeHo7WrVvj3bt3SulOTk44duyY6MELXWO/pDT2SxLpFoPrRERfkZ9//lk0Dami6Oho9O/fX2WjML+VLFlSlJaeno6HDx9K5r9165bO69C1a1fJ9L/++itXT09KfTZ1vytV2+RTL2X9We7OnTsqy1S3TU7VaKpr164JnffavBYvXqzxWERERPoUGhqKESNGqM0zf/78HK3drGqa8JSUFMmpVKWu2Zp8+vRJaepOub/++gtDhw5FsWLFlEbgSE31SMpU/R7u3bsnmf7x40etpsbNjgYNGkhOZXvlyhXs3bs3x+WqakermkIzNDRUNCU8oLmtmZ6ejgcPHkiWqU1bE5Bub44ePTpbbc28WD+XiIgyeXt7S67Lri5YOWLECJibmyulbdiwARs3bhTlzc6U8F8jfV4XbWxs4OPjg02bNuH27dtISkrC27dvcerUKfTo0UOUf8uWLbnqM3z37h1at24tml7d1tYWR48elVz3/HPCfknN29gvSZSJwXUioq/EwYMHsXTpUqU0MzMzFCpUSCktKCgIc+bMycuqaa1hw4aS6Zs3b5ZMX79+vc7r0LFjR9SuXVuUHh4eDi8vL7VPYMqFhobi999/V0pr0aKFKN+tW7dw7do1UfqnT58kP3OZMmWUGq4NGjQQ5bl+/bpkh//z589x5swZjXWvXLmy5FPE//zzj8Z9gcynUI8fP65VXiIiIn1JS0tD3759RdMfZr3GZWRkwNvbWzSyRpPNmzcjNTVVlP7vv//i48ePonRVbRx13r17J9m5KbVm9507d3Du3LlsH+NbU7hwYcl1zf/991/R+uxAZgdzcnKyTutgbGyMKVOmSG4bMmQILl26pLGMT58+YcGCBXjy5ImQJtXWBIC1a9dKpq9bt04yXbEcqbYmAPj6+kqm+/n5SaZn5enpKUrbvXu31uuJnjp1SnJqUyIi0t4ff/yB3377DW/evNGYNyMjQ/IcrW4Esr29Pfr376+UFhkZicOHDyulubu7o1atWlrWWnekRjfrakr07NLHdTHr7ACKHBwc0Lx5c8m2QGxsbLbbxXIfPnxA+/btRYFoCwsLHDhwQO1a3J8L9ktmYr8kkWYMrhMRfQUiIiLg4+MjSp81axbWrFkjSp8xYwYuXryYBzXLnrp166JMmTKi9AULFmDz5s2QyWQAMkcRjR07FufPn9d5HQwMDLBkyRKYmJiItp04cQI1a9bEtm3bRI3ZxMREHDt2DP3790eFChVEU9D6+PjA0FB82f3uu+9w8+ZN4X1MTAz69u2L58+fi/IOHjxY6X3v3r0lP0OvXr2UbmaeP3+Onj17Ii0tTTK/IgMDAwwZMkSUvmHDBowYMUJy2rdXr15h165d8Pb2hrOzM/7880+NxyEiItKn6dOni9o6xYoVQ3BwMGrUqKGUHhERgUGDBmWr/CdPnmDgwIFKHZmnTp3CuHHjRHnNzMzQvXv3bJUPSE/dCGSOtn/79q3w/sKFC+jYsSOnPtRS3759RWkvXryAt7e30migw4cPY8KECXqpw4gRI1C9enVRemxsLJo3b45ff/1V1BaUyWS4e/cuZs2ahTJlyuB///ufUsd5lSpVULduXVGZK1euxNKlS4W/j4yMDGzYsAFz584V5a1YsaJSJ2m9evXg5uYmyrd06VL4+voKbfOUlBT88ssvOHXqlFaff9CgQaK1S9+8eYOWLVvi6NGjQrlyiYmJOHfuHCZPnozy5cvD09MT79+/1+pYREQkLTY2FnPmzEHJkiXRoUMH+Pn5KT20JRcWFgZvb2+ltodc06ZN1R5j/PjxGuuRX6PWsw5EAYCoqCitHnLTNX1cF7t06YJ27dph1apVePTokaidmJKSguXLl0vWx9TUNNufISUlBV27dsXVq1eV0k1MTLB79240atQo22XmB/ZLsl+SSGsyIiLKtcDAQBkA0Wv69Ok5LrNZs2ai8gYOHCjKl5GRIfP09BTlbdKkiSw9PV0mk8lkAwYMEG13dXWVxcbGisobOHCgKG+zZs1E+UJCQiQ/c2BgYK4+z4YNGyTLBSBzcHCQVa1aVVagQAGVedTVITs2bdqk9hgmJiayUqVKydzd3WUlS5aUGRsbK213d3cXlTl06FCV5bm5uckqV64sMzU1Vbn9w4cPojIbNGggmd/AwEBWrlw5Wfny5WUGBgYqj+vi4iIqMy4uTlayZEmV+9jb28uqVq0qK1eunMzW1larvxciIiIpqtpQTk5Oslq1aml8LViwQLJMQ0ND0XXx6NGjMplMJrt3757M3NxcdMwlS5aIylLV3pG/zMzMZFWqVJGVKFFCZZ7Ro0eLyvX19ZXMm1WtWrUk85mamsoqVqyo9nqt6pqs7bFlMpnMxcVFlE9V+3b69OlatTNU/c5DQkJEebVtP2bnc0VFRcns7OzU/j6LFy+u9ntVVYfsePXqlcbfn6Ojo9Dmsra2Fm2/efOmUpmnT5+WGRkZSZZVqFAhWbVq1WT29vYq244HDhwQ1XPVqlUq61ekSBFZ1apVJeum+JJqm48bN05lfktLS1nZsmVlVapUkRUrVkyyLSv190JERNqbMGGC5DnY2tpaVrp0aVm1atVkzs7OKvsTrK2tZW/fvtV4nNatW6s835ubm8tiYmLU7q9tH5VMlr02xvnz5yXzGhoaysqUKSO0Ndu0aaO0X3baUTKZTDKvr6+vKJ+ur4tZ21CmpqYyNzc3mbu7u6xChQoyKysryWOVLl1aVDdt2oPz5s2TLM/GxkZje/6///5TKov9kpnYL8l+Sfq8/d8CbURE9EWaO3euaK1Qa2trbNy4UXgicdmyZTh9+jRevHgh5JGvQ7p9+/Y8ra8mgwYNgr+/P/z9/UXbIiMjERkZKbxv27Ytjhw5Isqnbt0vbXl7e8PKygpDhgyRXNMoNTVV8ilOdZYvX46nT58iKChItE3qyUs5Ozs7HDhwAFZWVqJtvr6+qFevnmgKMJlMprRGqKGhIapXr44bN25orKeNjQ0OHz4MDw8PyWnI3r17l+NpwoiIiLQRERGBiIgIjfkaN26s9D46Ohr9+/cXTac+atQotG7dGgBQqVIl/PXXX6LRVD///DOaNWsGd3d3jcft2LEjDhw4gJSUFJVrWgNAhQoV8Ndff2ksT5UpU6agW7duovRPnz4prXtdunRpVKxYEQcOHMjxsb4V9vb2WLNmDby8vER/J1l/nyVLloSVlZVojXFdtDWdnZ1x7tw59O3bV+WU/m/evNFqul65pk2bYvny5Rg1apRolNv79+/VjvaeM2cOOnToIEofPnw4/P39RdP4Apkj/BTbinXq1BGNWFPl77//RkhICAICAkTbkpKSJEdPEhGR/iUkJCAhIUFtHgMDAyxbtgwODg4ay/vxxx9x7NgxyW3du3eXHEGeF+rVq4cSJUqI1gbPyMjA06dPhfdFixbNk/ro+7r46dMntf1OcpMnT85R+aqmoY+Pj8f169fV7vu59S+xX1KM/ZJEYpwWnojoC3blyhVMmzZNlL5w4UKlKRxtbGywadMm0fQ/O3bsULlmYn7auXMnevTooTbP8OHDsWDBAsltNjY2OqlH9+7dERwcjMGDB0uux6WKpaUl2rVrJ0o3MzPDsWPH8PPPP2s9zZanpydu3bqFSpUqSW4vX748jh8/DicnJ5VlWFlZwc/PD506ddLuAyAz8BAcHJytfQCgePHi6Nq1a7b2ISIi0pXBgwfj1atXSmnlypXDvHnzlNLGjh2Lli1bKqWlpKSgT58+Wq23OWHCBMyZMwfGxqqfV69ZsyYCAwMlO6G01bVrV8yZM0dyCke5ihUr4vDhw7Czs8vxcb413bt3h5+fHywsLFTmqVixIo4fPw5bW1vRNl21NUuUKIGgoCAsWbIELi4u2dq3UaNGkh3+I0aMwOHDh1GyZEmtynF0dMTevXvxyy+/SG43MDDAnj17NLYJvby8VK5HKsXY2Bj79u3D3LlzYW1trfV+8mUW8isYQ0T0tahduzZKly6d7f0cHR2xc+dODBw4UKv8bdq0QcWKFSW3SU39nFeMjIywZs2abPX16JOur4vZndrd3NwcCxYsyPZSSV8r9kv+H/ZLEknjyHUioi9UQkIC+vTpg9TUVKX0jh07Sq5Z1bRpU/zvf/8TdS6PGTMGjRo1Qrly5fRa3+wwMzPD7t274e/vj7Vr1+Lq1auIjY2Fg4MDGjRogO+//x6enp4qR2c5OjrqrC4lS5bE+vXrMWfOHAQEBODs2bO4efMmoqKi8P79e8hkMtjY2MDNzQ1Vq1ZFq1at0K5dO5XrpJqYmGDu3Ln48ccfsXHjRgQFBeHevXuIiYlBamoqbG1t4erqikaNGqF3796Sa2dmVadOHTx8+BCLFy/Gvn378PTpU8hkMpQoUQLt2rXD2LFj4erqihkzZmTrszs5OSEgIAD379/Htm3bcOHCBTx+/Bjv37/Hp0+fUKBAATg5OaFChQqoU6cOWrRogTp16qgNABAREenLihUrRKN9jIyMsGnTJlhaWiqlGxgYwM/PD1WrVlUazfvgwQOMGzcOa9eu1Xi8X3/9Fe3atcPy5ctx6tQpvH79GpaWlqhSpQr69u2LIUOGqA2+a+vXX39F8+bNsWTJEpw9exZv376FjY0NypQpg++++w4jRowQfT7SzNvbG40aNcKiRYtw5MgRvHz5EpaWlihXrhx69eqFESNGwMzMTHKkmC7bmkZGRhg7dix++OEHHD16FEFBQbhw4QJevnyJmJgYJCUloUCBAihatCgqVqyIxo0bo1OnTihfvrzKMtu0aYNnz55h7969OHToEK5cuYI3b94gISEBBQoUgIODA2rXro22bduiV69eGjtXLSwsEBAQgL1792L9+vW4du0aYmNjUaRIEdStWxeDBw9Gx44dERoamq3PbmhoiJ9//hkjR47Etm3bEBgYiBs3biAqKgoJCQkwNzdH4cKFUaZMGVSrVg0eHh5o3ry5ynY2ERFpr3fv3ujduzceP36M8+fP48qVK3j06BFevHiB6OhoJCYmwtDQENbW1ihevDiqVauGdu3aoUuXLtlqdxgYGGDMmDEYNWqUUnqpUqXQvHlzXX+sbGnbti2uX7+OJUuW4MyZMwgPD9fqIUt90eV18fDhw7h69SrOnz+PGzdu4PHjxwgLC0NcXBxSU1NhaWkJBwcHlC9fHi1atEC/fv3UBke/NeyXZL8kkSYGsqxzhREREX0BZDIZ2rRpg+PHjyully5dWmkKLyIiIqKcCg0NVZoNSC4wMBAeHh55XyHKU1u2bIG3t7co/ezZs6IlCYiIiEjazJkzMX36dKW0P/74I8dTkBN9DtgvSfRt4yMcRET02Zk1axZ++uknBAYGIjk5WbT99u3b6Natm6gBCwB9+/bNiyoSERER0RcqODgYXbp0wZYtWxARESHaHhMTg7///hvDhg0TbXN1dUWDBg3yoppERERfvKtXr2Lx4sVKaaamphg8eHD+VIhIC+yXJCJNOC08ERF9dt6+fYsVK1Zg0aJFMDQ0RIkSJWBra4v09HS8evVKafpWRc7Ozpg4cWIe15aIiIiIviSpqakICAgQlhEoXLgwHB0dYWpqivfv3yMsLAyqJvlbsGABjIyM8rK6REREX5TatWtDJpMhJiZGcskQb29vTkFOnzX2SxKRJgyuExHRZy0jIwMvXrzAixcv1Oazs7PDkSNHYG1tnUc1IyIiIqKvQUxMDGJiYjTm+/PPP9G9e/c8qBEREdGX6/r16yq3FS5cGLNmzcrD2hDlDvsliUgKp4UnIqLPjoGBQbbydunSBcHBwahataoea0VEREREX4PstDWBzKngDxw4gN9++01PNSIiIvr6WVlZYffu3Ry1Tp899ksSkSYGMlVznREREeWTlJQUnDhxAidOnMC1a9fw/PlzxMTEIDU1FQUKFEDhwoVRuXJl1KtXD71790aZMmXyu8pERET0FQoNDYWbm5soPTAwEB4eHnlfIdKZO3fu4ODBg7hw4QIePnyIN2/eIDExEebm5rCxsYGbmxtq1aqFDh06oHXr1jA05NgEIiIibSgGJk1NTVG8eHG0atUKv/zyi2S7iuhzw35JItKEwXUiIiIiIiIiIiIiIiIiIiIN+Og1ERERERERERERERERERGRBgyuExERERERERERERERERERacDgOhERERERERERERERERERkQYMrhMREREREREREREREREREWnA4DoREREREREREREREREREZEGDK4TERERERERERERERERERFpwOA6ERERERERERERERERERGRBgyuExERERERERERERERERERacDgOhERERERERERERERERERkQYMrhMREREREREREREREREREWnA4DoREREREREREREREREREZEGDK4TERERERERERERERERERFpwOA6ERERERERERERERERERGRBgyuExERERERERERERERERERacDgOhERERERERERERERERERkQYMrhMREREREREREREREREREWnA4DoREREREREREREREREREZEGDK4TERERERERERERERERERFpwOA6ERERERERERERERERERGRBgyuExERERERERERERERERERacDgOhERERERERERERERERERkQYMrhMREREREREREREREREREWnA4DoREREREREREREREREREZEGDK4TERERERERERERERERERFpwOA6ERERERERERERERERERGRBgyuExERERERERERERERERERacDgOhERERERERERERERERERkQYMrhMREREREREREREREREREWnA4DoREREREREREREREREREZEGDK4TERERERERERERERERERFpwOA6ERERERERERERERERERGRBgyuExERERERERERERERERERacDgOhERERERERERERERERERkQbG+V0B+vYYbArN7yrkOdkA1/yuAlG+8/Pzw6BBgwAAvr6+8PHxyd8KEenBh12D8rsK+aKAl29+V4GISLBy5rv8rkKeGznNPr+rQDkQGhoKNzc3AMDAgQPh5+eXvxXKY+/fv8eKFStw4MABPH78GAkJCbCyskKpUqXg4eGBESNGoFy5cvldTdKzVr/ezO8q5Lnjf9XI7yp8kdinQETaeD/tv/yuQp4rNLNTfleBviA+Pj7YuHEjACAkJASurq75W6EvFEeuE31lDAwMhNeXYPHixZgxYwYWL16c31XJE7GxsZgxYwZmzJiB/fv356iMxMREbNmyBYMGDUKVKlVQtGhRmJqaomDBgihdujR69OiBRYsW4fXr17qt/GcuKChI6e8/N68ZM2YI5fr5+eV4XyLSPU3/gwUKFECpUqXQtWtX+Pn5ISUlRW15oaGhwr66uqG4ceMGpkyZggYNGqB48eIwNzdHoUKFUK5cOfTq1Qu+vr748OHDZ1G+1Llz1apVWtdl8uTJov1DQ0OV8ih+x7l5fWtBJ6LP3a1bt/DTTz+hfv36KFKkCExNTWFhYQEnJyc0aNAAQ4cOxerVq/Hs2TOVZfj5+Qlt4y/Ry5cvsXTpUnTt2hXlypVD4cKFYWJiAnt7e1StWhU+Pj7YsmVLrs75+UXf92m3b99G1apVMXXqVFy+fBnv379HWloa4uLicPPmTSxatAhVq1aFry8f4CPSB/YrZF9cXBx8fX0xYMAAVKlSBY6OjjA1NYW1tTVKlCiBFi1aYMKECTh+/DjS0tLyu7rZIpPJ0LJlS6HdPXPmTK32e/LkCaysrGBgYAALCws8ePBAlOfdu3fYunUrhg0bhjp16gjXSltbW1StWhXff/89zp8/r+uPRER6xnuBr/tegDQzkMlksvyuBH1bOHJdvxSD6l/Cv7erqytevHgBFxcXUWf81yg3o1PS09OxaNEizJ07F+/eaR6RZWhoCC8vL/z5558oXbp0TqusM/p+yjwoKAjNmzfXSVnTp08XGnaK9c7uvvTt4ch1/cvuw2OlS5fG7t27Ub16dcntiufl3F6LQkJC8NNPP2n18JSDgwN+//13jBgxIl/Llzp31qlTB1euXNF4jIyMDLi4uODly5eieio+qKD4HecGRyiRtjhyXb8SExMxYsQIbNmyRet9Dh06hHbt2onSPTw8cPr0aQBfxr2LXExMDCZPnowNGzbg06dPGvNbWVlh7Nix+PXXX2FjYyOkf84j1/V5n5aSkoLKlSsLna2lSpXCkCFDULp0acTGxuLixYvYunUr0tLSYGRkhJs3b6Jq1ao6rQN9PjhyPW99yf0K+TVyPTk5GX/88QeWL1+OuLg4rfYpUqQIfvzxR4wZMwYFChTQcw1148WLF6hatSoSEhJgYmKCq1evwt3dXWX+9PR0NGnSBBcvXgQA/P3335gwYYJSnp9++gnLli3T6mGDbt26Yf369ShUqFDuPgh98zhyXb94L6C7e4H8wpHrusFp4YmIvgCxsbHo3bs3jh49KqSVKVMGbdu2RcWKFWFvb4/ExES8fv0aQUFBOHPmDD59+oSdO3ciOTk5x6PkvyRVqlTBvn37VG4/deoUli1bBgBo3rw5xo4dqzJvhQoVJNPHjBmDFi1aqK2Hqn2JSPey/s/LZDLExsYiODgY27ZtQ1RUFJ49ewZPT0/cv38fRYsW1VtdLl68iC5duiAqKgoAYG5ujrZt26JZs2ZwcnJCYmIinjx5gv379+Phw4eIjIzEyJEjceXKFaxevRomJib5Wj4AGBsbIy0tDVevXsW9e/dQuXJltfmPHj0qBNbl+0pxcHBQe35WZf78+bhw4QIAwM7OTmcPUBFRzqWlpaFdu3Y4e/YsgMz//Y4dO6JJkyZwdnaGgYEB3r17hzt37uDMmTPCCLb09PT8rLZO3bt3D507d8bz58+FtPr168PT0xMuLi6wtbVFTEwMQkNDcezYMdy8eROJiYmYM2cOHBwcMH78+Pyr/Gdix44dQmC9bt26OHXqFKysrITt33//PTp37owePXogPT0d//zzD1auXJlf1SX6arBfIfvCwsLQvXt3XL9+XUirWLEiPD09UbFiRdjZ2SE1NRVRUVG4c+cOAgMDERoaiqioKPz222+wtrbG6NGj8/ETaM/FxQULFy7EsGHDkJqaigEDBuDq1aswNTWVzD9//nwhsN64cWP8+OOPojz3798X7hHKlCkDT09PuLu7w97eHnFxcThz5gx27tyJT58+Yd++fQgPD8fZs2dhbm6uvw9KRDnGewHeC9D/YXCdiOgzl5aWhs6dOwsNl6JFi2L58uXo0aOH5AjOyZMn4927d/j777+FYPK3wN7eHl27dlW5PTY2Vvi5ZMmSavOqUrNmzRztlx3ypzabNWuGoKAgvR6L6Eun7v9x2rRp8PDwwJ07dxATE4OFCxdi7ty5eqnHkydP0KZNGyQkJAAAWrZsibVr10o+/Tt79mz4+vpizJgxSEpKgq+vL8zMzNQGDfRdvlzLli1x6tQpfPr0CRs2bMCCBQvU5t+wYQMAwNHRES4uLrh8+bJkPktLy2yfO3fs2CEE1o2MjLBz5064uLhkqwwi0r2VK1cKbVJXV1ccOnQIFStWVJn/yZMnWLduHWxtbfOohvoVHh6O5s2bCw861a1bFytWrEDt2rUl88+ZMwf379/HzJkzsXPnzrys6mdNMbA3f/58pcC6XPfu3VG8eHG8fPkSV69ezcvqEX2V2K+QfbGxsWjZsiWePHkCAChXrhyWLVuG1q1bq93vzJkzWLhwIfz9/fOimjo1dOhQ7NmzB0eOHMHt27cxc+ZM/PHHH6J8d+7cwfTp0wFkjsj08/ODoaF49VkjIyN89913GD9+PBo0aCB5vAkTJqB169aIjIzEtWvXMG/ePEybNk33H46Ico33ArwXoP/DNdeJiD5zv/32m9BwKVmyJC5duoSePXuqnRrZ3t4ef/31F65cuaJx5CER0deocOHCSmsF6uthlfT0dHh5eQmB7w4dOuDgwYMqp9UyMDDA4MGDcfDgQWEUyKpVq7B37958KV+RnZ0dOnfuDADYsmULUlNTVeaNjo5GQEAAAMDb2xvGxrp7Zjc4OBhDhgwR3s+bNw+enp46K5+Icm7z5s3CzytXrlTbmQYAZcuWxdy5c9G4cWN9V03vZDIZvLy8hM60Nm3aICgoSGVnmlylSpWwY8cO7N27l1Pd/n+PHj0CkDkLS6NGjVTmK168OAAgPj4+T+pF9DVjv0L2DR48WAis16lTB5cvX9YYWAeApk2bYv/+/Th8+DBKlCih72rqnGIgbO7cubh27ZrSdvmodvlUyHPnzlW5ZMDmzZuxc+dOycC6nLu7O9asWSO8lz/AS0SfH94L8F6A/g+D60TfmKCgIBgYGMDAwEBYF/r169f47bffULlyZRQoUAA2NjaoUaMGZs6cKXTmqxMcHIzRo0fD3d0dBQsWhImJCezt7VGhQgV4enrit99+w40bN5T2cXV1hYGBAV68eAEgc20neb0UX1nXrpane3h4AMh8knju3LmoX78+HBwcYGhoKGwDgBkzZgj7aAqsSH036hw+fBiDBw9GhQoVYGtrCxMTExQpUgRNmjTBb7/9hlu3bgl5Q0NDYWBgoLTm7MaNGyU/s2I9X79+jaVLlwqffevWrdlaB6Vy5cr4888/VW7/+PEjli9fjlatWsHJyQmmpqaws7NDnTp1MGXKFLx+/VrrY+3YsQNt2rSBg4MDzM3N4ebmhgEDBqgcyahOeno6tm7dCi8vL7i6usLKygoFChRA+fLlMWzYMNHNHRGRlEqVKgk/66tjfteuXQgODgaQOf35xo0bVU6dqMjDwwNTpkwR3k+dOlVyjTF9l5/V4MGDAQCRkZE4cOCAynxbtmwROtTk++hCdHQ0unbtiqSkJABA37598dNPP+msfCLKnYcPHwo/N2vWLMfleHh4wMDAQFhjEYBku1hqPd2bN29i9uzZ6NChA9zc3GBpaQkzMzM4OTmhdevWWLJkCT58+KD2+PK2ueIxXr9+jWnTpqFGjRqws7MTHX/v3r1Cu9bR0RFbt26FhYWF1p+5W7duGDhwoMZ8sbGxmD17NmrWrAlbW1tYWVmhUqVKmDhxIiIjIzXu//jxYyxcuBDdunVD2bJlUaBAAZiamsLBwQFNmzbFH3/8oXad5Zzep2WHfM1ie3t7GBkZqcwXHh4OIPPhLyLKOX32K3ytfQpXrlwRljUqUKAA/v3332yPvGzbti26dOmiMd+tW7cwbtw4uLu7o3DhwjAzM4OzszM6dOiADRs2aLVeudx///2HAQMGoEyZMrC2toalpSXc3NzQv39/nDhxQqsyihUrJvy9pKWlYeDAgUhJSRG2z5w5U+jv8vT0xKhRo1SWVbhwYa2O2bFjR2EWkxcvXvChKqLPFO8F9Hcv8Pr1a0yZMgV169aFvb298JlatmyJZcuW4ePHj1od5+PHj5g3bx7q1KmDggULwtraGpUqVcLPP/8stK2zIy4uDgsWLEDLli3h7OwMMzMzFC5cGLVq1cKkSZPw6tUrtfv7+PgI33VoaCgAYP/+/ejevTtcXFxgZmamtO1Lwmnhib5xx44dQ58+fRATE6OUfuvWLdy6dQtbt27FqVOnUKxYMcn9Z82ahRkzZiAjI0MpPTo6GtHR0Xj06BFOnTqFgIAA3L17V6d1v3nzJrp27YqwsDCdlqtJWFgYevfuLawtpejdu3c4d+4czp07hzlz5iA2NhYFCxbM8bH++ecf4Sambdu2On3S7+rVq+jRo4fowhoTE4OYmBhcu3YNixYtwrJly9QGTj5+/AgvLy8cPHhQKT00NBShoaHYtm0b/vrrL9jb22tVr7t378LLy0upwSb3+PFjPH78GOvWrcPo0aOxePFitR1yRPRtUwwelCxZUi/HWLJkifDzjz/+mK0AwIQJE7Bw4ULExsbi/v37OHbsGNq0aZOn5WfVpk0bFCtWDK9evYKvry+6desmmc/X1xdA5tpiFSpU0LpO6qSnp6NXr17CTVWNGjWwbt06nZRNRLqh2MH/9u3bbAVndGHmzJnCNLRZvXnzBm/evMHx48cxb9487Nu3D3Xr1tWq3OPHj6N3796ieyJFixYtEn7O7vlYWzdu3EC3bt1E9zcPHjzAgwcPsHnzZpw4cQJVqlSR3H/Tpk0qO+2ioqIQFRWFs2fPYv78+di2bRs6dOig88+gDfnfkbp2fFBQkNBZp2lUFBGpp69+ha+5T0HxnD948GC9XO9SUlIwatQo+Pr6ih6CjYiIQEREBA4dOoSFCxciICAApUqVUllWeHg4evXqJdlPJf8et27dih49emDTpk2wtLRUWzdvb2/s2bMH/v7+uH//PqZOnYp58+bh6tWr+OuvvwAANjY22LBhg9rZD7RlZGQES0tLJCYmAsj8m7Cxscl1uUSkW7wXyKTre4ENGzYIS/spkn+mkydPYv78+di7d6/akfLPnz9HmzZt8PTpU6V0+b3E+vXrsWvXLq3rtWvXLowYMUL0vXz69Anv37/HjRs3sHjxYqxatUqrh4g/ffqEnj17Ys+ePVrX4XPG4DrRN+zWrVv4+++/kZqaCh8fHzRu3BjW1tZ49OgR/vnnH7x58waPHz/GoEGDcOzYMdH+AQEBwjpI5ubm6Ny5Mxo3bowiRYogIyMDERERuHnzJo4fPy7ad82aNUhKSsLw4cMRFRWFIkWKKE0DJaeqwz46OhpdunRBeHg4WrVqhU6dOqFo0aJ48+aNViM6cur58+do0KCBcIzChQujd+/eqFWrFmxsbBATE4Pg4GAcPHgQL168EG6QHBwcsG/fPkRGRuL7778HADRv3hxjx44VHUOxs+zIkSPCz9pcpLR1+/ZtNG/eXLhxqVSpEry9veHm5oaYmBjs378fx44dQ1JSEoYMGQKZTKY0Ra+iPn36CDfBFhYWGDx4MOrVqwcAuHTpEnx9fTFx4kSVARpFN2/eRLNmzYQZE5o0aYIOHTrAxcUFGRkZuH37Nvz8/PD27VssX74cnz59wurVq3XxlWjln3/+wdy5cxEeHo6MjAzY29ujevXqaNeuHQYOHKjxBpWI8pbidaVly5Y6Lz82NhZXrlwR3mf3PG1paQkvLy+sXbsWQOYNnWLwW9/lSzE0NMTAgQMxe/ZsHD58GG/evIGjo6NSnuvXrwuj6XU5av3nn3/GyZMnAWSOUty7d2+2ngQnIv0rU6YM7ty5AwBYvHgxFi9enKNy5KOnp0yZgnv37gGAMEJQUdYHo5KSkmBkZIS6deuiUaNGKFeuHGxtbZGeno7Q0FAcOHAA58+fx+vXr9GuXTvcunVL45S8T58+Rc+ePZGQkIAePXqgZcuWKFSoEMLCwoQlL+Li4nDp0iVhH122y+XCw8PRvn17REVFoUePHmjVqhUKFy6M0NBQrFmzBk+fPsXbt2/Rq1cv3Lp1CyYmJqIykpKSYGBgAHd3dzRt2hQVKlQQRg2+fPkSJ06cwJEjRxAfH48ePXrgwoULqFmzplIZub1P04U7d+5gwIABwvuePXvq7VhE3wJ99Ct8zX0KMplMaZS3t7d39r8gDdLS0tC2bVth5kJnZ2f07t0b1apVg6WlJV6+fIm9e/fi3LlzuHfvHpo2bYqbN2+iSJEiorLCw8NRr149REREAMh8QLVr164oU6YMDA0N8ejRI2zatAnPnz/Hnj17kJiYiEOHDmkMiq9evRrnzp1DdHQ0FixYgLZt22L06NFCcG3RokU6e4D57du3wlTLlpaWkp+TiPIf7wUy6fJeYP369Rg6dKjwvlWrVujatSvs7OwQGhqKzZs34969ewgPD4eHhwcuXLiAatWqicqJjY1FixYthNmnihcvjsGDB6NixYpISEjAoUOHsH//fvTs2RPu7u4a67V27Vp8//33kMlkMDU1RZcuXdC0aVMULVoUHz58wLlz57Bt2zYkJyfDx8cHpqam6NOnj9oyx48fj8OHD8PFxQUDBgxAhQoVkJycjCtXrsDMzCyb31z+M5BpMz8kkQ4ZbArN7yrkOdkA1zw7lmLjWOrfOygoCM2bNxfeOzs749ixY6L1s968eYM6derg5cuXADI70rN2vHTs2BEHDx6EsbExLl++LNoul56ejkuXLkmup+fq6ooXL17AxcVFq+k/FD+fkZERNm7ciH79+qnMP2PGDPz+++8AgMDAQKUp47NS/G6mT58umuowIyMDtWrVEqa/6ty5MzZt2qRyZPqhQ4fQokULmJubC2mhoaHC1PADBw6En5+fyvokJibCxsZGmBUgPDxcWHcwNzIyMuDu7i7MJDB06FCsXLlStF7u+vXrMWzYMMhkMlhaWuLevXuiJxK3b9+Ovn37AsicEicwMFDU0fbgwQM0b94cb9++FdJ8fX1FU/skJSWhatWqeP78OSwtLbFjxw506tRJVP+4uDh069YNgYGBADKDRdoEzfz8/DBo0CAAmr97VfupU6RIEWzYsAEdO3bUqlxVPDw8cPr0aTRr1kxva0ST/nzYpflv5WtUwMs3z46l7jonk8kQHx+P4OBgrFixAv/++y+AzM6+q1evSj4Ao3he1vZaJHf48GG0b98eAODm5obnz59n9+MonWPq1aundMOm7/IB5Wtfv379sGXLFjx9+hRly5YFkLmG4s8//6y0zw8//IB//vkHlpaWePPmDaytrdG4cWOcP38eABASEpLtJ9i3bdsmXM+NjIxw9OhRrrNOObZypuopr79WI6dpN5ovt/766y9MmjRJeN+uXTsMGTIEzZs313rqV0Xydg8gfe+S1dWrV1GsWDE4OzurzLNlyxYMHDgQGRkZGDJkiOQMGIrnfgCwsrKCv7+/yvPOkSNH0K5dOwBA6dKlRaNBciprPaytrXHgwAE0bdpUKd+HDx/QpEkT4T5kz5496N69u6i8e/fuwczMDGXKlFF5zBMnTqBLly5ISkqCp6enymmCs3uflh1Zy/7w4QMOHDiAly9f4syZMzh8+LAQvOncuTP8/f11enz6vLT69WZ+VyHPHf+rRp4dSx/9Cl97n8KDBw+E5aUsLCwQHx8v+my5NWnSJGEE+LBhw7B06VKlviO5pUuXYty4cQD+r62uSCaToVGjRrh48SKMjIywcuVKDBs2TFROSkoKfHx8sGPHDgCZQRPFYI4qO3fuRO/evQEAJiYmSE1NBQC0b99eNNNAbij23XXv3v2rGdVI+eP9tP/yuwp5rtBM8blOH3gvoNt7gRcvXqBSpUrCA7Lr1q0TDWBIS0vD999/jw0bNgDIHJQXHBwMQ0PlFb+///574YHYJk2a4ODBg7C2tlbKs3v3bvTu3Rvp6elCmlT/ze3bt1GnTh18+vQJZcuWRUBAgOSDtQ8ePEDLli3x+vVrWFtbIzQ0VPR34OPjg40bNwrvu3btiu3bt0te8740XHOd6Bu3ZcsWUWAdyLypmTx5svD+8OHDojzyC0mNGjVUBtaBzE5yqcB6bo0ePVptYF3Xdu3aJXRo1ahRA7t27VI75Xv79u1zdaF48+aNcANsZmamk8A6ABw8eFC4Ca5WrRpWrVoleaM4ZMgQYZR9UlKS0tTEcvPnzxd+XrduneSFtmLFili/fr3Geq1bt04IHK1evVryJhgAChYsiF27dglThC1YsEBj2bllZGSExo0bY9KkSfD19cWuXbuwdu1ajBgxQmg0REVFoXPnzti+fbve60NEmbKux2VoaAhbW1s0a9YM//77L5ydnTF27FhcvHhRLzNLyB9AA4Dy5cvnqAzF82bWtar0Xb4qZcqUEdZPk0//LpecnCyc53r27Cm6WcuJmzdvKnXuzZs3j4F1os/U+PHj0bBhQ+H94cOH0bNnT9jZ2aFUqVLo2bMn5s+fjytXrmjVQZZdderUUduZBgD9+/cXAjXbt28XAgHq/PHHH2rPO4rnT3WB69xasmSJKLAOZK73O2fOHOG91L0ZkLkusqb6tWzZEj/99BMA4OTJk1pfG/Tp5cuX6NOnDyZOnIj//vtPCKw3bNgQO3fuzOfaEX3Z9NGv8LX3KSiuE+/i4qLzwHpkZKQw2rNly5ZYs2aNyr6jsWPHCte0HTt2iM7Z//33nzAV/IwZMyQD60Dm737jxo1CAEXbfpRevXrBy8sLAITraaFChXS6dNOjR48wd+5cAJn3d7/99pvOyiYi3eK9gG7vBZYuXSpMBT9y5EjJmQGNjY2xevVqVK1aFUDm0if//af8AElUVJQwiMza2hr//vuvZF9Nz5498eOPP2qs14wZM/Dp0yeYm5vj0KFDKmesqlixonDchIQEYdZEVYoVK4bNmzd/FYF1gMF1om9a9erVlUaxZ9WqVSvhZ6n10q2srAAAz549Q2xsrM7rp4nUlOr6tHnzZuHn33//Haampno9XnR0tPCzra2tzsrdu3ev8POECRPUrnX466+/CqNEFfcDMp/yu3kzc5RB+fLl1a7Z2KFDB41rJcqfYitWrJjQCFLFzs5OOF5QUJCwfpw+NG7cGKGhoTh79ixmz54NHx8f9OzZU3g6PzQ0FL169QKQ+ZTl4MGDRetkElH+MDExgbW1tV5u6gAorTuV0/O04n6K5/28KF8d+U3dw4cPldZu3LdvH96/f6+UJzfevXuHbt264ePHjwCAvn37CkEfIvr8mJub4+TJk/jf//4nemgpJCQEe/bswc8//4x69erBzc0NS5Ys0apDS9fk6wknJSXh9u3bavNaWFhoHL2nr3a5Int7e7VTDzdv3lwI8Ejdm2WH4nrLWWc0+ZxcuHABdevWxblz5/K7KkRfLH2cv772PoXsfmeOjo6ih34VX1nt3LkTycnJAICJEydqLF8+/XB6erqwhJKc/DObmZlp7CNTnLL34cOHWvdbZJ2db8KECXByctJqX01iY2PRpUsX4fsYN24catWqpZOyiUj3eC+gnz56AwMD0YyBioyNjZWuF1mvpwcPHsSnT58AZPapZF3aT9FPP/0kGvWuKDY2Vpg1qlu3bhofJmjVqpVwTTh69KjavIMHD0aBAgXU5vmScM11om9YgwYN1G5XfKJZ3pGuqHXr1rhx4wZiYmLQtGlT/Pzzz+jYsaPeOpwUOTs7o1SpUno/jqKzZ88CyGxIaFqzVhf0FQy6fPmy8HPr1q3V5nVxcUGFChXw4MEDhIWFISIiQrhgKq4DrM0IQ09PTzx48EByW3x8vDArgJOTEwICAjSWJ7/5TU5ORkhIiN7WfdTUiLC2tsbWrVvx9u1bBAUFITk5GXPnzsWKFSsk82ta10zu9OnTGvPmZOploq+J1JpcSUlJCA0NRUBAAC5fvow///wTW7duxYkTJ1C6dOl8qOWXqWfPnhgzZgzi4+OxYcMGoc0gn4qsdOnSkqMrsyMtLQ3fffedsCZYjRo1dDoKhoj0w9zcHPPnz8dvv/2G/fv34/jx47h06RJCQkKU8r148QLjx4/H9u3bcfDgQdjZ2enk+DKZDIcPH8bu3btx/fp1hIeHIyEhQRjtnNXLly/VdtTXqFFDYydPXqymV6dOHbWjI83MzGBvb483b95I3pspOnfuHLZv344rV67g+fPnSEhIUNmxqThLSn6Rr7cYHx+P0NBQXLhwAdu2bcOVK1dw584dNG/eHPv371cbeCMiafo4f7FPIXfOnDkj/Pz27Vvs379fbX7FEZP379+XLKto0aI4deqUxmMrXj/u37+vcc30qKgo/O9//1NKW7NmDcaOHZvrGaySk5PRvXt3PHr0CABQv359YQQ7EX2+eC+gG5GRkcLSS+XKlYOLi4va/IqxiKwPx2bneurk5IRKlSqpfFj3/PnzSjPeaLpGAZl94xEREaJrVFZNmjTRWNaXhMF1om+Yvb36tRnNzMyEn+VPkSr69ddfcfDgQdy5cwd37tyBt7c3DA0NUa1aNTRo0ADNmjVDu3bthKm2dElXU6RrKyEhAfHx8QAyAwr6HrUOQKnRocuZASIiIgBkXvjUPckmV65cOeEGVvFGWHGqNG2mxFGXJzw8XLhwX7t2Dd26ddNYniLF0Z35wcjICH/88YfwZOSBAwdUBteJSHe6du2qcttvv/0mrFEYGhqKrl274saNGzAxMdHZ8RXXksrpeVpxv6w3m/ouXx1LS0v06tULa9euxc6dO7FkyRK8e/dO6LTz8fHR+mEhVf73v/8Ja13a29tj3759sLCwyFWZRJR3ChUqhEGDBmHQoEEAMjvsr127hsDAQGzdulUYEXf58mX07dtX40gGbbx58wY9e/bE+fPntd5H3oZXRZv7Cn21yxVpujcD/u/+TOreDMhcm71///7ZWqNc0/ejybt379SOLLe3t1caKa+KmZkZihQpgiJFiqBOnToYN24cVq1ahZEjRyItLQ2DBw/GixcvvpppJInyij7OX197n0J2vzM/Pz/ReVnd8eXBFAAYMGCA9pWEcj0TExPx7t07AEBYWJhe+lFGjBiBqKgoAICDgwMiIyMRFhaGCRMmCGv75sSnT5/Qo0cP4V7A3d0dhw4dypO+NiLSDd4L5I78WgpkXic1cXBwQMGCBREXF6e0L5Cz66mq4LriNcrPz0+Y9l0bmq4reR3P0TcG14m+YeqmANFGwYIFcfHiRcyfPx9r167F69evkZGRgVu3buHWrVtYuXIlzM3NMWTIEPz5559q1yfPrrzufFe8EOfV9CWOjo4wNDRERkYGUlJS8PLlS51chBISEgD837T+mih+Xvm+QGbnnZw2axmrO15uGybyqW/yU4MGDWBubo7k5GSEhYUhKSlJ8nuRGmmraMqUKbh37x4qV66MP/74Q21eBweHXNWZ6Gs3duxY7N27F6dPn8bdu3exe/duYSpEXVA8J8tHXGTXw4cPhZ+LFSuWp+VrMnjwYKxduxYJCQnYvXs3QkJCkJGRAUNDQ/j4+OSoPnKbN28W1t00MjLCjh07ND6pTUSft0KFCqFVq1Zo1aoVfv/9d4wfPx7//PMPAODYsWM4f/48GjVqlOPy09LS0LZtWwQHBwvH69SpE6pWrQpHR0dYWFgIUxOfOnUKy5YtA5A5ja462txXKJ4/nz59mtOPoFZu782AzLVxDx06BCCz7d2hQwfUqFEDzs7OsLS0VJpWfurUqQA0fz+a3L17V21Ap1mzZggKCspR2SNGjMDFixexadMmREZG4ujRo+jSpUsOa0r0bdJHv8LX3qeguJ5vWFgY0tLS1M4s0rZt22wdKzd1VaynvvtRtm3bJkw9XKFCBZw8eRK1atXCmzdvsHbtWnh5eSktJ5md4/bs2VO4XlWtWhUnTpxAoUKFsv8hiOizwXuB7FG8HmbnehoXF6d0/QQ+n+uppiUAvrbBFAyuE1GuWFlZYcaMGZg+fTru3LmD8+fP48KFCzh58iQiIiKQnJyMFStW4PTp07h06ZLWF4v8oO5iqzj6PusFTF8KFCiAGjVq4Pr16wAyp2WRr+2dG9bW1oiNjUViYqJW+RU/r+K0X4o3yElJSRrLUXc8xbK6d++OPXv2aFW3z4mhoSEKFy4sPC0YGxsr2aBRN9IWABYvXgwgc5SPprxEpFnbtm1x+vRpAMDx48d1Glxv0KCB0FkZEhKiNBJHW4rrmWcd2afv8jWpX78+KlWqhPv372P9+vXCk+etWrXKVafs9evXMXz4cOH9vHnztJoKlIi+HCYmJliyZAmCgoKE6QGPHz+eqw61nTt3Cp1pnp6e2Ldvn8opaRWn0NWFhg0bwsjICOnp6Xj27Bnevn2LokWL6vQYuXX+/HmlQMWxY8dUjijV5Swu+talSxds2rQJQOYDYwyuE2WPPvoVvvY+hQoVKsDe3h7v3r1DUlISgoODdboOuGJd4+Pjczy9umI5NWvWFH7HuhAREYExY8YAyHwQduPGjXB2dsbq1auF8/DQoUNx9+7dbNX/06dP8PLywn///QcAqFKlCk6ePKnV7C1E9OXgvYBminXP7vU068A/fV1Ply5dKlwLSCz3j0YTESFzHelq1aph5MiR2Lx5M169eoVjx46hRIkSADJHNKxatSrP66U4tb2mp3Ll02lJsba2FkbeP3v2LM9GSiuup7Jx40adlCkPzCQkJODt27ca8z9+/Fj4WfEJ7uw+tacuj2JZ4eHhGsv6HGVkZCitX2Zra5t/lSEigeL0Xbq+wbK1tUXdunWF9/LOf219/PgR//77r/A+65qV+i5fG/Ip3s6cOSNMDzZ48OBslyMXFRWFbt26CVNn9u3bFz/99FOOyyOiz5exsTE8PDyE91mnL8yuY8eOCT8vXrxYbWd+1jUfc6tgwYKoV6+e8F5X7XJdUvx+Zs+erXaqZl1+Px4eHpDJZCpfOR21LqfYwZfb5UiIvlW67lf42vsUDAwMlEZkb9myJVflZaX4kGpu6lqwYEHhHPny5ctc10vRsGHDhOl9J06cKNyTdO7cGf379wcAYXp4bckD6wEBAQCASpUq4eTJkyhSpIhO605EnwfeC6inOHDiyZMnGvNHRkYiLi4OgPK1FNDt9VRX16hvAYPrRKQX8puRpUuXCmlnz54V5ZNPfyiTyfRSD8VppTQFVS5cuKB2e5MmTQBkrnGY03ViFKd71OYzjxo1SnhA4MiRI9laU0YVxcaAYsNESlhYmDClcMmSJZU66RQDPvI1eNU5efKkym329vaoXLkyAODGjRta3aB/bi5duoSPHz8CyGyIaDMNDxHpn+KDU/qYPWXs2LHCz4sWLdJq7UK5hQsXClNuVapUSXJaRX2Xr4m3t7fSNJiFCxfO8ajBtLQ0eHl5CTdoNWrUwLp163JUFhF9GRRHSEstrZSdtvGbN2+EnzWtJXjkyBFtq6i1H3/8Ufh58eLFiI6O1vkxciM738/hw4c1lqfv+zRtyWdNAbRbl56IxHTdr/At9CkonvMVZ3DShWbNmgk/a3M+1qasyMhInY1c9/X1xcGDBwEAlStXxu+//660fenSpUJQaO3atTh+/LjGMrMG1itWrIhTp05xqTuirxzvBVRzcHCAq6srgMxlAF+8eKE2v2IsQvE6DGTvehoREYEHDx6o3N6kSRPhgVZ9fI9fEwbXiUiv3NzchJ/T0tJE2+UXVm2nP8ku+c0VAJw4cUJlvnfv3mHz5s1qyxowYIDw87Rp03I0el2xIaHNZy5WrBhGjx4NILOR0bdvX40XW0UPHjzA5MmTldJ69Ogh/LxgwQK10+HPnTtXaNwo7gcALi4uqFmzJoDMKRrV3RQePnxY7YUbAAYOHAggc3r+adOmqc37ucnIyFCqc8eOHfOxNkSkSD5FLpAZYNa17777Du7u7gCAt2/fYtCgQRrXmQIyHzibOXOm8H7WrFmSI/L0Xb4mRYsWxahRo1CvXj3Uq1cPP/30k9KsMNnx008/CVP029vbY9++fV/dmltEX7vsBCtSU1OV2odVq1YV5clO21jxASl1oy127tyJe/fuaV1PbfXo0QN16tQBkNkp1b9/f2EWDm34+/vrdcS7tt/PxYsXtQrm6Ps+Dcj8Hq9evao2jzzAAwC1a9fWW12Ivma67lf4FvoU6tSpg+7duwPIHKHfq1cvYcRgbvXu3VtoTy9cuFDtLIqayD8zAEyZMiXXD0SFh4cLASRjY2Ns3LgRpqamSnkKFSqE1atXC++HDh2qtHZwVqmpqfjuu++UAuuBgYGf3fIqRKQZ7wV0ey8gvy7KZDLMnz9f5b5paWn4+++/RfvJtW/fXjhXb9u2Te3vafHixWqv2w4ODmjXrh0A4M6dO9i+fbvKvN86BteJKMeGDRuG27dvq82zcuVK4efq1auLtsuD79HR0Tp9Eliubt26KFy4MADg33//VVp7Vi4uLg49e/ZUmtJbSo8ePYQbv1u3bsHLy0vtzdXRo0dFF9nChQsL08vfunVLqxufOXPmCGvShIWFoX79+tizZ4/afWNiYjBlyhTUqVNH1KBo37690KAJDg7GyJEjJR988PPzE6byt7S0xLhx40R5/ve//wk/DxkyRGm6N7nHjx9jyJAhGj/nDz/8IDyxt2bNGvzyyy9qA0ifPn3Cv//+ixUrVmgsO6cuXryINWvWqG0sJSYmYsCAAcJT9GZmZvjll1/0Vici0t7ChQtx7tw5AJlPRPfu3VvnxzAyMsK///4rTEkWEBCAjh07quywlMlk2LhxI9q1ayc8pDVixAih8y6vy9fGkiVLcOnSJVy6dEn0wJa2Nm7ciGXLlgHI/Ew7d+6Ei4tLjutERPmjdu3a8PHxkWxTK/rw4QMGDRoktA0LFiyIzp07i/IpPoh748YNtWXKO7MAYPLkyZKdQoGBgRg+fLjacnLKwMAAu3btEkZPHzlyBB4eHhpHCj569Aj9+vVD165dNd5v5Ibi9/P7779Ltl9v376Nnj17anUPou/7NCCzPd+5c2eVM4jt3LkT+/fvB5AZjJHqlCUi7eiyX+Fb6VNYv349ypYtCyBzprr69eurHT0vJ7//UKV48eLC7FSvX79GmzZt8Pz5c7X7BAcH4/vvvxel9+zZUxjBeOTIEQwYMEBpjfus0tPTceTIEfzxxx+S24cMGSL0c02aNEnlWvOdOnWCt7c3APXTw8sD6/7+/gD+b8Q6A+tEXybeC+j2XmDMmDHCzKcrV66En5+faP+0tDSMGjVKiMFUqVJFNKirSJEi8PHxAQDEx8ejd+/ekteCffv2YeHChRo/659//ikE64cOHaoxwB4TE4OFCxeqHdj4NTLWnIWISNq6deuwbt06VKhQAS1atECVKlVgZ2eH5ORkhIWFYdeuXcKJv1ChQhg5cqSojJYtWwpPr3br1g0jRoxAsWLFhGlhypQpo3GqF3XMzMwwfvx4TJs2DWlpafD09MSwYcNQv359yGQy3Lp1C35+foiKikK/fv2wdetWlWUZGhpi165dqF+/PqKiohAQEIBSpUqhd+/eqFWrFmxsbPD+/XvcvXsXBw8exLNnz/D+/XuYm5srlePp6Ym9e/fi2bNn+O6779C9e3fY2toKIwoVHwgAMqfQCQgIQK9evXDixAm8efMGPXv2RNmyZdG2bVtUqlQJdnZ2SExMxOvXr3H27FkEBQWpDAgbGhpiy5YtaNiwIRITE7F27VpcvHgR3t7ecHV1RUxMDPz9/ZWmflm6dKlkEKRPnz7YsWMHAgICEBERgRo1amDw4MHCzd2lS5fg6+uLpKQkdOvWDfv27VP5/VpaWiIgIABNmzZFbGws5s2bhy1btqBnz55wd3eHjY0NkpKSEB4ejhs3buDEiROIj4/X6iY7p96+fYvvv/8eEyZMQKtWrVCrVi2UKFECVlZWiIuLw40bN7Bjxw5hKiADAwOsW7dOuKEnIv2Sd7gr+vjxI0JDQ+Hv74/Lly8L6RMmTECVKlXUlhcbG4spU6ZodexKlSqhb9++AIBy5crh6NGj6Ny5M969e4djx46hQoUKaN++PZo2bQpHR0ckJSXhyZMn2L9/v9KoGx8fH6UlVKTou3x9u379OkaMGCG8b9u2LeLj4yV/f+qULFlSeMiNiPJHamoqNm7ciI0bN8LFxQXNmjVD9erV4eDgADMzM0RHR+PmzZvYu3cvoqKiAGS2j5YuXarUvpVr2bKlcI4aMmQIxo0bBzc3NxgZGQHIHG0pD+AMGTIEc+bMQUJCAgICAuDu7o4BAwbAxcUF79+/x9GjR+Hv7w9DQ0P0799f52vkApmjLE+ePIkuXbogNDQUly9fRu3atdGgQQN4enrC1dUVNjY2iI2NRWhoKE6cOIFr164hIyND53XJqnv37ihZsiTCwsJw7do1lC9fHkOHDkWZMmWQlJSE06dPY8eOHUhNTcXAgQM1jqLX932a3Js3b9C0aVO0b98erVu3RtGiRREdHS38PoHMv6F58+ZxzXWiXNBlv8K30qdga2uLEydOoFu3brhx4wYePnyIli1bonLlyvD09ESFChVQuHBhGBgY4P3793j06BFOnDiBO3fuCGUoroOraPbs2QgODsaxY8dw48YNVKhQAZ07d0aTJk3g5OSEjIwMvHv3Dnfv3kVgYCAeP34MIyMjpRHjQOb5cc+ePWjQoAHCw8OxZcsWHDx4EF5eXqhVqxYKFy6M5ORkvH79GsHBwTh+/DiioqLg6ekpuu9ZtWqVMMW7u7s7pk6dqvK7BjIfwD1x4gQiIiKwdu1aeHl5iZahGjRokNDmNzMzw9ixY3Hp0iW15QJA48aNuRQI0WeI9wK6vRdwcXHB0qVLMXToUGRkZGDQoEHYsWMHunTpAjs7O7x48QKbNm3C3bt3AWSO3t+6davSdPpyc+fOxZEjRxAWFoagoCBUqlQJQ4YMQYUKFZCQkIDDhw9j7969KFSoENzd3REUFKTyc1avXh2rV6/GkCFDkJSUhL59+2LevHno1KkTypYtCwsLC8TFxeHp06e4cuUKzpw5g7S0NI2zAn9tDGT5vYAWfXMMNoXmdxXynGyAa54dS7HDQerfOygoCM2bNwcATJ8+HTNmzNCqvGbNmolOutp2bpQsWRJ79uyRnMYvMTERtWvXFtbgyiprHdXVR5XU1FT06NED//33n+R2IyMj/Pnnn6hXr55W301ISAi+++47XLt2TeOxY2NjhZHqcrdv30aDBg2QlJQkuU9gYCA8PDxE6enp6fj7778xf/58rdZ1MTIyQp8+fTBr1izJYO/Vq1fRvXt3vHz5UmUZlpaWWLp0qdoA9sePH9GzZ0+lqZez1mPu3Lmws7PDoEGDAGSu4SV/oi6rZ8+eoV+/fkpBMVUMDAwwdepU0RpgUvz8/ITjDxw4UPJpwKz279+Pbt26acwHAI6Ojli3bh06dOigVX5VPDw8cPr06Wz9jdPn48OuQfldhXxRwMs3z46V3Y51ExMTTJ48GdOmTZPcNzQ0VOlpaW116dJFFBwOCQnB+PHjhWCEOg4ODpgxY4bkg2eq6KN8xXZBv379cnwD2rhxY2H9zpCQEKXrzowZM7Q6T2ui7bmbaOXMnE+v+qUaOS1vOqDbtGmD48ePaz3trKOjI5YtW4aePXtKbk9PT4enp6ewZERWWf/vDx8+jJ49e6psR1taWmLVqlVIT09X2+5UPPfn5NwSHR2N3377DX5+flotFWVtbY3x48dj4sSJwkwkOamHq6srXrx4ARcXF4SGhoq2X79+HW3btlU5xXB27nuye5+WHfLPYW5uDgMDA3z8+FFlXjMzMyxfvhxDhw7N0bHo89fq15v5XYU8d/yvGvl2bF32K3wrfQrJycmYNWsWli9fjvj4eI1lApnXv1GjRmHChAnCqMSsUlNTMWnSJCxZskRy5H9Wqs79QOaa6z4+Plqv4Z71mhMSEoJq1arhw4cPMDExwdWrV4WlqdQ5cOAAOnXqBCCz7+/u3btK1zn5+T67VPWLEWnj/TTp/t+vWaGZnfLkOLwXyKSrewG59evXY+zYsSo/F5A568nevXuVRvBn9ezZM7Rt21bltPmFCxfGrl27sGnTJuFB26z9N4qOHj2KwYMH4/Xr12o+XSYzMzPs378fbdu2VUr38fHR6lhfIo5cpzyXl4Fm0q9Xr17h6NGjOHfuHG7fvo2QkBDExcXByMgIRYoUQbVq1dClSxd4e3urXFPVysoKly5dwsKFC3Ho0CE8efIECQkJOh3dYWJigv3792PTpk3w8/PD7du3kZiYCCcnJzRr1gxjxoxB7dq1tQ5kurm54cqVK/D398euXbtw8eJFvH37FqmpqShUqBDKly+PZs2aoW/fvqLAOgBUq1YNN2/exMKFC3HmzBmEhYUhKSlJY8PEyMgIv/zyC3744Qfs3bsXJ0+exLVr1xAZGYnY2FhYWlqiSJEicHd3R9OmTdGrVy84OjqqLK9OnTp4/Pgx1q1bB39/f9y9excxMTEoUKAASpUqhTZt2uCHH36As7Oz2npZWFjg4MGD2L59OzZs2ICbN2/iw4cPcHR0RJMmTTB69GjUq1dP64ZK6dKlcenSJRw7dgy7du3ChQsX8Pr1ayQkJMDS0hLFihVDpUqV0KxZM3Tq1ClHQTFttWzZUhj9euXKFYSHhyM6Olr4vh0cHFCzZk106NAB3333nWiWAvr25GWQmaSZmZnB1tYWFStWRLNmzeDj45NnjXc3Nzf4+/vj+vXrwnk6PDwc7969g7m5ORwcHFC9enW0a9cO3333ndL6Yp9D+URfi7wKNH+Ljh49itevX+PYsWM4f/487t69i5CQEMTGxiI9PR0FChRAsWLFUK1aNbRv3x7dunVTWh8xKyMjIxw9ehTLly/Hvn378ODBA8THx6sMMrRr1w7BwcGYP38+jh8/jlevXsHCwgLFihVD27ZtMWLECJQtW1bvD+LY2dlh9erVmDJlCvbs2YNTp07h/v37iI6OxocPH2BjY4NixYqhVq1aaNWqFbp27aoyuKJLtWrVwu3bt7FgwQIcOHAAL168gLGxMZydndG8eXMMHz4cNWvW1Oq+Jy/u04oWLYojR45gyZIlOH36NMLCwpCcnIyCBQuibNmyaNGiBUaMGIGSJUvq7Jj0+cnPQPO3SJf9Ct9Kn4K5uTn+/PNP/Pzzz9izZw8CAwNx48YNREVFITY2Vrj/KF26NGrXro2WLVuiVatWwshLVUxMTPD3339jzJgx2LBhAwIDA/HkyRPExMTA0NAQdnZ2KFeuHOrVq4c2bdqgadOmKstycHDAoUOHcOnSJWzduhXnzp1DeHg4YmNjYW5uDkdHR1SsWBGNGzdGx44dUblyZWFfmUyGQYMGCVMIT5kyRavAOgB07NgRAwYMwKZNm4Tp4desWaPVvkT6kleB5m8R7wUy6fpeYMiQIWjXrh3++ecfHD16FM+fP0dCQgIKFy6MypUro0uXLhg2bJjK+Ipc6dKlcfv2bSxbtgw7d+7EkydPkJGRgRIlSqBjx44YO3YsSpQogU2bNmn1OeXLlmzbtg2HDh3C9evXERUVheTkZFhbW8PV1RXu7u5o0aIFOnXqBFtb2+x8jV88jlwnIiIiIiIiIqI8oWkEPhERERER0edMPDk/ERERERERERERERERERERKWFwnYiIiIiIiIiIiIiIiIiISAMG14mIiIiIiIiIiIiIiIiIiDRgcJ2IiIiIiIiIiIiIiIiIiEgDBteJiIiIiIiIiIiIiIiIiIg0MJDJZLL8rgQREREREREREREREREREdHnjCPXiYiIiIiIiIiIiIiIiIiINGBwnYiIiIiIiIiIiIiIiIiISAMG14mIiIiIiIiIiIiIiIiIiDRgcJ2IiIiIiIiIiIiIiIiIiEgDBteJiIiIiIiIiIiIiIiIiIg0YHCdiIiIiIiIiIiIiIiIiIhIAwbXiYiIiIiIiIiIiIiIiIiINGBwnYiIiIiIiIiIiIiIiIiISAMG14mIiIiIiIiIiIiIiIiIiDRgcJ2IiIiIiIiIiIiIiIiIiEgDBteJiIiIiIiIiIiIiIiIiIg0YHCdiIiIiIiIiIiIiIiIiIhIAwbXiYiIiIiIiIiIiIiIiIiINGBwnYiIiIiIiIiIiIiIiIiISAMG14mIiIiIiIiIiIiIiIiIiDRgcJ2IiIiIiIiIiIiIiIiIiEgDBteJiIiIiIiIiIiIiIiIiIg0YHCdiIiIiIiIiIiIiIiIiIhIAwbXiYiIiIiIiIiIiIiIiIiINGBwnYiIiIiIiIiIiIiIiIiISAMG14mIiIiIiIiIiIiIiIiIiDRgcJ2IiIiIiIiIiIiIiIiIiEgDBteJiIiIiIiIiIiIiIiIiIg0YHCdiIiIiIiIiIiIiIiIiIhIAwbXiYiIiIiIiIiIiIiIiIiINGBwnYiIiIiIiIiIiIiIiIiISAMG14mIiIiIiIiIiIiIiIiIiDRgcJ2IiIiIiIiIiIiIiIiIiEgDBteJiIiIiIiIiIiIiIiIiIg0YHCdiIiIiIiIiIhyJDQ0FAYGBqJXUFBQfleNiD4TM2bMEJ0jXF1d87tanyWeU/kdEBHR5884vytARERE9LWY1+1QflchX/y8r32+Hv/jx48ICAhAUFAQLl++jLdv3yImJgaGhoaws7ODk5MTGjZsiObNm6N9+/YwNs7bJvCMGTNEaV27dkX16tXztB6q3L9/H0ePHsWFCxdw7949xMTE4P379zAwMECBAgXg4OCAsmXLolq1amjSpAkaN24MS0vL/K52tmVkZKBJkya4cOGCUrqRkRHOnz+PevXqqdxXJpPB09MTgYGBSukGBgY4duwYWrZsqZc6U84MrxCoOdNXZs3D5vl6fJ6Hc+fatWs4fvw4zp49i6dPnyImJgZxcXEwNzeHvb09KlSogLp166JNmzZo0KABDAwM8rvKRDqz2aBAflchz3nLPuTJcdLS0mBra4vExESl9EmTJmH27NmS+8TGxsLOzg4ZGRlK6Z06dUJAQIDKY5UsWRLh4eFKaWPHjsWSJUtyWHvKDV5X6Fv2Lf49y2Sy/K6CTvsVgoKC0Ly55vsbY2Nj2NjYwMnJCTVq1ECHDh3QtWtXmJubK+VzdXXFixcvdPI5AWDgwIHw8/PTmO/Vq1eoUqUKYmNjc1wGfb4YXCciIiKiL1Jqair+/vtvLFq0CFFRUZJ5kpKSEB4ejitXrmDx4sVwcXHBpEmTMHz48Dy76f79999Faa6urvke1AkMDMSff/6JkydPqsyTkpKC6OhoPHjwQOhQLVCgAHr37o21a9fmVVV1wtDQEJs2bYK7u7tSJ3N6ejoGDhyImzdvwsLCQnLfpUuXigLrAPDDDz8wsE7fNJ6Hc+fIkSOYNWuW6KEfuQ8fPuDDhw8IDQ3FkSNHMHPmTJQpUwZr166Fh4dH3laWiL44xsbGqF+/vqitd+bMGZX7nDt3ThRYB4Dz589DJpNJnrdDQkJEgXUAaNKkSQ5qTbnB6woR5bX87FdIS0tDTEwMYmJicO/ePWzZsgWOjo5YsWIFunfvnuNydWXYsGGSgXX6OnBaeCIiIiL64rx69QrNmjXDb7/9pjKgI+XFixcYMWIEunbt+s3e5KSkpGD8+PHw9PRUewOsyocPH7Br1y491Ez/SpcujQULFojSHz16hJ9//llyn4cPH2LSpEmi9PLly2PevHk6ryPRl4Ln4ZxLSUnB6NGj0a5dO5UBEFWePn2KW7du6adiRPTVadq0qSjt6tWrSE5Olsx/9uxZyXR54CI7+ygG152dnVGrVi2lV7Vq1TRVn7TE6woR5bXPtV/hzZs36NGjB1atWqXzsrNj3bp1OHz4cL7WgfSLI9eJiIiI6Ivy/v17NG/eHE+ePJHcbmlpiZIlSyI9PR1hYWFISUkR5QkICEDHjh1x6tQpmJqa6rvKn4309HR4eXnhv//+U5nHxMQExYoVQ8GCBfHhwwdERUUhPj4+D2upX99//z38/f1FN7orVqxAly5dlEaip6WlYcCAAfj48aNSXmNjY2zatEnlSHeirx3PwzmXnp6OHj164ODBgyrz2NjYwNnZGQYGBoiKisK7d+/ysIZE9DWRGj3+6dMnXL58Gc2aNRNtUxUol2+rUqWKKF1qJHzZsmVRtGhR4f3w4cMxfPhwbatN2cDrChHltfzqV3BycoKzszOAzGXfwsPDVZ7Pxo0bhxYtWqBcuXKoVq0a7O3tJfO9fv0aERERovRy5crB2tpach83Nze19QwLC8OECRPU5qEvH0euExEREdEXpU+fPpIBHWdnZ2zfvh0xMTF48OABHj9+jHfv3uGff/5BwYIFRfnPnz+PcePG5UWVPxs//vijyhvgFi1a4NChQ4iLi0NISAhu3bqFp0+fCu+3bt2KXr16wcrKKo9rrXvr169H4cKFldJkMhkGDRqEuLg4IW3OnDm4evWqaP/ffvsNdevW1Xs9iT5XPA/n3I8//qgyANKjRw9cvnwZ79+/x4MHD3D//n1ERUUhLCwMa9asQe3atfO4tkT0patfv77kA0xSQfSPHz/i+vXrKstSFXiXSueU8HmH1xUiymv51a8wfPhwXLt2DdeuXcONGzcQFRWF8+fPo1SpUqK8nz59wtKlSwFkPtQr3y/rS9WDX6tXr1a5z/Tp01XWUSaTYciQIUoPEnxLDxJ/SxhcJyIiIqIvxtGjR3H06FFRupOTE86fP4/evXvDzMxMSC9QoABGjhyJkydPSt68rV27Fg8fPlR5PJlMhsOHD2P06NGoXbs2HB0dYWZmhoIFC6J8+fLw9PTEpEmTcO7cOaX9fHx8YGBgoHI94UGDBgnb5S9XV1fJvMnJyfDz80Pfvn1Rvnx5FCpUCCYmJrC3t0fVqlUxdOhQ+Pv7S66Pqej27dtYsWKF5LZ58+bh5MmTaNeuneRobFdXV/Tt2xc7duzAy5cvMWfOHLXHAjLXYt6+fTt8fHxQqVIl2NnZwcTEBEWKFEHNmjXx448/qu3A1WeZTk5OWLlypSj95cuXGD16NADgxo0bmDVrlihPrVq1MHXq1GzVm+hrwvOwfs7D//zzD3bv3o26devC0FC5q6ZEiRIYNmwYrl69Cn9/f5X11GVdFe3duxcdOnSAo6MjzM3N4eLigj59+uD06dNalyFFV+f0GTNmqPxdJicnY9GiRWjcuDEcHBxgaGio9vsj+tpYWFhIBlClRptfvnwZnz59Et67uLgobZcKor99+xaPHz8WpWcNrqv7P1UUFBQkyqftKygoSCjn48ePOH36NBYtWgRvb2/Uq1cPZcuWhb29PUxMTGBtbY3ixYsL1xBVU95r+xmyc67R5TmV1xVlvK4Q6V9e9yto0rBhQ2zatEly24kTJ3JdfnatWrVK6bht27ZFgwYN8rwepH+cFp6IiIiIvhiq1rhevHix2k4NeUD0119/VUpPT0/H/PnzsX79etE+QUFB+P777yU7DD99+oT4+Hg8fvwYp06dwl9//QWZTJa9D6OFHTt2YNy4cYiMjBRti46ORnR0NO7evYv169ejXLly8PX1RcOGDSXLmjlzpmSn1w8//ICJEydqXSdbW1uMHDlSbZ4DBw5g5MiRePnypWjbu3fv8O7dO9y8eROLFy9Gz549sW7dOslRrfos87vvvoO/vz+2bdumlL5lyxa0a9cOs2fPRmpqqtI2c3NzbN68GcbGvI2ibxfPw/9HV+fhsWPHajyvynXu3DlP6gpkBqd69+6NgIAApfSwsDCEhYVhx44dGDVqVI6mvdTHdSKrJ0+eoGPHjpJ/P0TfkiZNmojW4b548SLS09NhZGQkpGUNng8YMABr1qzB27dvAWQ+hBgaGqp0rtdmvfX8cPLkSXTq1Enl9g8fPuDDhw949eqVcA3x9vbGihUrVE4DrIq25xp9nFN5Xfk/vK4Q5Y287FfQVsOGDWFlZYXExESldKnzgT49f/5c6TuwtbXFunXr0K9fvzytB+UNjlwnIiIioi/Chw8fJDvwihUrhp49e2rc//vvv4e5ubko/ciRI6K0FStWwNPTM187TqZOnYo+ffpIdmZJefz4MZo1a4adO3eKtqWkpIjWGAcy10WeMWNGbquqZP78+ejUqZPWN7LyETXq1n7UR5lA5u+5WLFiovT+/ftLjmCaM2cOKlasqFUdiL5GPA+rp+k8LPU5LSwsMG3atM+qrkDmjAE9evQQBUCy+ueffzB27Nhs1VVf53RFHz58QJs2bRgAIQLQtGlTUdqHDx9w48YNpbSs5/emTZuKguRZ80iNgHdyckLp0qVzWt18s3nzZnh5eWVrBLa25xp9nFN5Xfk/vK4Q5Y287Ff40siXmVMM8C9btkyyv4G+DgyuExEREdEX4fz586KRxADg6ekpmupQiq2treS0mK9fv1ZaO/jgwYMYM2aMyo61YsWKoVq1anBxcVE53bCbmxtq1aqFWrVqSW53dXUVtstf1apVE7Zv374df/zxh+S+RYoUQdWqVWFjYyPalpaWhoEDByI4OFgp/fz580hKShLl9/T0hL29veRxcsLf3x+//PKL5DZHR0dUrlxZcoTI48ePVQbm9FGmnK2tLXx9fUW/R6nRry1atPjm1oYmyorn4Uw5OQ9fuHBBNJoGAFq2bAk7OzvJ42hL13UFgDVr1kh2ngIQpgIuUKAAAKhc61eKPs/piqKjoxESEgIAMDQ0RNmyZVGhQgVYWlpqXQbR16JRo0aS52jFwHh6ejouXrwovDc2NkaDBg1yFFzPzah1a2tr0bk560vV9Ubd+r2FCxdG+fLlUaNGDVSuXBmFCxeWzHf06FHs2bNH6/pqe67RxzmV15VMvK4Q5Z286lfIrvPnz0ueD4sXL55ndVi6dKnSNbFbt27o379/nh2f8h6D60RERET0RVA1EqFSpUpal1G5cmW1ZaelpWH8+PGSwdXOnTvj4cOHePnyJYKDgxEaGoqoqCisXLlSNBXy9OnTce3aNVy7dk3yeIrb5S/5KI6UlBTJDiJzc3Ps2LEDb9++xe3bt/Hu3TvJTi+p/cPCwiTrUadOHcn0Fy9eoHbt2mpf33//vdI+qamp+Omnn0TfXb169RAcHIyIiAjcvXsXMTEx8PX1hYmJiVK+06dPY9++fXovM6tWrVph1KhRavMULFhQMghP9K3heTjn5+EXL15I1kPVeVhb+qhrRkYG/vrrL1FeIyMjrF+/HpGRkUKZ2Zn+My/O6Vl5eXnh5cuXePz4MR48eID3799jw4YN2SqD6EtXsGBBpYeH5BQD5Tdv3sSHDx+E9zVq1ICVlZVo1LviPnFxcbhz546o3NwE12vVqiU6Nyu+2rdvL/ng1eTJk5XOpwULFsQPP/yAw4cP4/3794iOjsbDhw9x48YN3L17F9HR0QgODoa7u7uorJycI9Sda/R1TuV1hdcVoryWF/0K2XXhwgUMHDhQclvLli1zVba2njx5gkmTJgnvixQpglWrVuXJsSn/cLFAIiIiIvoiREdHS6bb2tpqXUahQoUk0+VTAp48eRJPnz4Vbe/cuTP2798vCq7a2dlhxIgRGDRokNZ10OT48eMIDw8Xpc+aNQu9evUS3puYmGDy5Ml48OABtm7dqpT36NGjePXqlTAFWVRUlOSxihQpIpn+8eNHXL9+XW095SNL5E6ePInnz5+L8hw+fFjpezc0NISPjw/u3LmDhQsXKuVfvXo1unXrptcypcybNw8BAQGS3zsA/PXXXyhZsqTaMoi+BTwP5915OD/reunSJYSGhorKHD9+PAYPHiy8NzMzw7x583D9+nWcOnVKY13z6pwu5+HhgR07diiNcjU1NUWLFi202p/oa9K0aVPcunVLKe3cuXOQyWQwMDAQjUiXB8irVasGW1tbxMbGAgAePnyIqKgoFClSBOfOnZMMdDdu3Fgvn2Hp0qWYNWuWKH3EiBGiIG+TJk00BvmrVauG6dOno3v37krpWden10TTuUZf51ReV3hdIcpredGvoM6aNWtw4MABAJkP7bx8+VJlnUxNTbO9xEROZGRkwMfHBx8/fhTSVq5cCQcHB70fm/IXg+tERERERP/f8ePHJdPnzp2rdtSymZmZzuog1ZFkYGCAIUOGSOYfOnSoqENLXo63t7fO6qXJiRMnJNNbtWolmS61xuGZM2eQlpYGY2NjvZUpJTg4GK9fv1a5/ciRIxgxYoTK7USkOzwPZ48+6qo4NbQiHx8flenaBEHy6pwuN3nyZK2WKyD6FjRt2hRLly5VSouOjsb9+/dRuXJllcF1Q0NDNGrUSGma7nPnzqFbt26ifQDVo+Rza8uWLRg/frwo/bvvvsOKFStU7nf27Fns378f169fx9OnTxEXF4ekpCS166rHx8cjISEB1tbWWtVN07lGX+dUfeF1RTVeV4jyV0REBCIiIrTKu2TJEpQrV07PNQIWLFig9FBWnz590KNHD70fl/Ifg+tERERE9EVQtXagfCSNNt6/fy+ZLl8fTGp6RScnJ1SoUEHrY+SW1FRrJUuWVDnaU2o6SwBKI05UPUku1cGUU1Lf3YcPHzQ+qa7o48ePiIyMhLOzs97KzCopKQkDBgxAenq6yjL8/f3h6+ur05GxRF8inod1fx5WNdpGW/qoq9T0/0ZGRqhYsaLkvlWrVtWmqnlyTpczNjbO1dTURF8bVf8PZ86cQeXKlXHu3DmldMXR502aNFEKrp89exbdunWTXG+9YcOGOg8+Hjx4EIMGDRJN/d26dWts3rxZ8nhv3rxBnz59EBQUlKNjxsbGahVc1+Zco69zKq8rvK4Q5bW86FfILUdHRyxfvjxPAtwPHjzAtGnThPdOTk5Yvny53o9Lnwc+akVEREREX4TixYtLpt+7d0/rMlTllZctFSAqXLiw1uXrQlxcnChNXeeeqm2Kn0XVlOaq1iKuUKECZDKZ8FK1hpmq4+WG4rTT+igzq4kTJ0pOQZ3V+PHjVa4xR/St4HlYmjbnYRcXF8k8V69ezV7lstBHXRMSEkTbLSwsYGRklK0y1R0jN9Sd0+Xs7e11OpsB0ZfOwcEB5cuXF6WfPXtWmOpdrmLFisIDTwAk111XNdWvroOP586dg5eXF9LS0pTS69Wrh71798LU1FS0z6dPn9CyZcscB9YBqH3oUpE25xp9nVN5XeF1hSiv5UW/QnYYGRmhUKFCqFSpEvr164ctW7bg+fPneTZyfOHChUhOThber127Ns/vWyj/MLhORERERF+Ehg0bSk7Xd/LkSbVTO8rFxsZKdjY5OzujbNmyAKTXDY6Jicl+ZXOhYMGCojSpDilN2xQ/S8OGDWFhYSHKc+LECZWjSLMrO2suq6PYmamPMhUdP34cK1euFKVXrVpVNP10fHw8fHx8RKOmiL4lPA9L0/Y8bGlpKcpz4sQJrTr1VdFHXaWCGh8/flR5LlV3PFXHyA1tgl4MgBCJSQW+z549q3JKeLnatWsrtSNv3ryJEydO4NOnT1odI6eCg4PRsWNHpXVsgczg/8GDB2FlZSW537Zt2yQf5Bo2bBhu376NDx8+CIGekydP5qqO2pxr9HVO5XWF1xWivJYX/QrqTJ8+XSlYn5aWhpiYGNy7dw9btmxBv379JOunL6mpqUrvO3bsCAMDA9Hr9OnTon03btwobHd1dc2jGpMuMbhORERERF8Ea2tryQ67169fY/fu3Rr3X716NVJSUkTpbdu2FX6WuqmJiIjAw4cPs1fZXJB6GjwsLEzlzWpwcLBkeokSJYSfzc3NlT6nXGJiIv74448c1lSZ1OiZKlWqKN38avOqXr26XsuUi42NlZxitFChQjhy5AjGjh0r2icwMBBLlizJ/pdD9JXgeTjn52EzMzPJ8/DHjx/x+++/57Cm+qmr4s9y6enpePDggeS+d+7c0aaqej2nE5FmWUegA5nTdW/cuFEpLet53sTEBPXr1xfep6enY+7cuaKyzMzMUKdOHZ3U9dmzZ2jTpo1oFHXJkiVx7NgxlcuUANLrcNerVw9r1qxB1apVlYLyeTErkb7Oqbyu8LpClNfyol+B6EvB4DoRERERfTF+/vlnyfTx48dLrrknd+PGDcyaNUuUbmhoiP/973/C+1atWknuP2nSJLX1UpwKLCup6SqTkpJU5m/RooUoTSaTYf369ZL5161bp1U5U6dOFY3GBoBFixZh1apVKuujLU9PT1Ha3bt3RaOhVHn48CHu37+v9zLlfvjhB7x69UqUvmLFCjg7O+Ovv/6SXAdy0qRJeRrkI/rc8Dwspu15eNq0aZJrAy9btkzr87C/vz/279+v17o2aNBAMo+vr69kup+fn4raKtPnOZ2INJMKrgPA+fPnld5LPUSVdd+s+wBA3bp1dTK6NyIiAq1atcLbt2+V0osUKYLjx4+rXKJELjIyUpQmtU5weno6Vq9enbvKakFf51SA1xVeV4jynr77FYi+FAyuExEREdEXo23btpKBl4iICDRs2BA7duxQGhX54cMHrFq1Ci1atEBiYqJov6FDhyoFUFu0aCFMTaxo//796N69O548eaKUHhsbi3Xr1qFy5coq61yoUCFR2pEjR0RTiMm1atVKcnTH1KlTsXPnTmGkdWpqKmbPno2tW7eK8rZu3RrFihVTSqtRowaGDx8uyiuTyTBy5Eh06dIFZ86cEdUrNjZW1LkpxdPTE25ubqL0Ll26YMOGDaLAV2pqKm7fvo2FCxeiSZMmqFixIq5cuaL3MgFg9+7d2LZtmyjdy8sLffr0AZD5VP7mzZthYmKilCc5ORne3t6itT+JvhU8D+f8POzu7o4RI0ZIHnPkyJHw8vLC1atXRTNqhIeHY+3atahduza6du2K0NBQvda1Xr16kufepUuXwtfXVygzJSUFv/zyC06dOiX5mbLS1zmdiLTj4uIieb5QVKJECcnRwKoC84p0MSX8+/fv0aZNG4SEhCilW1tb4/DhwyhXrpzGMqSmNT9+/DiOHTsmvI+Ojkb//v1x6dKlXNdZE32dUwFeV3hdIcp7+u5X+JK4ubmhVq1aGl8FChQQ7WtnZydsr1atWj7UnnLLQMZFA4mIiIh0Yl63Q/ldhXzx8772eXq86Oho1KtXD8+ePZPcbmVlhZIlSyI9PR0vXryQnIIYyBxBERgYKBphc/DgQXTq1Enl2trFixeHnZ0d4uPjERoaKuRTlb9169Y4fvy4KL1QoUIoUaKEELz97bff0L17dwDA1q1b0b9/f8nyHBwc4OjoiBcvXoimygQyp4i8ePEiatSoIdqWmpqKDh06SNZHztLSEs7OzrCyskJcXBzCw8Ml1yFs1qwZgoKClNL27dsnfIasTExM4OTkhEKFCiEuLg6vX78WrdXp6+sLHx8fvZb55s0bVKlSRbQWpaOjI+7evSuaZvSPP/7A1KlTRceePn06ZsyYIVkvyl/DKwTmdxXy3JqHzfP0eDwP5/w8nJaWhk6dOuHIkSOSZQOZgSFnZ2cYGBggKioKUVFRStsXLVqE8ePHC+/1UdfVq1erDNgUKVIEjo6OCA0NVbsubmBgIDw8PJTS9HGdmDFjhmgKZBcXF6VgEX2+NhuIO5y/dt6yD/l27P79+0sGQ+X69u0ruT0pKQm2trYqH0oCgMOHD0tOFwxo/3/6ww8/4J9//hHtX6RIEcnpyhWtXr0atWrVwvLlyzFmzBjJPCVKlICNjQ0eP36s9rOEhISIlinJzblGX+dUgNcVXlcoK6lR1V+7vA7x6btfISgoCM2bi+9v9HEPLvX/Dqg+5+aEh4eHaN31gQMHZmumEvr8cOQ6EREREX1R7OzscOrUKdStW1dye2JiIh48eIDHjx+rDOi0b98eBw8elJy6skOHDli6dKnkFItA5tqUwcHBCAkJ0eom1svLSzL9/fv3uH37Nq5fv47r168rTWHZr18//Prrr5L7RUZG4vbt25KdWUZGRtiwYYNkQAfI7GDav38/hgwZorK+SUlJePr0KYKDgxEaGip5A6xKt27dMG/ePMltqampCAsLE8rN2rGVV2UOHTpUFFgHgPXr10uu3zlp0iTUq1dPlP7nn3/i2rVrWnwCoq8Pz8M5Pw8bGxtj7969kiN+5OLi4vDgwQPcv39fFACRoo+6Dh8+HO3atZMsMyoqCnfu3BECINlZY1kf1wki0p6mEeiqRp9bWlqiVq1aKvczNDREw4YNc1U3AJIznACZ5x35uVrVS35O8vHxEc0cIhceHo579+4hNTUVBgYGGDt2bK7rrA19nVMBXld4XSHKe/ruVyD6EjC4TkRERERfnJIlS+Ls2bOYOXMm7O3ttd6vRIkSWL58OQ4cOCA5TbDc6NGjcfLkSa2mntRk0KBBkusBajJnzhxs3rxZ689XpkwZBAYGom/fvmrzWVpaYt26dfD398925x2QGVQbPXo0li1bJrl94sSJOHjwoOSUoqoYGBigUaNGKqdD01WZa9euxcGDB0V5hw4divbtpWdgMDIywubNm2FpaamUnpaWhgEDBqhd55noa8bzsJi252ELCwusXr0aBw4cQP369bNVp9KlS6N69ep6r6uBgQH27NmDTp06qS3Hy8sLmzdv1uqYcvq4ThCRdjRN3a5uu7rAvLu7O2xsbHJcL10qUKAADhw4ACcnJ5V5zM3NsXbtWnTr1i1P6qTPcyrA6wqvK0R5T9/9CkSfO+P8rgARERHR1yKvp0f/1pmammLq1KmYMGEC/P39ERQUhMuXLyMyMhIxMTEwNDRE4cKF4eTkhIYNG6J58+bo0KGDaA1tVTw8PPDw4UMcOXIEBw4cwKVLl/Dy5UvExsbCzMwMjo6OKFmyJDw8PCTXH5YzNjbGkSNHsG7dOvz777+4c+cOYmNjtVqzu3///ujRowe2b9+OY8eO4fr164iKikJiYiJsbGzg6OiIevXqoVOnTujSpYvKUZ5SOnfujM6dO+Py5cs4fvw4zp07h6dPnyImJgbx8fEwNzeHtbU1nJ2dUa5cOVSrVg0tWrRA7dq1YWRkpLbs9u3b49mzZwgICMDhw4dx+fJlvH79GnFxcTAyMkLBggXh6uqKypUro3HjxmjVqhWKFy+u1zJDQkLw008/icp1c3PDokWL1B67bNmy+PvvvzFq1Cil9AcPHuDXX3/F4sWL1e5PeSuvp0j/lvE8nLvzcIcOHdChQwdcvXoVx44dw7lz5/DkyRO8f/8ecXFxMDc3h52dHcqXL486deqgXbt2aNSokcrpTnVdVwsLCwQEBGDv3r1Yv349rl27htjYWBQpUgR169bF4MGD0bFjxxxNk6uP6wR9mfJzivRvUcWKFVGkSBHJ0cuFCxdGpUqVVO7btGlTlSOEGzdurLM66kL16tVx584dLFmyBP7+/nj69CkAoFixYmjZsiVGjx6NSpUqiaYi1id9nlPleF3hdYXyfor0b50++xWIPmdcc52IiIiIiIiIiIiIiIiIiEgDTgtPRERERERERERERERERESkAYPrREREREREREREREREREREGjC4TkREREREREREREREREREpAGD60RERERERERERET/rz07EAAAAAAQ5G89wgKlEQAADLkOAAAAAAAAAEOuAwAAAAAAAMCQ6wAAAAAAAAAw5DoAAAAAAAAADLkOAAAAAAAAAEOuAwAAAAAAAMCQ6wAAAAAAAAAw5DoAAAAAAAAADLkOAAAAAAAAACNIz3utmI64xwAAAABJRU5ErkJggg==;clipPath=inset(1.38% 0.33% 0% 6.67%);" parent="Nk4qV-HExm6ET_pQnzFB-1" vertex="1">
          <mxGeometry x="111" y="399" width="884" height="340.61" as="geometry" />
        </mxCell>
        <mxCell id="Nk4qV-HExm6ET_pQnzFB-3" value="" style="rounded=0;whiteSpace=wrap;html=1;fillColor=#dae8fc;strokeColor=#6c8ebf;" parent="Nk4qV-HExm6ET_pQnzFB-1" vertex="1">
          <mxGeometry x="120" y="160" width="360" height="180" as="geometry" />
        </mxCell>
        <mxCell id="Nk4qV-HExm6ET_pQnzFB-4" value="&lt;div style=&quot;font-size: 16px;&quot;&gt;&lt;div style=&quot;font-size: 16px;&quot;&gt;import numpy as np&lt;/div&gt;&lt;div style=&quot;font-size: 16px;&quot;&gt;import matplotlib.pyplot as plt&lt;/div&gt;&lt;div style=&quot;font-size: 16px;&quot;&gt;&lt;br style=&quot;font-size: 16px;&quot;&gt;&lt;/div&gt;&lt;div style=&quot;font-size: 16px;&quot;&gt;# generate sample data&lt;/div&gt;&lt;div style=&quot;font-size: 16px;&quot;&gt;x_data = np.linspace(-5, 5, 20)&lt;/div&gt;&lt;div style=&quot;font-size: 16px;&quot;&gt;y_data = np.random.normal(0.0, 1.0, x_data.size)&lt;/div&gt;&lt;div style=&quot;font-size: 16px;&quot;&gt;&lt;br style=&quot;font-size: 16px;&quot;&gt;&lt;/div&gt;&lt;div style=&quot;font-size: 16px;&quot;&gt;plt.plot(x_data, y_data, &#39;o&#39;)&lt;/div&gt;&lt;div style=&quot;font-size: 16px;&quot;&gt;plt.show()&lt;/div&gt;&lt;/div&gt;" style="text;html=1;strokeColor=#6C8EBF;fillColor=none;align=left;verticalAlign=middle;whiteSpace=wrap;rounded=0;spacing=5;fontSize=16;fontStyle=0;strokeWidth=3;" parent="Nk4qV-HExm6ET_pQnzFB-1" vertex="1">
          <mxGeometry x="120" y="160" width="360" height="180" as="geometry" />
        </mxCell>
        <mxCell id="Nk4qV-HExm6ET_pQnzFB-5" value="&lt;b&gt;&lt;font style=&quot;font-size: 18px;&quot;&gt;Code Before&lt;/font&gt;&lt;/b&gt;" style="text;html=1;strokeColor=none;fillColor=none;align=center;verticalAlign=middle;whiteSpace=wrap;rounded=0;" parent="Nk4qV-HExm6ET_pQnzFB-1" vertex="1">
          <mxGeometry x="350" y="160" width="130" height="30" as="geometry" />
        </mxCell>
        <mxCell id="Nk4qV-HExm6ET_pQnzFB-6" value="" style="rounded=0;whiteSpace=wrap;html=1;fillColor=#dae8fc;strokeColor=#6c8ebf;strokeWidth=3;" parent="Nk4qV-HExm6ET_pQnzFB-1" vertex="1">
          <mxGeometry x="120" y="350" width="360" height="50" as="geometry" />
        </mxCell>
        <mxCell id="Nk4qV-HExm6ET_pQnzFB-7" value="" style="rounded=0;whiteSpace=wrap;html=1;fillColor=#f8cecc;strokeColor=#b85450;" parent="Nk4qV-HExm6ET_pQnzFB-1" vertex="1">
          <mxGeometry x="510" y="160" width="480" height="240" as="geometry" />
        </mxCell>
        <mxCell id="Nk4qV-HExm6ET_pQnzFB-8" value="&lt;b&gt;&lt;font style=&quot;font-size: 18px;&quot;&gt;Commit &lt;br&gt;Message&lt;/font&gt;&lt;/b&gt;" style="text;html=1;strokeColor=none;fillColor=none;align=center;verticalAlign=middle;whiteSpace=wrap;rounded=0;" parent="Nk4qV-HExm6ET_pQnzFB-1" vertex="1">
          <mxGeometry x="390" y="350" width="90" height="50" as="geometry" />
        </mxCell>
        <mxCell id="Nk4qV-HExm6ET_pQnzFB-9" value="&lt;b&gt;&lt;font style=&quot;font-size: 18px;&quot;&gt;Code After&lt;/font&gt;&lt;/b&gt;" style="text;html=1;strokeColor=none;fillColor=none;align=center;verticalAlign=middle;whiteSpace=wrap;rounded=0;" parent="Nk4qV-HExm6ET_pQnzFB-1" vertex="1">
          <mxGeometry x="870" y="160" width="120" height="30" as="geometry" />
        </mxCell>
        <mxCell id="Nk4qV-HExm6ET_pQnzFB-10" value="&lt;div style=&quot;font-size: 16px;&quot;&gt;&lt;font style=&quot;font-size: 16px;&quot;&gt;Change to sin() function with noise&lt;/font&gt;&lt;/div&gt;" style="text;html=1;strokeColor=none;fillColor=none;align=left;verticalAlign=middle;whiteSpace=wrap;rounded=0;spacing=5;fontSize=16;" parent="Nk4qV-HExm6ET_pQnzFB-1" vertex="1">
          <mxGeometry x="120" y="350" width="270" height="50" as="geometry" />
        </mxCell>
        <mxCell id="Nk4qV-HExm6ET_pQnzFB-11" value="&lt;div style=&quot;&quot;&gt;&lt;div style=&quot;border-color: var(--border-color);&quot;&gt;&lt;div style=&quot;border-color: var(--border-color);&quot;&gt;import math&lt;/div&gt;&lt;div style=&quot;border-color: var(--border-color);&quot;&gt;import numpy as np&lt;/div&gt;&lt;div style=&quot;border-color: var(--border-color);&quot;&gt;import matplotlib.pyplot as plt&lt;/div&gt;&lt;div style=&quot;border-color: var(--border-color);&quot;&gt;&lt;br&gt;&lt;/div&gt;&lt;div style=&quot;border-color: var(--border-color);&quot;&gt;# generate sample data&lt;/div&gt;&lt;div style=&quot;border-color: var(--border-color);&quot;&gt;x_data = np.linspace(-math.pi, math.pi, 30)&lt;/div&gt;&lt;div style=&quot;border-color: var(--border-color);&quot;&gt;y_data = np.sin(x_data) + np.random.normal(0.0, 0.1, x_data.size)&lt;/div&gt;&lt;div style=&quot;border-color: var(--border-color);&quot;&gt;&lt;br&gt;&lt;/div&gt;&lt;div style=&quot;border-color: var(--border-color);&quot;&gt;plt.plot(x_data, y_data, &#39;o&#39;)&lt;/div&gt;&lt;div style=&quot;border-color: var(--border-color);&quot;&gt;plt.show()&lt;/div&gt;&lt;div style=&quot;font-size: 16px;&quot;&gt;&lt;br&gt;&lt;/div&gt;&lt;/div&gt;&lt;/div&gt;" style="text;html=1;strokeColor=#b00707;fillColor=none;align=left;verticalAlign=middle;whiteSpace=wrap;rounded=0;spacing=5;fontSize=16;strokeWidth=3;" parent="Nk4qV-HExm6ET_pQnzFB-1" vertex="1">
          <mxGeometry x="510" y="160" width="480" height="240" as="geometry" />
        </mxCell>
        <mxCell id="Nk4qV-HExm6ET_pQnzFB-12" value="" style="endArrow=classic;html=1;curved=1;strokeWidth=6;fontColor=#937AE2;" parent="Nk4qV-HExm6ET_pQnzFB-1" edge="1">
          <mxGeometry width="50" height="50" relative="1" as="geometry">
            <mxPoint x="470" y="320" as="sourcePoint" />
            <mxPoint x="520" y="370" as="targetPoint" />
            <Array as="points">
              <mxPoint x="470" y="380" />
            </Array>
          </mxGeometry>
        </mxCell>
        <mxCell id="Nk4qV-HExm6ET_pQnzFB-13" value="&lt;font face=&quot;Verdana&quot; style=&quot;font-size: 22px;&quot;&gt;1) CommitPack&lt;br&gt;&lt;br&gt;&lt;/font&gt;" style="text;html=1;align=center;verticalAlign=middle;resizable=0;points=[];autosize=1;strokeColor=none;fillColor=none;fontStyle=1;fontSize=20;" parent="Nk4qV-HExm6ET_pQnzFB-1" vertex="1">
          <mxGeometry x="95" y="115" width="210" height="70" as="geometry" />
        </mxCell>
        <mxCell id="Nk4qV-HExm6ET_pQnzFB-14" value="&lt;font face=&quot;Verdana&quot; style=&quot;font-size: 22px;&quot;&gt;2) HumanEvalPack&lt;/font&gt;" style="text;html=1;align=center;verticalAlign=middle;resizable=0;points=[];autosize=1;strokeColor=none;fillColor=none;fontStyle=1;fontSize=20;" parent="Nk4qV-HExm6ET_pQnzFB-1" vertex="1">
          <mxGeometry x="100" y="420" width="260" height="40" as="geometry" />
        </mxCell>
        <mxCell id="Nk4qV-HExm6ET_pQnzFB-15" value="" style="sketch=0;aspect=fixed;pointerEvents=1;shadow=0;dashed=0;html=1;strokeColor=none;labelPosition=center;verticalLabelPosition=bottom;verticalAlign=top;align=center;fillColor=#000000;shape=mxgraph.mscae.enterprise.lock;" parent="Nk4qV-HExm6ET_pQnzFB-1" vertex="1">
          <mxGeometry x="818" y="711" width="11" height="14.1" as="geometry" />
        </mxCell>
        <mxCell id="Nk4qV-HExm6ET_pQnzFB-16" value="" style="endArrow=none;dashed=1;html=1;rounded=0;strokeWidth=6;" parent="Nk4qV-HExm6ET_pQnzFB-1" edge="1">
          <mxGeometry width="50" height="50" relative="1" as="geometry">
            <mxPoint x="887" y="653" as="sourcePoint" />
            <mxPoint x="887" y="520" as="targetPoint" />
          </mxGeometry>
        </mxCell>
        <mxCell id="Nk4qV-HExm6ET_pQnzFB-17" value="" style="sketch=0;aspect=fixed;pointerEvents=1;shadow=0;dashed=0;html=1;strokeColor=none;labelPosition=center;verticalLabelPosition=bottom;verticalAlign=top;align=center;fillColor=#000000;shape=mxgraph.mscae.enterprise.lock;" parent="Nk4qV-HExm6ET_pQnzFB-1" vertex="1">
          <mxGeometry x="946" y="711" width="11" height="14.1" as="geometry" />
        </mxCell>
        <mxCell id="Nk4qV-HExm6ET_pQnzFB-18" value="" style="endArrow=none;dashed=1;html=1;rounded=0;strokeWidth=6;" parent="Nk4qV-HExm6ET_pQnzFB-1" edge="1">
          <mxGeometry width="50" height="50" relative="1" as="geometry">
            <mxPoint x="590" y="653" as="sourcePoint" />
            <mxPoint x="590" y="520" as="targetPoint" />
          </mxGeometry>
        </mxCell>
        <mxCell id="Nk4qV-HExm6ET_pQnzFB-19" value="" style="endArrow=none;dashed=1;html=1;rounded=0;strokeWidth=6;" parent="Nk4qV-HExm6ET_pQnzFB-1" edge="1">
          <mxGeometry width="50" height="50" relative="1" as="geometry">
            <mxPoint x="294" y="653" as="sourcePoint" />
            <mxPoint x="294" y="520" as="targetPoint" />
          </mxGeometry>
        </mxCell>
      </root>
    </mxGraphModel>
  </diagram>
</mxfile>
